<svg width="20" height="20" viewBox="0 0 20 20" fill="none" xmlns="http://www.w3.org/2000/svg">
<path id="Vector" d="M3 1.5C3 1.79667 2.91203 2.08668 2.74721 2.33336C2.58238 2.58003 2.34811 2.77229 2.07403 2.88582C1.79994 2.99935 1.49834 3.02906 1.20737 2.97118C0.916394 2.9133 0.649119 2.77044 0.43934 2.56066C0.229562 2.35088 0.0867006 2.08361 0.0288228 1.79264C-0.0290551 1.50166 0.000649929 1.20006 0.114181 0.925976C0.227713 0.651887 0.419972 0.417619 0.666645 0.252797C0.913319 0.0879744 1.20333 8.0917e-07 1.5 8.0917e-07C1.89783 8.0917e-07 2.27936 0.158036 2.56066 0.43934C2.84197 0.720645 3 1.10218 3 1.5ZM10 8.0917e-07C9.70333 8.0917e-07 9.41332 0.0879744 9.16665 0.252797C8.91997 0.417619 8.72771 0.651887 8.61418 0.925976C8.50065 1.20006 8.47095 1.50166 8.52882 1.79264C8.5867 2.08361 8.72956 2.35088 8.93934 2.56066C9.14912 2.77044 9.41639 2.9133 9.70737 2.97118C9.99834 3.02906 10.2999 2.99935 10.574 2.88582C10.8481 2.77229 11.0824 2.58003 11.2472 2.33336C11.412 2.08668 11.5 1.79667 11.5 1.5C11.5 1.10218 11.342 0.720645 11.0607 0.43934C10.7794 0.158036 10.3978 8.0917e-07 10 8.0917e-07ZM18.5 3C18.7967 3 19.0867 2.91203 19.3334 2.74721C19.58 2.58238 19.7723 2.34811 19.8858 2.07403C19.9993 1.79994 20.0291 1.49834 19.9712 1.20737C19.9133 0.916394 19.7704 0.649119 19.5607 0.43934C19.3509 0.229562 19.0836 0.0867006 18.7926 0.0288228C18.5017 -0.0290551 18.2001 0.000649929 17.926 0.114181C17.6519 0.227713 17.4176 0.419972 17.2528 0.666645C17.088 0.913319 17 1.20333 17 1.5C17 1.89783 17.158 2.27936 17.4393 2.56066C17.7206 2.84197 18.1022 3 18.5 3ZM1.5 8.5C1.20333 8.5 0.913319 8.58797 0.666645 8.7528C0.419972 8.91762 0.227713 9.15189 0.114181 9.42598C0.000649929 9.70006 -0.0290551 10.0017 0.0288228 10.2926C0.0867006 10.5836 0.229562 10.8509 0.43934 11.0607C0.649119 11.2704 0.916394 11.4133 1.20737 11.4712C1.49834 11.5291 1.79994 11.4994 2.07403 11.3858C2.34811 11.2723 2.58238 11.08 2.74721 10.8334C2.91203 10.5867 3 10.2967 3 10C3 9.60218 2.84197 9.22064 2.56066 8.93934C2.27936 8.65804 1.89783 8.5 1.5 8.5ZM10 8.5C9.70333 8.5 9.41332 8.58797 9.16665 8.7528C8.91997 8.91762 8.72771 9.15189 8.61418 9.42598C8.50065 9.70006 8.47095 10.0017 8.52882 10.2926C8.5867 10.5836 8.72956 10.8509 8.93934 11.0607C9.14912 11.2704 9.41639 11.4133 9.70737 11.4712C9.99834 11.5291 10.2999 11.4994 10.574 11.3858C10.8481 11.2723 11.0824 11.08 11.2472 10.8334C11.412 10.5867 11.5 10.2967 11.5 10C11.5 9.60218 11.342 9.22064 11.0607 8.93934C10.7794 8.65804 10.3978 8.5 10 8.5ZM18.5 8.5C18.2033 8.5 17.9133 8.58797 17.6666 8.7528C17.42 8.91762 17.2277 9.15189 17.1142 9.42598C17.0007 9.70006 16.9709 10.0017 17.0288 10.2926C17.0867 10.5836 17.2296 10.8509 17.4393 11.0607C17.6491 11.2704 17.9164 11.4133 18.2074 11.4712C18.4983 11.5291 18.7999 11.4994 19.074 11.3858C19.3481 11.2723 19.5824 11.08 19.7472 10.8334C19.912 10.5867 20 10.2967 20 10C20 9.60218 19.842 9.22064 19.5607 8.93934C19.2794 8.65804 18.8978 8.5 18.5 8.5ZM1.5 17C1.20333 17 0.913319 17.088 0.666645 17.2528C0.419972 17.4176 0.227713 17.6519 0.114181 17.926C0.000649929 18.2001 -0.0290551 18.5017 0.0288228 18.7926C0.0867006 19.0836 0.229562 19.3509 0.43934 19.5607C0.649119 19.7704 0.916394 19.9133 1.20737 19.9712C1.49834 20.0291 1.79994 19.9993 2.07403 19.8858C2.34811 19.7723 2.58238 19.58 2.74721 19.3334C2.91203 19.0867 3 18.7967 3 18.5C3 18.1022 2.84197 17.7206 2.56066 17.4393C2.27936 17.158 1.89783 17 1.5 17ZM10 17C9.70333 17 9.41332 17.088 9.16665 17.2528C8.91997 17.4176 8.72771 17.6519 8.61418 17.926C8.50065 18.2001 8.47095 18.5017 8.52882 18.7926C8.5867 19.0836 8.72956 19.3509 8.93934 19.5607C9.14912 19.7704 9.41639 19.9133 9.70737 19.9712C9.99834 20.0291 10.2999 19.9993 10.574 19.8858C10.8481 19.7723 11.0824 19.58 11.2472 19.3334C11.412 19.0867 11.5 18.7967 11.5 18.5C11.5 18.1022 11.342 17.7206 11.0607 17.4393C10.7794 17.158 10.3978 17 10 17ZM18.5 17C18.2033 17 17.9133 17.088 17.6666 17.2528C17.42 17.4176 17.2277 17.6519 17.1142 17.926C17.0007 18.2001 16.9709 18.5017 17.0288 18.7926C17.0867 19.0836 17.2296 19.3509 17.4393 19.5607C17.6491 19.7704 17.9164 19.9133 18.2074 19.9712C18.4983 20.0291 18.7999 19.9993 19.074 19.8858C19.3481 19.7723 19.5824 19.58 19.7472 19.3334C19.912 19.0867 20 18.7967 20 18.5C20 18.1022 19.842 17.7206 19.5607 17.4393C19.2794 17.158 18.8978 17 18.5 17Z" fill="black"/>
</svg>
