<svg width="22" height="22" viewBox="0 0 22 22" fill="none" xmlns="http://www.w3.org/2000/svg">
<path id="Vector" d="M8 0H2C1.46957 0 0.960859 0.210714 0.585786 0.585786C0.210714 0.960859 0 1.46957 0 2V8C0 8.53043 0.210714 9.03914 0.585786 9.41421C0.960859 9.78929 1.46957 10 2 10H8C8.53043 10 9.03914 9.78929 9.41421 9.41421C9.78929 9.03914 10 8.53043 10 8V2C10 1.46957 9.78929 0.960859 9.41421 0.585786C9.03914 0.210714 8.53043 0 8 0ZM8 8H2V2H8V8ZM20 0H14C13.4696 0 12.9609 0.210714 12.5858 0.585786C12.2107 0.960859 12 1.46957 12 2V8C12 8.53043 12.2107 9.03914 12.5858 9.41421C12.9609 9.78929 13.4696 10 14 10H20C20.5304 10 21.0391 9.78929 21.4142 9.41421C21.7893 9.03914 22 8.53043 22 8V2C22 1.46957 21.7893 0.960859 21.4142 0.585786C21.0391 0.210714 20.5304 0 20 0ZM20 8H14V2H20V8ZM8 12H2C1.46957 12 0.960859 12.2107 0.585786 12.5858C0.210714 12.9609 0 13.4696 0 14V20C0 20.5304 0.210714 21.0391 0.585786 21.4142C0.960859 21.7893 1.46957 22 2 22H8C8.53043 22 9.03914 21.7893 9.41421 21.4142C9.78929 21.0391 10 20.5304 10 20V14C10 13.4696 9.78929 12.9609 9.41421 12.5858C9.03914 12.2107 8.53043 12 8 12ZM8 20H2V14H8V20ZM20 12H14C13.4696 12 12.9609 12.2107 12.5858 12.5858C12.2107 12.9609 12 13.4696 12 14V20C12 20.5304 12.2107 21.0391 12.5858 21.4142C12.9609 21.7893 13.4696 22 14 22H20C20.5304 22 21.0391 21.7893 21.4142 21.4142C21.7893 21.0391 22 20.5304 22 20V14C22 13.4696 21.7893 12.9609 21.4142 12.5858C21.0391 12.2107 20.5304 12 20 12ZM20 20H14V14H20V20Z" fill="#8E9DBC"/>
</svg>
