<svg width="25" height="20" viewBox="0 0 25 20" fill="none" xmlns="http://www.w3.org/2000/svg">
<path id="Vector" d="M24.207 10.7081L15.207 19.7081C15.0194 19.8957 14.7649 20.0011 14.4995 20.0011C14.2341 20.0011 13.9797 19.8957 13.792 19.7081C13.6044 19.5204 13.499 19.2659 13.499 19.0006C13.499 18.7352 13.6044 18.4807 13.792 18.2931L21.0858 11.0006H1.49951C1.2343 11.0006 0.979941 10.8952 0.792405 10.7077C0.604869 10.5201 0.499512 10.2658 0.499512 10.0006C0.499512 9.73534 0.604869 9.48099 0.792405 9.29345C0.979941 9.10591 1.2343 9.00056 1.49951 9.00056H21.0858L13.792 1.70806C13.6044 1.52042 13.499 1.26592 13.499 1.00056C13.499 0.735192 13.6044 0.480697 13.792 0.293056C13.9797 0.105415 14.2341 0 14.4995 0C14.7649 0 15.0194 0.105415 15.207 0.293056L24.207 9.29306C24.3 9.38593 24.3737 9.49622 24.4241 9.61762C24.4744 9.73901 24.5003 9.86914 24.5003 10.0006C24.5003 10.132 24.4744 10.2621 24.4241 10.3835C24.3737 10.5049 24.3 10.6152 24.207 10.7081Z" fill="#5A6C8D"/>
</svg>
