<svg width="18" height="18" viewBox="0 0 18 18" fill="none" xmlns="http://www.w3.org/2000/svg">
<path id="Vector" d="M17.9996 1V14C17.9996 14.2652 17.8942 14.5196 17.7067 14.7071C17.5192 14.8946 17.2648 15 16.9996 15C16.7344 15 16.48 14.8946 16.2925 14.7071C16.1049 14.5196 15.9996 14.2652 15.9996 14V3.41375L1.70708 17.7075C1.51944 17.8951 1.26494 18.0006 0.999579 18.0006C0.734215 18.0006 0.47972 17.8951 0.292079 17.7075C0.104439 17.5199 -0.000976562 17.2654 -0.000976562 17C-0.000976562 16.7346 0.104439 16.4801 0.292079 16.2925L14.5858 2H3.99958C3.73436 2 3.48001 1.89464 3.29247 1.70711C3.10494 1.51957 2.99958 1.26522 2.99958 1C2.99958 0.734784 3.10494 0.48043 3.29247 0.292893C3.48001 0.105357 3.73436 0 3.99958 0H16.9996C17.2648 0 17.5192 0.105357 17.7067 0.292893C17.8942 0.48043 17.9996 0.734784 17.9996 1Z" fill="white"/>
</svg>
