<svg width="12" height="22" viewBox="0 0 12 22" fill="none" xmlns="http://www.w3.org/2000/svg">
<path id="Vector" d="M11.7071 11.7081L1.70708 21.7081C1.61417 21.801 1.50387 21.8747 1.38248 21.9249C1.26108 21.9752 1.13097 22.0011 0.999579 22.0011C0.868185 22.0011 0.738076 21.9752 0.616683 21.9249C0.49529 21.8747 0.384989 21.801 0.292079 21.7081C0.199169 21.6151 0.125468 21.5048 0.0751858 21.3835C0.0249031 21.2621 -0.000976563 21.132 -0.000976562 21.0006C-0.000976563 20.8692 0.0249031 20.7391 0.0751858 20.6177C0.125468 20.4963 0.199169 20.386 0.292079 20.2931L9.58583 11.0006L0.292079 1.70806C0.104438 1.52042 -0.000976564 1.26592 -0.000976562 1.00056C-0.000976561 0.735192 0.104438 0.480697 0.292079 0.293056C0.47972 0.105415 0.734215 1.97712e-09 0.999579 0C1.26494 -1.97712e-09 1.51944 0.105415 1.70708 0.293056L11.7071 10.2931C11.8001 10.3859 11.8738 10.4962 11.9241 10.6176C11.9745 10.739 12.0004 10.8691 12.0004 11.0006C12.0004 11.132 11.9745 11.2621 11.9241 11.3835C11.8738 11.5049 11.8001 11.6152 11.7071 11.7081Z" fill="currentColor"/>
</svg>
