<svg width="27" height="22" viewBox="0 0 27 22" fill="none" xmlns="http://www.w3.org/2000/svg">
<path id="Vector" d="M26.5004 8C26.4981 10.121 25.6545 12.1545 24.1547 13.6543C22.6549 15.1541 20.6214 15.9977 18.5004 16H3.91417L8.20792 20.2925C8.39556 20.4801 8.50098 20.7346 8.50098 21C8.50098 21.2654 8.39556 21.5199 8.20792 21.7075C8.02028 21.8951 7.76578 22.0006 7.50042 22.0006C7.23506 22.0006 6.98056 21.8951 6.79292 21.7075L0.79292 15.7075C0.699944 15.6146 0.626185 15.5043 0.575861 15.3829C0.525536 15.2615 0.499634 15.1314 0.499634 15C0.499634 14.8686 0.525536 14.7385 0.575861 14.6171C0.626185 14.4957 0.699944 14.3854 0.79292 14.2925L6.79292 8.2925C6.98056 8.10486 7.23506 7.99944 7.50042 7.99944C7.76578 7.99944 8.02028 8.10486 8.20792 8.2925C8.39556 8.48014 8.50098 8.73464 8.50098 9C8.50098 9.26536 8.39556 9.51986 8.20792 9.7075L3.91417 14H18.5004C20.0917 14 21.6178 13.3679 22.7431 12.2426C23.8683 11.1174 24.5004 9.5913 24.5004 8C24.5004 6.4087 23.8683 4.88258 22.7431 3.75736C21.6178 2.63214 20.0917 2 18.5004 2H7.50042C7.2352 2 6.98085 1.89464 6.79331 1.70711C6.60578 1.51957 6.50042 1.26522 6.50042 1C6.50042 0.734784 6.60578 0.48043 6.79331 0.292893C6.98085 0.105357 7.2352 0 7.50042 0H18.5004C20.6214 0.00231607 22.6549 0.845915 24.1547 2.3457C25.6545 3.84549 26.4981 5.87898 26.5004 8Z" fill="black" fill-opacity="0.8"/>
</svg>
