<svg width="24" height="20" viewBox="0 0 24 20" fill="none" xmlns="http://www.w3.org/2000/svg">
<path id="Vector" d="M0.2925 10.7081L9.2925 19.7081C9.48014 19.8957 9.73464 20.0011 10 20.0011C10.2654 20.0011 10.5199 19.8957 10.7075 19.7081C10.8951 19.5204 11.0006 19.2659 11.0006 19.0006C11.0006 18.7352 10.8951 18.4807 10.7075 18.2931L3.41375 11.0006H23C23.2652 11.0006 23.5196 10.8952 23.7071 10.7077C23.8946 10.5201 24 10.2658 24 10.0006C24 9.73534 23.8946 9.48099 23.7071 9.29345C23.5196 9.10591 23.2652 9.00056 23 9.00056H3.41375L10.7075 1.70806C10.8951 1.52042 11.0006 1.26592 11.0006 1.00056C11.0006 0.735192 10.8951 0.480697 10.7075 0.293056C10.5199 0.105415 10.2654 0 10 0C9.73464 0 9.48014 0.105415 9.2925 0.293056L0.2925 9.29306C0.199524 9.38593 0.125763 9.49622 0.0754395 9.61762C0.025116 9.73901 -0.000785828 9.86914 -0.000785828 10.0006C-0.000785828 10.132 0.025116 10.2621 0.0754395 10.3835C0.125763 10.5049 0.199524 10.6152 0.2925 10.7081Z" fill="#000000"/>
</svg>
