<svg width="14" height="10" viewBox="0 0 14 10" fill="none" xmlns="http://www.w3.org/2000/svg">
<path id="Vector" d="M0.157917 6.85356L3.38859 9.85348C3.48962 9.94729 3.62666 10 3.76954 10C3.91242 10 4.04946 9.94729 4.15049 9.85348C4.25152 9.75966 4.30828 9.63241 4.30828 9.49974C4.30828 9.36706 4.25152 9.23981 4.15049 9.146L1.83854 6.9998H7.00021C8.85607 6.99799 10.6354 6.3126 11.9476 5.09404C13.2599 3.87548 13.998 2.22329 14 0.499986C14 0.367382 13.9433 0.240208 13.8423 0.146443C13.7413 0.0526771 13.6044 0 13.4616 0C13.3188 0 13.1818 0.0526771 13.0808 0.146443C12.9798 0.240208 12.9231 0.367382 12.9231 0.499986C12.9213 1.95813 12.2967 3.35608 11.1864 4.38714C10.076 5.4182 8.57051 5.99818 7.00021 5.99983H1.83854L4.15049 3.85364C4.25152 3.75983 4.30828 3.63258 4.30828 3.4999C4.30828 3.36722 4.25152 3.23998 4.15049 3.14616C4.04946 3.05234 3.91242 2.99964 3.76954 2.99964C3.62666 2.99964 3.48962 3.05234 3.38859 3.14616L0.157917 6.14608C0.107855 6.19251 0.0681391 6.24766 0.0410423 6.30835C0.0139456 6.36905 -9.53674e-07 6.43411 -9.53674e-07 6.49982C-9.53674e-07 6.56553 0.0139456 6.63059 0.0410423 6.69128C0.0681391 6.75198 0.107855 6.80712 0.157917 6.85356Z" fill="black"/>
</svg>
