<svg width="24" height="24" viewBox="0 0 24 24" fill="none" xmlns="http://www.w3.org/2000/svg">
<path d="M16.3077 7.69201H5.23077C4.90435 7.69201 4.5913 7.82168 4.36048 8.05249C4.12967 8.28331 4 8.59636 4 8.92278V17.5382C4 17.8646 4.12967 18.1776 4.36048 18.4084C4.5913 18.6393 4.90435 18.7689 5.23077 18.7689H16.3077C16.6341 18.7689 16.9472 18.6393 17.178 18.4084C17.4088 18.1776 17.5385 17.8646 17.5385 17.5382V8.92278C17.5385 8.59636 17.4088 8.28331 17.178 8.05249C16.9472 7.82168 16.6341 7.69201 16.3077 7.69201ZM16.3077 17.5382H5.23077V8.92278H16.3077V17.5382ZM20 6.46124V15.692C20 15.8552 19.9352 16.0117 19.8198 16.1272C19.7044 16.2426 19.5478 16.3074 19.3846 16.3074C19.2214 16.3074 19.0649 16.2426 18.9495 16.1272C18.8341 16.0117 18.7692 15.8552 18.7692 15.692V6.46124H7.07692C6.91371 6.46124 6.75719 6.3964 6.64178 6.281C6.52637 6.16559 6.46154 6.00906 6.46154 5.84585C6.46154 5.68264 6.52637 5.52612 6.64178 5.41071C6.75719 5.2953 6.91371 5.23047 7.07692 5.23047H18.7692C19.0957 5.23047 19.4087 5.36014 19.6395 5.59095C19.8703 5.82177 20 6.13482 20 6.46124Z" fill="#7D7D7D" fill-opacity="0.55"/>
</svg>
