<svg width="24" height="24" viewBox="0 0 24 24" fill="none" xmlns="http://www.w3.org/2000/svg">
<path d="M18.1538 5.84766H5.84615C5.35652 5.84766 4.88695 6.04216 4.54073 6.38838C4.19451 6.7346 4 7.20418 4 7.69381V16.3092C4 16.7988 4.19451 17.2684 4.54073 17.6146C4.88695 17.9608 5.35652 18.1553 5.84615 18.1553H18.1538C18.6435 18.1553 19.1131 17.9608 19.4593 17.6146C19.8055 17.2684 20 16.7988 20 16.3092V7.69381C20 7.20418 19.8055 6.7346 19.4593 6.38838C19.1131 6.04216 18.6435 5.84766 18.1538 5.84766ZM5.23077 9.53996H18.7692V10.7707H14.4615C14.2983 10.7707 14.1418 10.8356 14.0264 10.951C13.911 11.0664 13.8462 11.2229 13.8462 11.3861C13.8462 11.8757 13.6516 12.3453 13.3054 12.6915C12.9592 13.0378 12.4896 13.2323 12 13.2323C11.5104 13.2323 11.0408 13.0378 10.6946 12.6915C10.3484 12.3453 10.1538 11.8757 10.1538 11.3861C10.1538 11.2229 10.089 11.0664 9.9736 10.951C9.8582 10.8356 9.70167 10.7707 9.53846 10.7707H5.23077V9.53996ZM5.84615 7.07843H18.1538C18.3171 7.07843 18.4736 7.14326 18.589 7.25867C18.7044 7.37407 18.7692 7.5306 18.7692 7.69381V8.30919H5.23077V7.69381C5.23077 7.5306 5.2956 7.37407 5.41101 7.25867C5.52642 7.14326 5.68294 7.07843 5.84615 7.07843ZM18.1538 16.9246H5.84615C5.68294 16.9246 5.52642 16.8597 5.41101 16.7443C5.2956 16.6289 5.23077 16.4724 5.23077 16.3092V12.0015H8.98462C9.12586 12.6971 9.50322 13.3224 10.0528 13.7716C10.6023 14.2208 11.2902 14.4661 12 14.4661C12.7098 14.4661 13.3977 14.2208 13.9472 13.7716C14.4968 13.3224 14.8741 12.6971 15.0154 12.0015H18.7692V16.3092C18.7692 16.4724 18.7044 16.6289 18.589 16.7443C18.4736 16.8597 18.3171 16.9246 18.1538 16.9246Z" fill="#7D7D7D" fill-opacity="0.55"/>
</svg>
