<svg width="20" height="20" viewBox="0 0 20 20" fill="none" xmlns="http://www.w3.org/2000/svg">
<path d="M12.8534 10.3534L7.85393 15.3528C7.80748 15.3993 7.75234 15.4361 7.69165 15.4612C7.63096 15.4864 7.56591 15.4993 7.50022 15.4993C7.43453 15.4993 7.36948 15.4864 7.3088 15.4612C7.24811 15.4361 7.19296 15.3993 7.14651 15.3528C7.10006 15.3064 7.06322 15.2512 7.03808 15.1905C7.01294 15.1298 7 15.0648 7 14.9991C7 14.9334 7.01294 14.8684 7.03808 14.8077C7.06322 14.747 7.10006 14.6918 7.14651 14.6454L11.7929 9.99966L7.14651 5.35393C7.0527 5.26012 7 5.13289 7 5.00022C7 4.86755 7.0527 4.74032 7.14651 4.64651C7.24032 4.5527 7.36755 4.5 7.50022 4.5C7.63289 4.5 7.76012 4.5527 7.85393 4.64651L12.8534 9.64595C12.8999 9.69238 12.9367 9.74752 12.9619 9.80821C12.9871 9.86891 13 9.93396 13 9.99966C13 10.0654 12.9871 10.1304 12.9619 10.1911C12.9367 10.2518 12.8999 10.3069 12.8534 10.3534Z" fill="black"/>
</svg>
