<svg width="28" height="26" viewBox="0 0 28 26" fill="none" xmlns="http://www.w3.org/2000/svg">
<path id="Vector" d="M27.4946 7.175C27.3049 6.96212 27.0723 6.79189 26.812 6.67554C26.5517 6.55918 26.2697 6.49935 25.9846 6.5H19.9946C19.9946 4.9087 19.3625 3.38258 18.2372 2.25736C17.112 1.13214 15.5859 0.5 13.9946 0.5C12.4033 0.5 10.8772 1.13214 9.75196 2.25736C8.62674 3.38258 7.9946 4.9087 7.9946 6.5H2.0046C1.72118 6.50076 1.4411 6.56127 1.18264 6.67758C0.924174 6.79389 0.693138 6.96338 0.504599 7.175C0.317634 7.38583 0.177333 7.6338 0.0928894 7.90264C0.00844576 8.17148 -0.018234 8.45513 0.0145987 8.735L1.7971 23.735C1.85491 24.2237 2.09089 24.674 2.45988 24.9996C2.82888 25.3253 3.30498 25.5034 3.7971 25.5H24.2033C24.6955 25.5034 25.1716 25.3253 25.5406 24.9996C25.9096 24.674 26.1455 24.2237 26.2033 23.735L27.9858 8.735C28.0185 8.45504 27.9916 8.17134 27.907 7.90249C27.8223 7.63364 27.6818 7.38573 27.4946 7.175ZM13.9946 2.5C15.0555 2.5 16.0729 2.92143 16.823 3.67157C17.5732 4.42172 17.9946 5.43913 17.9946 6.5H9.9946C9.9946 5.43913 10.416 4.42172 11.1662 3.67157C11.9163 2.92143 12.9337 2.5 13.9946 2.5ZM24.2146 23.5C24.211 23.5013 24.207 23.5013 24.2033 23.5H3.77585L2.0046 8.5H7.9946V11.5C7.9946 11.7652 8.09996 12.0196 8.28749 12.2071C8.47503 12.3946 8.72938 12.5 8.9946 12.5C9.25982 12.5 9.51417 12.3946 9.7017 12.2071C9.88924 12.0196 9.9946 11.7652 9.9946 11.5V8.5H17.9946V11.5C17.9946 11.7652 18.1 12.0196 18.2875 12.2071C18.475 12.3946 18.7294 12.5 18.9946 12.5C19.2598 12.5 19.5142 12.3946 19.7017 12.2071C19.8892 12.0196 19.9946 11.7652 19.9946 11.5V8.5H25.9946L24.2146 23.5Z" fill="black"/>
</svg>
