<svg width="48" height="37" viewBox="0 0 48 37" fill="none" xmlns="http://www.w3.org/2000/svg">
<g id="Group">
<path id="Vector" d="M47 13.6653L36.854 2.24866C36.367 1.47048 35.656 1 34.907 1H13.093C12.344 1 11.633 1.47048 11.146 2.24767L1 13.6663V22.8367H47V13.6653Z" stroke="#D9D9D9"/>
<path id="Vector_2" d="M33.613 16.8135C33.613 15.2205 34.607 13.9053 35.84 13.9043H47V31.9067C47 34.0139 45.68 35.741 44.05 35.741H3.95C2.32 35.741 1 34.0129 1 31.9067V13.9043H12.16C13.393 13.9043 14.387 15.2175 14.387 16.8106V16.8324C14.387 18.4255 15.392 19.7119 16.624 19.7119H31.376C32.608 19.7119 33.613 18.4136 33.613 16.8205V16.8135Z" fill="#FAFAFA" stroke="#D9D9D9"/>
</g>
</svg>
