<svg width="20" height="20" viewBox="0 0 20 20" fill="none" xmlns="http://www.w3.org/2000/svg">
<g id="icon/category">
<path id="Union" fill-rule="evenodd" clip-rule="evenodd" d="M3.75 5.9375C3.75 4.72938 4.72938 3.75 5.9375 3.75C7.14562 3.75 8.125 4.72938 8.125 5.9375C8.125 7.14562 7.14562 8.125 5.9375 8.125C4.72938 8.125 3.75 7.14562 3.75 5.9375ZM5.9375 2.5C4.03902 2.5 2.5 4.03902 2.5 5.9375C2.5 7.83598 4.03902 9.375 5.9375 9.375C7.83598 9.375 9.375 7.83598 9.375 5.9375C9.375 4.03902 7.83598 2.5 5.9375 2.5ZM11.875 5.9375C11.875 4.72938 12.8544 3.75 14.0625 3.75C15.2706 3.75 16.25 4.72938 16.25 5.9375C16.25 7.14562 15.2706 8.125 14.0625 8.125C12.8544 8.125 11.875 7.14562 11.875 5.9375ZM14.0625 2.5C12.164 2.5 10.625 4.03902 10.625 5.9375C10.625 7.83598 12.164 9.375 14.0625 9.375C15.961 9.375 17.5 7.83598 17.5 5.9375C17.5 4.03902 15.961 2.5 14.0625 2.5ZM5.9375 11.875C4.72938 11.875 3.75 12.8544 3.75 14.0625C3.75 15.2706 4.72938 16.25 5.9375 16.25C7.14562 16.25 8.125 15.2706 8.125 14.0625C8.125 12.8544 7.14562 11.875 5.9375 11.875ZM2.5 14.0625C2.5 12.164 4.03902 10.625 5.9375 10.625C7.83598 10.625 9.375 12.164 9.375 14.0625C9.375 15.961 7.83598 17.5 5.9375 17.5C4.03902 17.5 2.5 15.961 2.5 14.0625ZM11.875 14.0625C11.875 12.8544 12.8544 11.875 14.0625 11.875C15.2706 11.875 16.25 12.8544 16.25 14.0625C16.25 15.2706 15.2706 16.25 14.0625 16.25C12.8544 16.25 11.875 15.2706 11.875 14.0625ZM14.0625 10.625C12.164 10.625 10.625 12.164 10.625 14.0625C10.625 15.961 12.164 17.5 14.0625 17.5C15.961 17.5 17.5 15.961 17.5 14.0625C17.5 12.164 15.961 10.625 14.0625 10.625Z" fill="#9C9C9C"/>
</g>
</svg>
