<svg width="48" height="48" viewBox="0 0 48 48" fill="none" xmlns="http://www.w3.org/2000/svg"><path d="M29.7075 20.2925C29.8005 20.3854 29.8742 20.4957 29.9246 20.6171C29.9749 20.7385 30.0008 20.8686 30.0008 21C30.0008 21.1314 29.9749 21.2615 29.9246 21.3829C29.8742 21.5043 29.8005 21.6146 29.7075 21.7075L22.7075 28.7075C22.6146 28.8005 22.5043 28.8742 22.3829 28.9246C22.2615 28.9749 22.1314 29.0008 22 29.0008C21.8686 29.0008 21.7385 28.9749 21.6171 28.9246C21.4957 28.8742 21.3854 28.8005 21.2925 28.7075L18.2925 25.7075C18.1049 25.5199 17.9994 25.2654 17.9994 25C17.9994 24.7346 18.1049 24.4801 18.2925 24.2925C18.4801 24.1049 18.7346 23.9994 19 23.9994C19.2654 23.9994 19.5199 24.1049 19.7075 24.2925L22 26.5863L28.2925 20.2925C28.3854 20.1995 28.4957 20.1258 28.6171 20.0754C28.7385 20.0251 28.8686 19.9992 29 19.9992C29.1314 19.9992 29.2615 20.0251 29.3829 20.0754C29.5043 20.1258 29.6146 20.1995 29.7075 20.2925ZM37 24C37 26.5712 36.2376 29.0846 34.8091 31.2224C33.3807 33.3603 31.3503 35.0265 28.9749 36.0104C26.5995 36.9944 23.9856 37.2518 21.4638 36.7502C18.9421 36.2486 16.6257 35.0105 14.8076 33.1924C12.9895 31.3743 11.7514 29.0579 11.2498 26.5362C10.7482 24.0144 11.0056 21.4006 11.9896 19.0251C12.9735 16.6497 14.6398 14.6194 16.7776 13.1909C18.9154 11.7624 21.4288 11 24 11C27.4467 11.0036 30.7512 12.3744 33.1884 14.8116C35.6256 17.2488 36.9964 20.5533 37 24ZM35 24C35 21.8244 34.3549 19.6977 33.1462 17.8887C31.9375 16.0798 30.2195 14.6699 28.2095 13.8373C26.1995 13.0048 23.9878 12.7869 21.854 13.2114C19.7202 13.6358 17.7602 14.6834 16.2218 16.2218C14.6835 17.7602 13.6358 19.7202 13.2114 21.854C12.7869 23.9878 13.0048 26.1995 13.8373 28.2095C14.6699 30.2195 16.0798 31.9375 17.8887 33.1462C19.6977 34.3549 21.8244 35 24 35C26.9164 34.9967 29.7123 33.8367 31.7745 31.7745C33.8367 29.7123 34.9967 26.9164 35 24Z" fill="#34d399" /></svg>