<svg width="16" height="16" viewBox="0 0 16 16" fill="none" xmlns="http://www.w3.org/2000/svg">
<path d="M8 0C6.41775 0 4.87103 0.469192 3.55544 1.34824C2.23985 2.22729 1.21447 3.47672 0.608967 4.93853C0.00346628 6.40034 -0.15496 8.00887 0.153721 9.56072C0.462403 11.1126 1.22433 12.538 2.34315 13.6569C3.46197 14.7757 4.88743 15.5376 6.43928 15.8463C7.99113 16.155 9.59966 15.9965 11.0615 15.391C12.5233 14.7855 13.7727 13.7602 14.6518 12.4446C15.5308 11.129 16 9.58225 16 8C15.9978 5.87895 15.1542 3.84542 13.6544 2.34562C12.1546 0.845814 10.121 0.00223986 8 0ZM10.8969 10.0262C10.9541 10.0833 10.9995 10.1512 11.0304 10.2259C11.0613 10.3006 11.0773 10.3807 11.0773 10.4615C11.0773 10.5424 11.0613 10.6225 11.0304 10.6972C10.9995 10.7719 10.9541 10.8397 10.8969 10.8969C10.8397 10.9541 10.7719 10.9994 10.6972 11.0304C10.6225 11.0613 10.5424 11.0773 10.4615 11.0773C10.3807 11.0773 10.3006 11.0613 10.2259 11.0304C10.1512 10.9994 10.0833 10.9541 10.0262 10.8969L8 8.87L5.97385 10.8969C5.91667 10.9541 5.8488 10.9994 5.77409 11.0304C5.69939 11.0613 5.61932 11.0773 5.53846 11.0773C5.45761 11.0773 5.37754 11.0613 5.30283 11.0304C5.22813 10.9994 5.16025 10.9541 5.10308 10.8969C5.0459 10.8397 5.00055 10.7719 4.96961 10.6972C4.93866 10.6225 4.92274 10.5424 4.92274 10.4615C4.92274 10.3807 4.93866 10.3006 4.96961 10.2259C5.00055 10.1512 5.0459 10.0833 5.10308 10.0262L7.13 8L5.10308 5.97385C4.98761 5.85837 4.92274 5.70176 4.92274 5.53846C4.92274 5.37516 4.98761 5.21855 5.10308 5.10308C5.21855 4.9876 5.37516 4.92273 5.53846 4.92273C5.70176 4.92273 5.85838 4.9876 5.97385 5.10308L8 7.13L10.0262 5.10308C10.0833 5.0459 10.1512 5.00055 10.2259 4.9696C10.3006 4.93866 10.3807 4.92273 10.4615 4.92273C10.5424 4.92273 10.6225 4.93866 10.6972 4.9696C10.7719 5.00055 10.8397 5.0459 10.8969 5.10308C10.9541 5.16025 10.9995 5.22813 11.0304 5.30283C11.0613 5.37753 11.0773 5.4576 11.0773 5.53846C11.0773 5.61932 11.0613 5.69939 11.0304 5.77409C10.9995 5.84879 10.9541 5.91667 10.8969 5.97385L8.87 8L10.8969 10.0262Z" fill="black"/>
</svg>
