<svg xmlns="http://www.w3.org/2000/svg" width="31" height="22" viewBox="0 0 31 22" fill="none">
  <path d="M16.4934 15.713C18.061 14.7367 19.268 13.2763 19.9318 11.5529C20.5955 9.82947 20.6799 7.93676 20.1721 6.16111C19.6644 4.38547 18.5921 2.8235 17.1176 1.71152C15.6431 0.599537 13.8465 -0.00195312 11.9997 -0.00195312C10.1529 -0.00195313 8.35629 0.599537 6.88176 1.71152C5.40724 2.8235 4.33499 4.38547 3.82724 6.16111C3.31949 7.93676 3.40386 9.82947 4.06759 11.5529C4.73133 13.2763 5.9383 14.7367 7.50593 15.713C4.92467 16.558 2.60218 18.1368 0.734676 20.3593C0.563942 20.5624 0.480866 20.8249 0.503722 21.0892C0.526578 21.3535 0.653494 21.5979 0.856551 21.7687C1.05961 21.9394 1.32217 22.0225 1.58648 21.9996C1.85079 21.9768 2.09519 21.8499 2.26593 21.6468C4.77468 18.6518 8.23218 17.003 11.9934 17.003C15.7547 17.003 19.2122 18.6518 21.7272 21.6468C21.8979 21.8499 22.1423 21.9768 22.4066 21.9996C22.6709 22.0225 22.9335 21.9394 23.1366 21.7687C23.3396 21.5979 23.4665 21.3535 23.4894 21.0892C23.5122 20.8249 23.4292 20.5624 23.2584 20.3593C21.3909 18.1368 19.0684 16.558 16.4934 15.713ZM5.49343 8.50305C5.49343 7.21747 5.87464 5.96076 6.58887 4.89184C7.3031 3.82292 8.31826 2.9898 9.50598 2.49783C10.6937 2.00586 12.0006 1.87714 13.2615 2.12794C14.5224 2.37875 15.6806 2.99781 16.5896 3.90685C17.4987 4.81589 18.1177 5.97408 18.3685 7.23496C18.6193 8.49584 18.4906 9.80277 17.9986 10.9905C17.5067 12.1782 16.6736 13.1934 15.6046 13.9076C14.5357 14.6218 13.279 15.003 11.9934 15.003C10.2701 15.0011 8.61798 14.3156 7.39942 13.097C6.18087 11.8785 5.49541 10.2263 5.49343 8.50305ZM30.2009 12.7105L26.2009 16.7105C26.1081 16.8035 25.9978 16.8773 25.8764 16.9276C25.755 16.9779 25.6248 17.0038 25.4934 17.0038C25.362 17.0038 25.2319 16.9779 25.1105 16.9276C24.9891 16.8773 24.8788 16.8035 24.7859 16.7105L22.7859 14.7105C22.5983 14.5229 22.4929 14.2684 22.4929 14.003C22.4929 13.7377 22.5983 13.4832 22.7859 13.2955C22.9736 13.1079 23.2281 13.0025 23.4934 13.0025C23.7588 13.0025 24.0133 13.1079 24.2009 13.2955L25.4934 14.5893L28.7859 11.2955C28.9736 11.1079 29.2281 11.0025 29.4934 11.0025C29.7588 11.0025 30.0133 11.1079 30.2009 11.2955C30.3886 11.4832 30.494 11.7377 30.494 12.003C30.494 12.2684 30.3886 12.5229 30.2009 12.7105Z" fill="black"/>
</svg>