<svg width="24" height="24" viewBox="0 0 24 24" fill="none" xmlns="http://www.w3.org/2000/svg">
<path d="M19.7262 9.63983L12.3415 4.71676C12.2404 4.64929 12.1216 4.61328 12 4.61328C11.8784 4.61328 11.7596 4.64929 11.6585 4.71676L4.27385 9.63983C4.18955 9.69608 4.12044 9.77227 4.07267 9.86164C4.0249 9.95102 3.99993 10.0508 4 10.1521V18.1521C4 18.4786 4.12967 18.7916 4.36048 19.0224C4.5913 19.2532 4.90435 19.3829 5.23077 19.3829H18.7692C19.0957 19.3829 19.4087 19.2532 19.6395 19.0224C19.8703 18.7916 20 18.4786 20 18.1521V10.1521C20.0001 10.0508 19.9751 9.95102 19.9273 9.86164C19.8796 9.77227 19.8105 9.69608 19.7262 9.63983ZM9.59385 14.4598L5.23077 17.5368V11.3468L9.59385 14.4598ZM10.8531 15.0752H13.1469L17.5031 18.1521H6.49692L10.8531 15.0752ZM14.4062 14.4598L18.7692 11.3468V17.5368L14.4062 14.4598ZM12 5.9683L18.3008 10.1691L13.1469 13.8445H10.8546L5.70077 10.1691L12 5.9683Z" fill="#7D7D7D" fill-opacity="0.55"/>
</svg>
