<svg xmlns="http://www.w3.org/2000/svg" width="28" height="14" viewBox="0 0 28 14" fill="none">
  <path d="M26.4957 10.4022C26.3815 10.4673 26.2555 10.5093 26.1251 10.5257C25.9946 10.5421 25.8622 10.5326 25.7354 10.4977C25.6086 10.4629 25.49 10.4034 25.3862 10.3227C25.2824 10.2419 25.1956 10.1415 25.1307 10.0272L22.7557 5.87716C21.3749 6.81076 19.8518 7.51407 18.2457 7.95966L18.9794 12.3622C19.0011 12.4918 18.997 12.6244 18.9674 12.7524C18.9377 12.8804 18.8832 13.0013 18.8068 13.1082C18.7304 13.2152 18.6337 13.306 18.5222 13.3755C18.4107 13.445 18.2866 13.4919 18.1569 13.5134C18.1036 13.5221 18.0497 13.5267 17.9957 13.5272C17.7591 13.5268 17.5303 13.4426 17.35 13.2895C17.1697 13.1364 17.0494 12.9243 17.0107 12.6909L16.2894 8.36841C14.7684 8.58008 13.2254 8.58008 11.7044 8.36841L10.9832 12.6909C10.9444 12.9247 10.8238 13.1371 10.6429 13.2903C10.4621 13.4435 10.2327 13.5274 9.99569 13.5272C9.94042 13.5269 9.88525 13.5223 9.83069 13.5134C9.70107 13.4919 9.57696 13.445 9.46545 13.3755C9.35395 13.306 9.25724 13.2152 9.18085 13.1082C9.10447 13.0013 9.0499 12.8804 9.02028 12.7524C8.99065 12.6244 8.98654 12.4918 9.00819 12.3622L9.74569 7.95966C8.14023 7.51266 6.61795 6.80808 5.23819 5.87341L2.87069 10.0272C2.73809 10.2582 2.51912 10.4272 2.26196 10.4968C2.0048 10.5664 1.73051 10.531 1.49944 10.3984C1.26837 10.2658 1.09945 10.0468 1.02982 9.78968C0.960201 9.53252 0.995586 9.25823 1.12819 9.02716L3.62819 4.65216C2.75007 3.89351 1.94259 3.05675 1.21569 2.15216C1.12504 2.05095 1.05597 1.93232 1.01269 1.80352C0.969409 1.67473 0.95283 1.53846 0.963966 1.40304C0.975101 1.26762 1.01372 1.1359 1.07746 1.0159C1.14119 0.8959 1.22872 0.79015 1.33469 0.705104C1.44065 0.620057 1.56284 0.557499 1.69379 0.521246C1.82474 0.484993 1.9617 0.475806 2.09632 0.494247C2.23094 0.512688 2.36039 0.55837 2.47676 0.628503C2.59314 0.698637 2.694 0.791751 2.77319 0.902162C4.84819 3.46966 8.47819 6.52716 13.9957 6.52716C19.5132 6.52716 23.1432 3.46591 25.2182 0.902162C25.2965 0.789491 25.3971 0.694135 25.5138 0.622027C25.6306 0.549919 25.7609 0.502601 25.8967 0.483018C26.0325 0.463434 26.1708 0.472004 26.3032 0.508194C26.4355 0.544383 26.559 0.607419 26.6659 0.693379C26.7729 0.779339 26.861 0.886384 26.9248 1.00785C26.9886 1.12932 27.0267 1.26262 27.0367 1.39945C27.0468 1.53628 27.0286 1.67372 26.9832 1.80321C26.9379 1.93271 26.8664 2.05149 26.7732 2.15216C26.0463 3.05675 25.2388 3.89351 24.3607 4.65216L26.8607 9.02716C26.9278 9.14121 26.9716 9.26744 26.9896 9.39854C27.0076 9.52964 26.9993 9.663 26.9654 9.7909C26.9314 9.91879 26.8724 10.0387 26.7918 10.1436C26.7112 10.2485 26.6105 10.3364 26.4957 10.4022Z" fill="black"/>
</svg>