<svg xmlns="http://www.w3.org/2000/svg" width="15" height="14" viewBox="0 0 15 14" fill="none">
  <path fill-rule="evenodd" clip-rule="evenodd" d="M14.47 7.15838C14.47 6.66202 14.4255 6.18474 14.3427 5.72656H7.75V8.43429H11.5173C11.355 9.30929 10.8618 10.0507 10.1205 10.547V12.3034H12.3827C13.7064 11.0847 14.47 9.2902 14.47 7.15838Z" fill="#4285F4"/>
  <path fill-rule="evenodd" clip-rule="evenodd" d="M7.75008 14.0001C9.64008 14.0001 11.2246 13.3733 12.3828 12.3042L10.1205 10.5478C9.49372 10.9678 8.6919 11.216 7.75008 11.216C5.9269 11.216 4.38372 9.98462 3.83327 8.33008H1.49463V10.1437C2.64645 12.4314 5.01372 14.0001 7.75008 14.0001Z" fill="#34A853"/>
  <path fill-rule="evenodd" clip-rule="evenodd" d="M3.83318 8.3291C3.69318 7.9091 3.61364 7.46047 3.61364 6.9991C3.61364 6.53774 3.69318 6.0891 3.83318 5.6691V3.85547H1.49455C1.02045 4.80047 0.75 5.86956 0.75 6.9991C0.75 8.12865 1.02045 9.19774 1.49455 10.1427L3.83318 8.3291Z" fill="#FBBC05"/>
  <path fill-rule="evenodd" clip-rule="evenodd" d="M7.75008 2.78409C8.77781 2.78409 9.70054 3.13727 10.426 3.83091L12.4337 1.82318C11.2214 0.693636 9.6369 0 7.75008 0C5.01372 0 2.64645 1.56864 1.49463 3.85636L3.83327 5.67C4.38372 4.01545 5.9269 2.78409 7.75008 2.78409Z" fill="#EA4335"/>
</svg>