<svg width="24" height="24" viewBox="0 0 24 24" fill="none" xmlns="http://www.w3.org/2000/svg">
<path d="M17.6838 5.74127C16.9476 4.99771 16.0721 4.40667 15.1072 4.00197C14.1423 3.59727 13.1071 3.38687 12.0607 3.38281H12C9.87825 3.38281 7.84342 4.22566 6.34314 5.72595C4.84285 7.22623 4 9.26106 4 11.3828V15.6905C4 16.1801 4.1945 16.6497 4.54072 16.9959C4.88694 17.3421 5.35652 17.5366 5.84615 17.5366H7.07691C7.56654 17.5366 8.03612 17.3421 8.38234 16.9959C8.72856 16.6497 8.92306 16.1801 8.92306 15.6905V12.6135C8.92306 12.1239 8.72856 11.6543 8.38234 11.3081C8.03612 10.9619 7.56654 10.7674 7.07691 10.7674H5.25846C5.37714 9.48428 5.8591 8.26157 6.64786 7.24257C7.43661 6.22358 8.49949 5.45052 9.7119 5.01401C10.9243 4.5775 12.236 4.49562 13.4933 4.77797C14.7506 5.06031 15.9014 5.69519 16.8107 6.60819C17.9222 7.72534 18.6058 9.19745 18.7423 10.7674H16.923C16.4334 10.7674 15.9638 10.9619 15.6176 11.3081C15.2714 11.6543 15.0769 12.1239 15.0769 12.6135V15.6905C15.0769 16.1801 15.2714 16.6497 15.6176 16.9959C15.9638 17.3421 16.4334 17.5366 16.923 17.5366H18.7692C18.7692 18.0262 18.5747 18.4958 18.2285 18.842C17.8822 19.1882 17.4127 19.3828 16.923 19.3828H12.6154C12.4521 19.3828 12.2956 19.4476 12.1802 19.563C12.0648 19.6784 12 19.8349 12 19.9981C12 20.1613 12.0648 20.3179 12.1802 20.4333C12.2956 20.5487 12.4521 20.6135 12.6154 20.6135H16.923C17.7391 20.6135 18.5217 20.2893 19.0987 19.7123C19.6758 19.1353 19.9999 18.3527 19.9999 17.5366V11.3828C20.0039 10.3363 19.8014 9.29932 19.404 8.33125C19.0065 7.36317 18.422 6.48304 17.6838 5.74127ZM7.07691 11.9982C7.24012 11.9982 7.39665 12.063 7.51205 12.1784C7.62746 12.2938 7.69229 12.4503 7.69229 12.6135V15.6905C7.69229 15.8537 7.62746 16.0102 7.51205 16.1256C7.39665 16.241 7.24012 16.3058 7.07691 16.3058H5.84615C5.68294 16.3058 5.52641 16.241 5.41101 16.1256C5.2956 16.0102 5.23076 15.8537 5.23076 15.6905V11.9982H7.07691ZM16.923 16.3058C16.7598 16.3058 16.6033 16.241 16.4879 16.1256C16.3725 16.0102 16.3076 15.8537 16.3076 15.6905V12.6135C16.3076 12.4503 16.3725 12.2938 16.4879 12.1784C16.6033 12.063 16.7598 11.9982 16.923 11.9982H18.7692V16.3058H16.923Z" fill="#7D7D7D" fill-opacity="0.55"/>
</svg>
