<svg width="32" height="32" viewBox="0 0 32 32" fill="none" xmlns="http://www.w3.org/2000/svg">
<g id="Frame" clip-path="url(#clip0_3058_42042)">
<g id="Vector" filter="url(#filter0_ddd_3058_42042)">
<path d="M30 12.75C30 21.5 17.0262 28.5825 16.4737 28.875C16.3281 28.9533 16.1654 28.9943 16 28.9943C15.8346 28.9943 15.6719 28.9533 15.5262 28.875C14.9738 28.5825 2 21.5 2 12.75C2.00232 10.6953 2.81958 8.72539 4.27248 7.27248C5.72539 5.81958 7.69528 5.00232 9.75 5C12.3313 5 14.5912 6.11 16 7.98625C17.4088 6.11 19.6688 5 22.25 5C24.3047 5.00232 26.2746 5.81958 27.7275 7.27248C29.1804 8.72539 29.9977 10.6953 30 12.75Z" fill="#E30000"/>
</g>
</g>
<defs>
<filter id="filter0_ddd_3058_42042" x="-1" y="2" width="34" height="29.9961" filterUnits="userSpaceOnUse" color-interpolation-filters="sRGB">
<feFlood flood-opacity="0" result="BackgroundImageFix"/>
<feColorMatrix in="SourceAlpha" type="matrix" values="0 0 0 0 0 0 0 0 0 0 0 0 0 0 0 0 0 0 127 0" result="hardAlpha"/>
<feOffset/>
<feGaussianBlur stdDeviation="1.5"/>
<feComposite in2="hardAlpha" operator="out"/>
<feColorMatrix type="matrix" values="0 0 0 0 0.888483 0 0 0 0 0 0 0 0 0 0 0 0 0 1 0"/>
<feBlend mode="normal" in2="BackgroundImageFix" result="effect1_dropShadow_3058_42042"/>
<feColorMatrix in="SourceAlpha" type="matrix" values="0 0 0 0 0 0 0 0 0 0 0 0 0 0 0 0 0 0 127 0" result="hardAlpha"/>
<feOffset/>
<feGaussianBlur stdDeviation="0.9"/>
<feComposite in2="hardAlpha" operator="out"/>
<feColorMatrix type="matrix" values="0 0 0 0 0.888483 0 0 0 0 0 0 0 0 0 0 0 0 0 0.78 0"/>
<feBlend mode="normal" in2="effect1_dropShadow_3058_42042" result="effect2_dropShadow_3058_42042"/>
<feColorMatrix in="SourceAlpha" type="matrix" values="0 0 0 0 0 0 0 0 0 0 0 0 0 0 0 0 0 0 127 0" result="hardAlpha"/>
<feOffset/>
<feGaussianBlur stdDeviation="0.6"/>
<feComposite in2="hardAlpha" operator="out"/>
<feColorMatrix type="matrix" values="0 0 0 0 0.888483 0 0 0 0 0 0 0 0 0 0 0 0 0 0.84 0"/>
<feBlend mode="normal" in2="effect2_dropShadow_3058_42042" result="effect3_dropShadow_3058_42042"/>
<feBlend mode="normal" in="SourceGraphic" in2="effect3_dropShadow_3058_42042" result="shape"/>
</filter>
<clipPath id="clip0_3058_42042">
<rect width="32" height="32" fill="white"/>
</clipPath>
</defs>
</svg>
