<svg width="28" height="24" viewBox="0 0 28 24" fill="none" xmlns="http://www.w3.org/2000/svg">
<path id="Vector" d="M20.25 0.00195312C17.6688 0.00195312 15.4088 1.11195 14 2.9882C12.5912 1.11195 10.3313 0.00195312 7.75 0.00195312C5.69528 0.00426905 3.72539 0.821528 2.27248 2.27443C0.819575 3.72734 0.00231592 5.69724 0 7.75195C0 16.502 12.9738 23.5845 13.5262 23.877C13.6719 23.9553 13.8346 23.9963 14 23.9963C14.1654 23.9963 14.3281 23.9553 14.4737 23.877C15.0262 23.5845 28 16.502 28 7.75195C27.9977 5.69724 27.1804 3.72734 25.7275 2.27443C24.2746 0.821528 22.3047 0.00426905 20.25 0.00195312ZM14 21.852C11.7175 20.522 2 14.4632 2 7.75195C2.00198 6.22757 2.60842 4.76619 3.68633 3.68828C4.76423 2.61038 6.22561 2.00394 7.75 2.00195C10.1812 2.00195 12.2225 3.29695 13.075 5.37695C13.1503 5.56036 13.2785 5.71724 13.4432 5.82764C13.6079 5.93804 13.8017 5.99699 14 5.99699C14.1983 5.99699 14.3921 5.93804 14.5568 5.82764C14.7215 5.71724 14.8497 5.56036 14.925 5.37695C15.7775 3.2932 17.8188 2.00195 20.25 2.00195C21.7744 2.00394 23.2358 2.61038 24.3137 3.68828C25.3916 4.76619 25.998 6.22757 26 7.75195C26 14.4532 16.28 20.5207 14 21.852Z" fill="black" fill-opacity="0.55"/>
</svg>
