<svg width="24" height="24" viewBox="0 0 24 24" fill="none" xmlns="http://www.w3.org/2000/svg">
<path d="M19.4667 17.5989H18.4V12.7989L18.556 12.9549C18.6563 13.0549 18.7922 13.1111 18.9338 13.111C19.0755 13.1108 19.2113 13.0545 19.3113 12.9542C19.4114 12.854 19.4676 12.7181 19.4674 12.5764C19.4673 12.4347 19.4109 12.2989 19.3107 12.1989L12.754 5.6442C12.554 5.44432 12.2828 5.33203 12 5.33203C11.7172 5.33203 11.446 5.44432 11.246 5.6442L4.68933 12.1989C4.58935 12.2989 4.53321 12.4346 4.53327 12.5761C4.53334 12.7176 4.58959 12.8532 4.68967 12.9532C4.78974 13.0532 4.92544 13.1093 5.0669 13.1093C5.20837 13.1092 5.34401 13.0529 5.444 12.9529L5.6 12.7989V17.5989H4.53333C4.39188 17.5989 4.25623 17.6551 4.15621 17.7551C4.05619 17.8551 4 17.9908 4 18.1322C4 18.2737 4.05619 18.4093 4.15621 18.5093C4.25623 18.6093 4.39188 18.6655 4.53333 18.6655H19.4667C19.6081 18.6655 19.7438 18.6093 19.8438 18.5093C19.9438 18.4093 20 18.2737 20 18.1322C20 17.9908 19.9438 17.8551 19.8438 17.7551C19.7438 17.6551 19.6081 17.5989 19.4667 17.5989ZM6.66667 11.7322L12 6.39887L17.3333 11.7322V17.5989H14.1333V13.8655C14.1333 13.7241 14.0771 13.5884 13.9771 13.4884C13.8771 13.3884 13.7414 13.3322 13.6 13.3322H10.4C10.2586 13.3322 10.1229 13.3884 10.0229 13.4884C9.92286 13.5884 9.86667 13.7241 9.86667 13.8655V17.5989H6.66667V11.7322ZM13.0667 17.5989H10.9333V14.3989H13.0667V17.5989Z" fill="#7D7D7D" fill-opacity="0.55"/>
</svg>
