<svg width="16" height="17" viewBox="0 0 16 17" fill="none" xmlns="http://www.w3.org/2000/svg">
<g id="Close icon">
<path id="Vector" d="M8 0.5C6.41775 0.5 4.87103 0.969192 3.55544 1.84824C2.23985 2.72729 1.21447 3.97672 0.608967 5.43853C0.00346628 6.90034 -0.15496 8.50887 0.153721 10.0607C0.462403 11.6126 1.22433 13.038 2.34315 14.1569C3.46197 15.2757 4.88743 16.0376 6.43928 16.3463C7.99113 16.655 9.59966 16.4965 11.0615 15.891C12.5233 15.2855 13.7727 14.2602 14.6518 12.9446C15.5308 11.629 16 10.0822 16 8.5C15.9978 6.37895 15.1542 4.34542 13.6544 2.84562C12.1546 1.34581 10.121 0.50224 8 0.5ZM10.8969 10.5262C10.9541 10.5833 10.9995 10.6512 11.0304 10.7259C11.0613 10.8006 11.0773 10.8807 11.0773 10.9615C11.0773 11.0424 11.0613 11.1225 11.0304 11.1972C10.9995 11.2719 10.9541 11.3397 10.8969 11.3969C10.8397 11.4541 10.7719 11.4994 10.6972 11.5304C10.6225 11.5613 10.5424 11.5773 10.4615 11.5773C10.3807 11.5773 10.3006 11.5613 10.2259 11.5304C10.1512 11.4994 10.0833 11.4541 10.0262 11.3969L8 9.37L5.97385 11.3969C5.91667 11.4541 5.8488 11.4994 5.77409 11.5304C5.69939 11.5613 5.61932 11.5773 5.53846 11.5773C5.45761 11.5773 5.37754 11.5613 5.30284 11.5304C5.22813 11.4994 5.16025 11.4541 5.10308 11.3969C5.0459 11.3397 5.00055 11.2719 4.96961 11.1972C4.93866 11.1225 4.92274 11.0424 4.92274 10.9615C4.92274 10.8807 4.93866 10.8006 4.96961 10.7259C5.00055 10.6512 5.0459 10.5833 5.10308 10.5262L7.13 8.5L5.10308 6.47384C4.98761 6.35837 4.92274 6.20176 4.92274 6.03846C4.92274 5.87516 4.98761 5.71855 5.10308 5.60308C5.21855 5.4876 5.37516 5.42273 5.53846 5.42273C5.70176 5.42273 5.85838 5.4876 5.97385 5.60308L8 7.63L10.0262 5.60308C10.0833 5.5459 10.1512 5.50055 10.2259 5.4696C10.3006 5.43866 10.3807 5.42273 10.4615 5.42273C10.5424 5.42273 10.6225 5.43866 10.6972 5.4696C10.7719 5.50055 10.8397 5.5459 10.8969 5.60308C10.9541 5.66025 10.9995 5.72813 11.0304 5.80283C11.0613 5.87754 11.0773 5.9576 11.0773 6.03846C11.0773 6.11932 11.0613 6.19939 11.0304 6.27409C10.9995 6.34879 10.9541 6.41667 10.8969 6.47384L8.87 8.5L10.8969 10.5262Z" fill="black"/>
</g>
</svg>
