<svg width="28" height="34" viewBox="0 0 28 34" fill="none" xmlns="http://www.w3.org/2000/svg">
<path d="M23.4102 17.6079C23.3953 14.8778 24.6302 12.8172 27.1297 11.2997C25.7311 9.29862 23.6185 8.19766 20.8289 7.98193C18.1881 7.77364 15.3018 9.52178 14.2455 9.52178C13.1297 9.52178 10.5707 8.05632 8.56217 8.05632C4.41126 8.12327 0 11.3666 0 17.9649C0 19.9139 0.357067 21.9274 1.0712 24.0053C2.02338 26.7354 5.46015 33.4304 9.0457 33.3188C10.9203 33.2742 12.2444 31.9872 14.6844 31.9872C17.0499 31.9872 18.2774 33.3188 20.3677 33.3188C23.983 33.2667 27.0925 27.1817 28 24.4442C23.1498 22.1605 23.4102 17.7492 23.4102 17.6079ZM19.1998 5.3932C21.2306 2.983 21.0446 0.788523 20.9851 0C19.1924 0.104145 17.1169 1.21998 15.9341 2.59617C14.6323 4.06908 13.8661 5.8916 14.0298 7.94474C15.9713 8.09352 17.7418 7.0967 19.1998 5.3932Z" fill="black"/>
</svg>
