<svg xmlns="http://www.w3.org/2000/svg" width="12" height="12" viewBox="0 0 12 12" fill="none">
  <path d="M6 0.000976562C4.81331 0.000976563 3.65328 0.35287 2.66658 1.01216C1.67989 1.67145 0.910851 2.60852 0.456725 3.70487C0.00259971 4.80123 -0.11622 6.00763 0.115291 7.17152C0.346802 8.3354 0.918247 9.4045 1.75736 10.2436C2.59648 11.0827 3.66557 11.6542 4.82946 11.8857C5.99335 12.1172 7.19975 11.9984 8.2961 11.5443C9.39246 11.0901 10.3295 10.3211 10.9888 9.3344C11.6481 8.3477 12 7.18766 12 6.00098C11.9983 4.41019 11.3656 2.88505 10.2408 1.76019C9.11593 0.635337 7.59078 0.00265646 6 0.000976562ZM5.76923 2.77021C5.90616 2.77021 6.04001 2.81081 6.15386 2.88688C6.26771 2.96295 6.35644 3.07108 6.40884 3.19758C6.46124 3.32408 6.47495 3.46328 6.44824 3.59758C6.42152 3.73187 6.35559 3.85523 6.25877 3.95205C6.16195 4.04887 6.03859 4.11481 5.90429 4.14152C5.77 4.16823 5.6308 4.15452 5.5043 4.10212C5.3778 4.04972 5.26967 3.96099 5.1936 3.84714C5.11753 3.73329 5.07692 3.59944 5.07692 3.46251C5.07692 3.2789 5.14986 3.10281 5.2797 2.97298C5.40953 2.84315 5.58562 2.77021 5.76923 2.77021ZM6.46154 9.23174C6.21672 9.23174 5.98194 9.13449 5.80883 8.96138C5.63572 8.78827 5.53846 8.55348 5.53846 8.30867V6.00098C5.41606 6.00098 5.29866 5.95235 5.21211 5.86579C5.12555 5.77924 5.07692 5.66184 5.07692 5.53944C5.07692 5.41703 5.12555 5.29964 5.21211 5.21308C5.29866 5.12652 5.41606 5.0779 5.53846 5.0779C5.78328 5.0779 6.01807 5.17515 6.19118 5.34826C6.36429 5.52137 6.46154 5.75616 6.46154 6.00098V8.30867C6.58395 8.30867 6.70134 8.35729 6.7879 8.44385C6.87445 8.5304 6.92308 8.6478 6.92308 8.77021C6.92308 8.89261 6.87445 9.01001 6.7879 9.09656C6.70134 9.18312 6.58395 9.23174 6.46154 9.23174Z" fill="#DE1135"/>
</svg>