<svg xmlns="http://www.w3.org/2000/svg" width="27" height="26" viewBox="0 0 27 26" fill="none">
  <path d="M13.5 0.000976562C10.9288 0.000976563 8.41543 0.763413 6.27759 2.19187C4.13975 3.62033 2.47351 5.65065 1.48957 8.02609C0.505633 10.4015 0.248189 13.0154 0.749797 15.5372C1.25141 18.0589 2.48953 20.3753 4.30762 22.1934C6.1257 24.0114 8.44208 25.2496 10.9638 25.7512C13.4856 26.2528 16.0995 25.9953 18.4749 25.0114C20.8503 24.0275 22.8807 22.3612 24.3091 20.2234C25.7376 18.0856 26.5 15.5721 26.5 13.001C26.4964 9.55428 25.1256 6.24979 22.6884 3.81261C20.2512 1.37542 16.9467 0.00461634 13.5 0.000976562ZM13.5 24.001C11.3244 24.001 9.19767 23.3558 7.38873 22.1471C5.57979 20.9384 4.16989 19.2205 3.33733 17.2105C2.50477 15.2005 2.28693 12.9888 2.71137 10.855C3.13581 8.72119 4.18345 6.76118 5.72183 5.2228C7.26021 3.68442 9.22022 2.63678 11.354 2.21234C13.4878 1.7879 15.6995 2.00574 17.7095 2.8383C19.7195 3.67087 21.4375 5.08076 22.6462 6.8897C23.8549 8.69864 24.5 10.8254 24.5 13.001C24.4967 15.9173 23.3367 18.7133 21.2745 20.7755C19.2123 22.8377 16.4164 23.9977 13.5 24.001ZM15.5 19.001C15.5 19.2662 15.3946 19.5205 15.2071 19.7081C15.0196 19.8956 14.7652 20.001 14.5 20.001C13.9696 20.001 13.4609 19.7903 13.0858 19.4152C12.7107 19.0401 12.5 18.5314 12.5 18.001V13.001C12.2348 13.001 11.9804 12.8956 11.7929 12.7081C11.6054 12.5205 11.5 12.2662 11.5 12.001C11.5 11.7358 11.6054 11.4814 11.7929 11.2939C11.9804 11.1063 12.2348 11.001 12.5 11.001C13.0304 11.001 13.5391 11.2117 13.9142 11.5868C14.2893 11.9618 14.5 12.4705 14.5 13.001V18.001C14.7652 18.001 15.0196 18.1063 15.2071 18.2939C15.3946 18.4814 15.5 18.7358 15.5 19.001ZM11.5 7.50098C11.5 7.2043 11.588 6.9143 11.7528 6.66762C11.9176 6.42095 12.1519 6.22869 12.426 6.11516C12.7001 6.00163 13.0017 5.97192 13.2926 6.0298C13.5836 6.08768 13.8509 6.23054 14.0607 6.44032C14.2704 6.65009 14.4133 6.91737 14.4712 7.20834C14.5291 7.49931 14.4994 7.80091 14.3858 8.075C14.2723 8.34909 14.08 8.58336 13.8334 8.74818C13.5867 8.913 13.2967 9.00098 13 9.00098C12.6022 9.00098 12.2206 8.84294 11.9393 8.56164C11.658 8.28033 11.5 7.8988 11.5 7.50098Z" fill="black"/>
</svg>