<svg width="47" height="46" viewBox="0 0 47 46" fill="none" xmlns="http://www.w3.org/2000/svg">
<path d="M23.5 10C20.9288 10 18.4154 10.7624 16.2776 12.1909C14.1398 13.6194 12.4735 15.6497 11.4896 18.0251C10.5056 20.4006 10.2482 23.0144 10.7498 25.5362C11.2514 28.0579 12.4895 30.3743 14.3076 32.1924C16.1257 34.0105 18.4421 35.2486 20.9638 35.7502C23.4856 36.2518 26.0995 35.9944 28.4749 35.0104C30.8503 34.0265 32.8807 32.3603 34.3091 30.2224C35.7376 28.0846 36.5 25.5712 36.5 23C36.4964 19.5533 35.1256 16.2488 32.6884 13.8116C30.2512 11.3744 26.9467 10.0036 23.5 10ZM23.5 34C21.3244 34 19.1977 33.3549 17.3887 32.1462C15.5798 30.9375 14.1699 29.2195 13.3373 27.2095C12.5048 25.1995 12.2869 22.9878 12.7114 20.854C13.1358 18.7202 14.1835 16.7602 15.7218 15.2218C17.2602 13.6834 19.2202 12.6358 21.354 12.2114C23.4878 11.7869 25.6995 12.0048 27.7095 12.8373C29.7195 13.6699 31.4375 15.0798 32.6462 16.8887C33.8549 18.6977 34.5 20.8244 34.5 23C34.4967 25.9164 33.3367 28.7123 31.2745 30.7745C29.2123 32.8367 26.4164 33.9967 23.5 34ZM25.5 29C25.5 29.2652 25.3946 29.5196 25.2071 29.7071C25.0196 29.8946 24.7652 30 24.5 30C23.9696 30 23.4609 29.7893 23.0858 29.4142C22.7107 29.0391 22.5 28.5304 22.5 28V23C22.2348 23 21.9804 22.8946 21.7929 22.7071C21.6054 22.5196 21.5 22.2652 21.5 22C21.5 21.7348 21.6054 21.4804 21.7929 21.2929C21.9804 21.1054 22.2348 21 22.5 21C23.0304 21 23.5391 21.2107 23.9142 21.5858C24.2893 21.9609 24.5 22.4696 24.5 23V28C24.7652 28 25.0196 28.1054 25.2071 28.2929C25.3946 28.4804 25.5 28.7348 25.5 29ZM21.5 17.5C21.5 17.2033 21.588 16.9133 21.7528 16.6666C21.9176 16.42 22.1519 16.2277 22.426 16.1142C22.7001 16.0006 23.0017 15.9709 23.2926 16.0288C23.5836 16.0867 23.8509 16.2296 24.0607 16.4393C24.2704 16.6491 24.4133 16.9164 24.4712 17.2074C24.5291 17.4983 24.4994 17.7999 24.3858 18.074C24.2723 18.3481 24.08 18.5824 23.8334 18.7472C23.5867 18.912 23.2967 19 23 19C22.6022 19 22.2206 18.842 21.9393 18.5607C21.658 18.2794 21.5 17.8978 21.5 17.5Z" fill="black"/>
</svg>
