<svg width="40" height="40" viewBox="0 0 40 40" fill="none" xmlns="http://www.w3.org/2000/svg">
<path d="M20 3C16.6377 3 13.3509 3.99703 10.5553 5.86502C7.75968 7.733 5.58074 10.388 4.29406 13.4944C3.00737 16.6007 2.67071 20.0189 3.32666 23.3165C3.98261 26.6142 5.6017 29.6433 7.97919 32.0208C10.3567 34.3983 13.3858 36.0174 16.6835 36.6733C19.9811 37.3293 23.3993 36.9926 26.5056 35.7059C29.612 34.4193 32.267 32.2403 34.135 29.4447C36.003 26.6491 37 23.3623 37 20C36.9952 15.4928 35.2026 11.1715 32.0156 7.98444C28.8285 4.79735 24.5072 3.00476 20 3ZM19.3462 10.8462C19.7341 10.8462 20.1134 10.9612 20.4359 11.1767C20.7585 11.3923 21.0099 11.6986 21.1584 12.057C21.3068 12.4155 21.3457 12.8099 21.27 13.1904C21.1943 13.5709 21.0075 13.9204 20.7332 14.1947C20.4588 14.469 20.1093 14.6559 19.7288 14.7315C19.3483 14.8072 18.9539 14.7684 18.5955 14.6199C18.2371 14.4715 17.9307 14.22 17.7152 13.8975C17.4997 13.5749 17.3846 13.1956 17.3846 12.8077C17.3846 12.2875 17.5913 11.7885 17.9591 11.4207C18.327 11.0528 18.8259 10.8462 19.3462 10.8462ZM21.3077 29.1538C20.6141 29.1538 19.9488 28.8783 19.4583 28.3878C18.9679 27.8973 18.6923 27.2321 18.6923 26.5385V20C18.3455 20 18.0129 19.8622 17.7676 19.617C17.5224 19.3717 17.3846 19.0391 17.3846 18.6923C17.3846 18.3455 17.5224 18.0129 17.7676 17.7676C18.0129 17.5224 18.3455 17.3846 18.6923 17.3846C19.386 17.3846 20.0512 17.6602 20.5417 18.1506C21.0321 18.6411 21.3077 19.3064 21.3077 20V26.5385C21.6545 26.5385 21.9871 26.6762 22.2324 26.9215C22.4776 27.1667 22.6154 27.4993 22.6154 27.8461C22.6154 28.193 22.4776 28.5256 22.2324 28.7708C21.9871 29.0161 21.6545 29.1538 21.3077 29.1538Z" fill="#276EF1"/>
</svg>
