<svg width="24" height="20" viewBox="0 0 24 20" fill="none" xmlns="http://www.w3.org/2000/svg">
<path id="Vector" d="M23.7107 3.26846C22.9457 1.94947 20.9268 1.65248 17.8608 2.40247C16.4414 1.30492 14.7426 0.627466 12.9574 0.447057C11.1722 0.266648 9.37222 0.59052 7.7619 1.38188C6.15158 2.17324 4.79547 3.40037 3.84765 4.92386C2.89982 6.44735 2.39826 8.20612 2.39995 10.0004C2.40008 10.4119 2.42613 10.8231 2.47795 11.2314C-0.291018 14.1003 -0.251018 15.8003 0.289976 16.7323C0.799971 17.6163 1.86396 18.0003 3.26394 18.0003C4.23596 17.9802 5.20224 17.8459 6.14291 17.6003C7.56251 18.6968 9.2611 19.3733 11.0458 19.553C12.8305 19.7327 14.6299 19.4084 16.2396 18.6169C17.8493 17.8255 19.2048 16.5985 20.1523 15.0754C21.0998 13.5524 21.6012 11.7941 21.5997 10.0004C21.5999 9.59084 21.5742 9.1817 21.5227 8.7754C22.7727 7.47542 23.6047 6.24043 23.8877 5.18344C24.0827 4.45145 24.0237 3.80746 23.7107 3.26846ZM11.9999 2.00047C13.8118 2.00234 15.5696 2.6184 16.9862 3.74809C18.4028 4.87777 19.3947 6.45434 19.7998 8.22041C18.0938 9.82639 15.7848 11.4734 13.5928 12.7334C10.8379 14.3143 8.44789 15.3003 6.54191 15.8403C5.368 14.7455 4.5509 13.3225 4.197 11.7568C3.84309 10.191 3.96878 8.555 4.55769 7.06169C5.1466 5.56837 6.17145 4.28694 7.49883 3.38423C8.8262 2.48152 10.3946 1.99934 11.9999 2.00047ZM1.67396 15.9293C1.52796 15.6783 1.60896 15.2053 1.89596 14.6293C2.17976 14.0897 2.52506 13.5847 2.92495 13.1244C3.32134 14.2728 3.93215 15.3356 4.72493 16.2563C2.99995 16.5463 1.92396 16.3613 1.67396 15.9293ZM11.9999 18.0003C10.651 18.0017 9.32399 17.6596 8.14389 17.0063C10.31 16.2402 12.4 15.2741 14.3868 14.1203C16.5448 12.8814 18.4548 11.5384 19.9938 10.2124C19.9368 12.2955 19.0699 14.2744 17.5772 15.7286C16.0846 17.1827 14.0838 17.9977 11.9999 18.0003ZM22.3417 4.76944C22.1717 5.40044 21.7227 6.12243 21.0788 6.88242C20.6834 5.73256 20.0725 4.66859 19.2788 3.74746C20.6998 3.51246 22.0157 3.53046 22.3287 4.07145C22.4187 4.22845 22.4237 4.46345 22.3417 4.76944Z" fill="white"/>
</svg>
