<svg width="16" height="16" viewBox="0 0 16 16" fill="none" xmlns="http://www.w3.org/2000/svg">
<path id="Vector" d="M15.9093 14.7583C14.7389 12.7348 12.9352 11.2839 10.8303 10.5961C11.8715 9.97632 12.6804 9.03187 13.1329 7.90781C13.5854 6.78375 13.6563 5.54225 13.3349 4.37396C13.0135 3.20567 12.3174 2.17519 11.3537 1.44077C10.3899 0.706346 9.2117 0.308594 8 0.308594C6.7883 0.308594 5.6101 0.706346 4.64633 1.44077C3.68257 2.17519 2.98653 3.20567 2.6651 4.37396C2.34368 5.54225 2.41464 6.78375 2.8671 7.90781C3.31955 9.03187 4.12848 9.97632 5.16965 10.5961C3.06476 11.2832 1.26112 12.7341 0.0907097 14.7583C0.0477887 14.8283 0.0193195 14.9061 0.00698187 14.9873C-0.00535579 15.0685 -0.00131202 15.1513 0.0188746 15.2309C0.0390612 15.3104 0.0749818 15.3852 0.124517 15.4506C0.174052 15.5161 0.236198 15.571 0.307289 15.6121C0.37838 15.6531 0.456975 15.6795 0.538437 15.6897C0.6199 15.6999 0.702579 15.6937 0.781598 15.6714C0.860616 15.6491 0.934373 15.6113 0.998516 15.56C1.06266 15.5088 1.11589 15.4452 1.15507 15.3731C2.6029 12.8709 5.16197 11.3769 8 11.3769C10.838 11.3769 13.3971 12.8709 14.8449 15.3731C14.8841 15.4452 14.9373 15.5088 15.0015 15.56C15.0656 15.6113 15.1394 15.6491 15.2184 15.6714C15.2974 15.6937 15.3801 15.6999 15.4616 15.6897C15.543 15.6795 15.6216 15.6531 15.6927 15.6121C15.7638 15.571 15.8259 15.5161 15.8755 15.4506C15.925 15.3852 15.9609 15.3104 15.9811 15.2309C16.0013 15.1513 16.0054 15.0685 15.993 14.9873C15.9807 14.9061 15.9522 14.8283 15.9093 14.7583ZM3.69646 5.84381C3.69646 4.99265 3.94886 4.1606 4.42174 3.45289C4.89462 2.74517 5.56674 2.19358 6.35311 1.86785C7.13948 1.54213 8.00477 1.45691 8.83958 1.62296C9.67438 1.78901 10.4412 2.19888 11.0431 2.80074C11.6449 3.40261 12.0548 4.16942 12.2208 5.00423C12.3869 5.83903 12.3017 6.70433 11.976 7.4907C11.6502 8.27707 11.0986 8.94919 10.3909 9.42207C9.68321 9.89495 8.85116 10.1473 8 10.1473C6.85901 10.1461 5.76509 9.69233 4.95829 8.88552C4.15148 8.07872 3.69768 6.9848 3.69646 5.84381Z" fill="#2e2e2e"/>
</svg>
