<svg width="39" height="32" viewBox="0 0 39 32" fill="none" xmlns="http://www.w3.org/2000/svg">
<path id="Vector" d="M37.8121 9.64011L22.5013 0.801505C20.6497 -0.267514 18.3498 -0.267514 16.4982 0.801505L0.819927 9.85392C0.313441 10.1445 0 10.6905 0 11.2737V18.2649C0 20.3988 1.1479 22.3895 2.99533 23.4606L16.3487 31.1949C17.2766 31.7325 18.3186 32.0003 19.3586 32.0003C20.3985 32.0003 21.4344 31.7325 22.3601 31.199L38.6508 21.7937V11.0931C38.6508 10.4953 38.329 9.93902 37.8121 9.64011ZM19.9481 1.26648C20.6186 1.32875 21.2787 1.53425 21.8786 1.8809L36.7888 10.487L28.6705 15.2343L19.9481 10.1279V1.26648ZM27.4354 15.9546L21.7769 19.2634C20.3155 20.1165 18.4951 20.129 17.0234 19.2924L10.9331 15.83L19.315 11.2011L27.4354 15.9546ZM17.1209 1.8809C17.617 1.59445 18.1526 1.40555 18.7026 1.31214V10.1175L9.66476 15.1098L1.87649 10.6821L17.1209 1.8809ZM37.4053 21.0734L21.7374 30.1196C20.2678 30.9686 18.4432 30.9665 16.9735 30.1155L3.61806 22.3812C2.15464 21.5342 1.24546 19.9567 1.24546 18.2649V11.7574L16.4089 20.376C17.3243 20.897 18.3498 21.1565 19.3752 21.1565C20.4006 21.1565 21.4717 20.8845 22.4037 20.3386L37.4053 11.5706V21.0734Z" fill="#3F5372"/>
</svg>
