<svg
      width="206"
      height="64"
      viewBox="0 0 206 64"
      fill="none"
      xmlns="http://www.w3.org/2000/svg"
    >
      <g clip-path="url(#clip0_975_25937)">
        <path
          d="M75.6243 19.2807L45.0026 1.60353C41.2994 -0.53451 36.6995 -0.53451 32.9964 1.60353L1.63985 19.7084C0.626881 20.2896 0 21.3814 0 22.548V36.5304C0 40.7981 2.2958 44.7794 5.99066 46.9216L32.6975 62.3902C34.5532 63.4655 36.6373 64.001 38.7172 64.001C40.7971 64.001 42.8687 63.4655 44.7203 62.3985L77.3015 43.588V22.1868C77.3015 20.9912 76.658 19.8786 75.6243 19.2807ZM39.8962 2.53347C41.2372 2.65802 42.5573 3.06902 43.7571 3.76233L73.5776 20.9746L57.3409 30.4691L39.8962 20.2564V2.53347ZM54.8708 31.9097L43.5537 38.5272C40.631 40.2335 36.9901 40.2584 34.0467 38.5854L21.8661 31.6606L38.63 22.4027L54.8708 31.9097ZM34.2418 3.76233C35.234 3.18941 36.3051 2.81162 37.4053 2.62481V20.2356L19.3295 30.22L3.75298 21.3648L34.2418 3.76233ZM74.8106 42.1474L43.4748 60.2397C40.5355 61.9377 36.8863 61.9336 33.9471 60.2314L7.23612 44.7628C4.30929 43.069 2.49092 39.9139 2.49092 36.5304V23.5153L32.8179 40.7525C34.6487 41.7945 36.6995 42.3134 38.7504 42.3134C40.8012 42.3134 42.9434 41.7696 44.8075 40.6777L74.8106 23.1417V42.1474Z"
          fill="#3F5372"
        />
        <path
          d="M119.713 9.75439C124.587 9.75439 128.722 11.3943 132.11 14.674C135.497 17.9537 137.195 21.9516 137.195 26.6677C137.195 31.3839 135.502 35.361 132.11 38.6407C128.722 41.9205 124.587 43.5603 119.713 43.5603C114.839 43.5603 110.738 41.9205 107.362 38.6407C103.987 35.361 102.302 31.3714 102.302 26.6677C102.302 21.964 103.987 17.9495 107.362 14.674C110.738 11.3943 114.852 9.75439 119.713 9.75439ZM119.809 41.1981C123.915 41.1981 127.377 39.7949 130.2 36.9884C133.023 34.182 134.435 30.7404 134.435 26.6677C134.435 22.5951 133.023 19.1286 130.2 16.3221C127.377 13.5157 123.915 12.1125 119.809 12.1125C115.703 12.1125 112.199 13.5157 109.347 16.3221C106.491 19.1286 105.067 22.5785 105.067 26.6677C105.067 30.757 106.495 34.182 109.347 36.9884C112.203 39.7949 115.69 41.1981 119.809 41.1981Z"
          fill="#3F5372"
        />
        <path
          d="M144.93 21.4327V25.2065H145.025C146.835 22.4083 149.218 21.0093 152.174 21.0093C154.628 21.0093 156.587 21.7939 158.048 23.3673C159.51 24.9408 160.24 27.1203 160.24 29.9019V43.1369H157.928V30.7778C157.928 25.7752 155.96 23.276 152.029 23.276C149.152 23.276 146.785 24.8245 144.93 27.9216V43.1369H142.617V21.4327H144.93Z"
          fill="#3F5372"
        />
        <path
          d="M183.029 21.4326L166.784 54.2463H164.413L172.002 38.9189L162.856 21.4326H165.285L173.156 36.5857L180.658 21.4326H183.025H183.029Z"
          fill="#3F5372"
        />
        <path
          d="M194.519 33.6052L185.988 43.1329H183.003L192.929 32.0193L183.003 21.4287H185.988L194.519 30.4375L203.017 21.4287H206.002L196.043 32.0193L206.002 43.1329H203.017L194.519 33.6052Z"
          fill="#3F5372"
        />
      </g>
      <defs>
        <clipPath id="clip0_975_25937">
          <rect width="206.003" height="64.001" fill="white" />
        </clipPath>
      </defs>
    </svg>