<svg width="54" height="30" viewBox="0 0 54 30" fill="none" xmlns="http://www.w3.org/2000/svg">
<g id="mastercard">
<path id="Left" fill-rule="evenodd" clip-rule="evenodd" d="M27.0009 26.4167C24.199 28.6511 20.5644 30 16.5927 30C7.73086 30 0.546875 23.2843 0.546875 15C0.546875 6.71573 7.73086 0 16.5927 0C20.5644 0 24.199 1.34888 27.0009 3.58332C29.8029 1.34888 33.4375 0 37.4091 0C46.271 0 53.4549 6.71573 53.4549 15C53.4549 23.2843 46.271 30 37.4091 30C33.4375 30 29.8029 28.6511 27.0009 26.4167Z" fill="#ED0006"/>
<path id="Right" fill-rule="evenodd" clip-rule="evenodd" d="M27 26.4167C30.4501 23.6654 32.6377 19.5715 32.6377 15C32.6377 10.4285 30.4501 6.33457 27 3.5833C29.8019 1.34887 33.4365 0 37.4081 0C46.27 0 53.454 6.71573 53.454 15C53.454 23.2843 46.27 30 37.4081 30C33.4365 30 29.8019 28.6511 27 26.4167Z" fill="#F9A000"/>
<path id="Middle" fill-rule="evenodd" clip-rule="evenodd" d="M27.001 26.4173C30.451 23.666 32.6386 19.5722 32.6386 15.0006C32.6386 10.4291 30.451 6.33526 27.001 3.58398C23.5509 6.33526 21.3633 10.4291 21.3633 15.0006C21.3633 19.5722 23.5509 23.666 27.001 26.4173Z" fill="#FF5E00"/>
</g>
</svg>
