<svg width="54" height="48" viewBox="0 0 54 48" fill="none" xmlns="http://www.w3.org/2000/svg">
<path fill-rule="evenodd" clip-rule="evenodd" d="M27.0009 35.4167C24.199 37.6511 20.5644 39 16.5927 39C7.73086 39 0.546875 32.2843 0.546875 24C0.546875 15.7157 7.73086 9 16.5927 9C20.5644 9 24.199 10.3489 27.0009 12.5833C29.8029 10.3489 33.4375 9 37.4091 9C46.271 9 53.4549 15.7157 53.4549 24C53.4549 32.2843 46.271 39 37.4091 39C33.4375 39 29.8029 37.6511 27.0009 35.4167Z" fill="#ED0006"/>
<path fill-rule="evenodd" clip-rule="evenodd" d="M27 35.4167C30.4501 32.6654 32.6377 28.5715 32.6377 24C32.6377 19.4285 30.4501 15.3346 27 12.5833C29.8019 10.3489 33.4365 9 37.4081 9C46.27 9 53.454 15.7157 53.454 24C53.454 32.2843 46.27 39 37.4081 39C33.4365 39 29.8019 37.6511 27 35.4167Z" fill="#F9A000"/>
<path fill-rule="evenodd" clip-rule="evenodd" d="M27.001 35.4153C30.451 32.6641 32.6386 28.5702 32.6386 23.9987C32.6386 19.4272 30.451 15.3333 27.001 12.582C23.5509 15.3333 21.3633 19.4272 21.3633 23.9987C21.3633 28.5702 23.5509 32.6641 27.001 35.4153Z" fill="#FF5E00"/>
</svg>
