<svg width="24" height="24" viewBox="0 0 24 24" fill="none" xmlns="http://www.w3.org/2000/svg">
<path d="M19.36 7.24292L12.5908 3.53908C12.4099 3.43914 12.2066 3.38672 12 3.38672C11.7934 3.38672 11.5901 3.43914 11.4092 3.53908L4.64 7.24446C4.44668 7.35023 4.28531 7.50597 4.17273 7.6954C4.06015 7.88484 4.0005 8.10102 4 8.32138V15.6783C4.0005 15.8987 4.06015 16.1149 4.17273 16.3043C4.28531 16.4937 4.44668 16.6495 4.64 16.7552L11.4092 20.4606C11.5901 20.5606 11.7934 20.613 12 20.613C12.2066 20.613 12.4099 20.5606 12.5908 20.4606L19.36 16.7552C19.5533 16.6495 19.7147 16.4937 19.8273 16.3043C19.9398 16.1149 19.9995 15.8987 20 15.6783V8.32215C19.9999 8.1014 19.9405 7.88473 19.8279 7.69486C19.7153 7.50498 19.5537 7.34888 19.36 7.24292ZM12 4.616L18.18 8.00061L15.89 9.25446L9.70923 5.86985L12 4.616ZM12 11.3852L5.82 8.00061L8.42769 6.57292L14.6077 9.95754L12 11.3852ZM5.23077 9.07754L11.3846 12.4452V19.0445L5.23077 15.6791V9.07754ZM18.7692 15.676L12.6154 19.0445V12.4483L15.0769 11.1014V13.8468C15.0769 14.01 15.1418 14.1665 15.2572 14.2819C15.3726 14.3973 15.5291 14.4622 15.6923 14.4622C15.8555 14.4622 16.012 14.3973 16.1275 14.2819C16.2429 14.1665 16.3077 14.01 16.3077 13.8468V10.4275L18.7692 9.07754V15.6752V15.676Z" fill="#7D7D7D" fill-opacity="0.55"/>
</svg>
