<svg width="16" height="20" viewBox="0 0 16 20" fill="none" xmlns="http://www.w3.org/2000/svg">
<path id="Vector" d="M8 4.28576C7.29363 4.28576 6.60312 4.49522 6.0158 4.88766C5.42847 5.2801 4.97071 5.83788 4.70039 6.49048C4.43008 7.14308 4.35935 7.86118 4.49716 8.55398C4.63496 9.24678 4.97511 9.88315 5.47459 10.3826C5.97407 10.8821 6.61044 11.2223 7.30324 11.3601C7.99604 11.4979 8.71414 11.4271 9.36674 11.1568C10.0193 10.8865 10.5771 10.4287 10.9696 9.84142C11.362 9.2541 11.5715 8.56359 11.5715 7.85722C11.5715 6.91001 11.1952 6.00159 10.5254 5.33182C9.85562 4.66204 8.94721 4.28576 8 4.28576ZM8 10.0001C7.57618 10.0001 7.16187 9.87442 6.80948 9.63896C6.45708 9.4035 6.18242 9.06883 6.02024 8.67727C5.85805 8.28571 5.81561 7.85484 5.89829 7.43917C5.98098 7.02349 6.18507 6.64166 6.48475 6.34198C6.78444 6.04229 7.16626 5.8382 7.58194 5.75552C7.99762 5.67283 8.42848 5.71527 8.82004 5.87746C9.2116 6.03965 9.54627 6.31431 9.78174 6.6667C10.0172 7.0191 10.1429 7.4334 10.1429 7.85722C10.1429 8.42555 9.91711 8.9706 9.51524 9.37247C9.11337 9.77433 8.56832 10.0001 8 10.0001ZM8 0C5.91686 0.00236318 3.91972 0.830934 2.44671 2.30394C0.97371 3.77694 0.14514 5.77408 0.142776 7.85722C0.142776 10.6608 1.43833 13.6323 3.89281 16.4511C4.9957 17.7248 6.23699 18.8717 7.59374 19.8707C7.71384 19.9549 7.85693 20 8.00357 20C8.15021 20 8.29329 19.9549 8.41339 19.8707C9.76765 18.8713 11.0065 17.7244 12.1072 16.4511C14.5581 13.6323 15.8572 10.6608 15.8572 7.85722C15.8549 5.77408 15.0263 3.77694 13.5533 2.30394C12.0803 0.830934 10.0831 0.00236318 8 0ZM8 18.393C6.52409 17.2323 1.57136 12.9689 1.57136 7.85722C1.57136 6.15224 2.24866 4.51709 3.45427 3.31149C4.65987 2.10589 6.29502 1.42859 8 1.42859C9.70498 1.42859 11.3401 2.10589 12.5457 3.31149C13.7513 4.51709 14.4286 6.15224 14.4286 7.85722C14.4286 12.9671 9.4759 17.2323 8 18.393Z" fill="white"/>
</svg>
