<svg width="24" height="24" viewBox="0 0 24 24" fill="none" xmlns="http://www.w3.org/2000/svg">
<path d="M10.6664 19.3328C10.6664 19.5096 10.5962 19.6792 10.4712 19.8042C10.3462 19.9292 10.1766 19.9995 9.9998 19.9995H4.66664C4.48984 19.9995 4.32028 19.9292 4.19526 19.8042C4.07024 19.6792 4 19.5096 4 19.3328V4.66664C4 4.48984 4.07024 4.32028 4.19526 4.19526C4.32028 4.07024 4.48984 4 4.66664 4H9.9998C10.1766 4 10.3462 4.07024 10.4712 4.19526C10.5962 4.32028 10.6664 4.48984 10.6664 4.66664C10.6664 4.84345 10.5962 5.01301 10.4712 5.13803C10.3462 5.26305 10.1766 5.33329 9.9998 5.33329H5.33329V18.6662H9.9998C10.1766 18.6662 10.3462 18.7364 10.4712 18.8614C10.5962 18.9865 10.6664 19.156 10.6664 19.3328ZM19.8045 11.5281L16.4713 8.19486C16.3462 8.06977 16.1765 7.9995 15.9996 7.9995C15.8227 7.9995 15.653 8.06977 15.528 8.19486C15.4029 8.31995 15.3326 8.48961 15.3326 8.66651C15.3326 8.84342 15.4029 9.01308 15.528 9.13817L17.7237 11.3331H9.9998C9.823 11.3331 9.65343 11.4033 9.52841 11.5283C9.40339 11.6534 9.33316 11.8229 9.33316 11.9997C9.33316 12.1765 9.40339 12.3461 9.52841 12.4711C9.65343 12.5961 9.823 12.6664 9.9998 12.6664H17.7237L15.528 14.8613C15.4029 14.9864 15.3326 15.1561 15.3326 15.333C15.3326 15.5099 15.4029 15.6795 15.528 15.8046C15.653 15.9297 15.8227 16 15.9996 16C16.1765 16 16.3462 15.9297 16.4713 15.8046L19.8045 12.4714C19.8665 12.4095 19.9156 12.336 19.9492 12.255C19.9827 12.1741 20 12.0873 20 11.9997C20 11.9121 19.9827 11.8254 19.9492 11.7445C19.9156 11.6635 19.8665 11.59 19.8045 11.5281Z" fill="#7D7D7D" fill-opacity="0.55"/>
</svg>
