<svg width="24" height="25" viewBox="0 0 24 25" fill="none" xmlns="http://www.w3.org/2000/svg">
<path d="M19.3333 6.65885H16V5.99219C16 5.46175 15.7893 4.95305 15.4142 4.57797C15.0391 4.2029 14.5304 3.99219 14 3.99219H10C9.46957 3.99219 8.96086 4.2029 8.58579 4.57797C8.21071 4.95305 8 5.46175 8 5.99219V6.65885H4.66667C4.48986 6.65885 4.32029 6.72909 4.19526 6.85412C4.07024 6.97914 4 7.14871 4 7.32552C4 7.50233 4.07024 7.6719 4.19526 7.79693C4.32029 7.92195 4.48986 7.99219 4.66667 7.99219H5.33333V19.9922C5.33333 20.3458 5.47381 20.6849 5.72386 20.935C5.97391 21.185 6.31304 21.3255 6.66667 21.3255H17.3333C17.687 21.3255 18.0261 21.185 18.2761 20.935C18.5262 20.6849 18.6667 20.3458 18.6667 19.9922V7.99219H19.3333C19.5101 7.99219 19.6797 7.92195 19.8047 7.79693C19.9298 7.6719 20 7.50233 20 7.32552C20 7.14871 19.9298 6.97914 19.8047 6.85412C19.6797 6.72909 19.5101 6.65885 19.3333 6.65885ZM9.33333 5.99219C9.33333 5.81538 9.40357 5.64581 9.5286 5.52078C9.65362 5.39576 9.82319 5.32552 10 5.32552H14C14.1768 5.32552 14.3464 5.39576 14.4714 5.52078C14.5964 5.64581 14.6667 5.81538 14.6667 5.99219V6.65885H9.33333V5.99219ZM17.3333 19.9922H6.66667V7.99219H17.3333V19.9922ZM10.6667 11.3255V16.6589C10.6667 16.8357 10.5964 17.0052 10.4714 17.1303C10.3464 17.2553 10.1768 17.3255 10 17.3255C9.82319 17.3255 9.65362 17.2553 9.5286 17.1303C9.40357 17.0052 9.33333 16.8357 9.33333 16.6589V11.3255C9.33333 11.1487 9.40357 10.9791 9.5286 10.8541C9.65362 10.7291 9.82319 10.6589 10 10.6589C10.1768 10.6589 10.3464 10.7291 10.4714 10.8541C10.5964 10.9791 10.6667 11.1487 10.6667 11.3255ZM14.6667 11.3255V16.6589C14.6667 16.8357 14.5964 17.0052 14.4714 17.1303C14.3464 17.2553 14.1768 17.3255 14 17.3255C13.8232 17.3255 13.6536 17.2553 13.5286 17.1303C13.4036 17.0052 13.3333 16.8357 13.3333 16.6589V11.3255C13.3333 11.1487 13.4036 10.9791 13.5286 10.8541C13.6536 10.7291 13.8232 10.6589 14 10.6589C14.1768 10.6589 14.3464 10.7291 14.4714 10.8541C14.5964 10.9791 14.6667 11.1487 14.6667 11.3255Z" fill="black"/>
</svg>
