<svg width="294" height="83" viewBox="0 0 294 83" fill="none" xmlns="http://www.w3.org/2000/svg">
<path fill-rule="evenodd" clip-rule="evenodd" d="M278.58 15.1913C278.39 15.1971 278.196 15.2 278 15.2L290.508 15.1999L278.58 15.1913Z" fill="#f5f5f5"/>
<path fill-rule="evenodd" clip-rule="evenodd" d="M290.508 15.1999L278.58 15.1913C278.39 15.1971 278.196 15.2 278 15.2L290.508 15.1999Z" fill="#f5f5f5"/>
<path d="M0 82.9478H16.8582V82.9496H278.001C286.837 82.9496 294.001 75.7861 294.001 66.9496V15.2024L290.508 15.1999L278 15.2C278.196 15.2 278.39 15.1971 278.58 15.1913L32.8697 15.014C24.0286 15.0076 16.8582 22.1729 16.8582 31.014V67.0482C16.7085 72.8518 14.3261 76.1216 11.5 78.9478C10 80.4478 6 82.9478 0 82.9478Z" fill="#f5f5f5"/>
<path d="M294 0C294 5 290.958 8.95139 288.64 10.9999L288.551 11.0786C286.947 12.4975 284.091 15.0244 278.58 15.1913L290.508 15.1999L294 15.1999V0Z" fill="#f5f5f5"/>
</svg>
