<svg width="24" height="24" viewBox="0 0 24 24" fill="none" xmlns="http://www.w3.org/2000/svg">
<path d="M19.9093 18.7583C18.7389 16.7348 16.9352 15.2839 14.8303 14.5961C15.8715 13.9763 16.6804 13.0319 17.1329 11.9078C17.5854 10.7838 17.6563 9.54225 17.3349 8.37396C17.0135 7.20567 16.3174 6.17519 15.3537 5.44077C14.3899 4.70635 13.2117 4.30859 12 4.30859C10.7883 4.30859 9.6101 4.70635 8.64633 5.44077C7.68257 6.17519 6.98653 7.20567 6.6651 8.37396C6.34368 9.54225 6.41464 10.7838 6.8671 11.9078C7.31955 13.0319 8.12848 13.9763 9.16965 14.5961C7.06476 15.2832 5.26112 16.7341 4.09071 18.7583C4.04779 18.8283 4.01932 18.9061 4.00698 18.9873C3.99464 19.0685 3.99869 19.1513 4.01887 19.2309C4.03906 19.3104 4.07498 19.3852 4.12452 19.4506C4.17405 19.5161 4.2362 19.571 4.30729 19.6121C4.37838 19.6531 4.45698 19.6795 4.53844 19.6897C4.6199 19.6999 4.70258 19.6937 4.7816 19.6714C4.86062 19.6491 4.93437 19.6113 4.99852 19.56C5.06266 19.5088 5.11589 19.4452 5.15507 19.3731C6.6029 16.8709 9.16197 15.3769 12 15.3769C14.838 15.3769 17.3971 16.8709 18.8449 19.3731C18.8841 19.4452 18.9373 19.5088 19.0015 19.56C19.0656 19.6113 19.1394 19.6491 19.2184 19.6714C19.2974 19.6937 19.3801 19.6999 19.4616 19.6897C19.543 19.6795 19.6216 19.6531 19.6927 19.6121C19.7638 19.571 19.8259 19.5161 19.8755 19.4506C19.925 19.3852 19.9609 19.3104 19.9811 19.2309C20.0013 19.1513 20.0054 19.0685 19.993 18.9873C19.9807 18.9061 19.9522 18.8283 19.9093 18.7583ZM7.69646 9.84381C7.69646 8.99265 7.94886 8.1606 8.42174 7.45289C8.89462 6.74517 9.56674 6.19358 10.3531 5.86785C11.1395 5.54213 12.0048 5.45691 12.8396 5.62296C13.6744 5.78901 14.4412 6.19888 15.0431 6.80074C15.6449 7.40261 16.0548 8.16942 16.2208 9.00423C16.3869 9.83903 16.3017 10.7043 15.976 11.4907C15.6502 12.2771 15.0986 12.9492 14.3909 13.4221C13.6832 13.8949 12.8512 14.1473 12 14.1473C10.859 14.1461 9.76509 13.6923 8.95829 12.8855C8.15148 12.0787 7.69768 10.9848 7.69646 9.84381Z" fill="#7D7D7D" fill-opacity="0.55"/>
</svg>
