<svg width="28" height="26" viewBox="0 0 28 26" fill="none" xmlns="http://www.w3.org/2000/svg">
<path id="Vector" d="M26.865 23.9903C24.9612 20.6991 22.0275 18.3391 18.6037 17.2203C20.2973 16.2121 21.613 14.6759 22.349 12.8475C23.0849 11.0192 23.2004 8.9998 22.6775 7.0995C22.1547 5.19919 21.0226 3.52304 19.4549 2.32846C17.8873 1.13387 15.9709 0.4869 14 0.4869C12.0291 0.4869 10.1126 1.13387 8.545 2.32846C6.97737 3.52304 5.84522 5.19919 5.3224 7.0995C4.79958 8.9998 4.91501 11.0192 5.65096 12.8475C6.38691 14.6759 7.70268 16.2121 9.39622 17.2203C5.97247 18.3378 3.03872 20.6978 1.13497 23.9903C1.06516 24.1041 1.01885 24.2308 0.998783 24.3628C0.978715 24.4948 0.985293 24.6295 1.01813 24.759C1.05096 24.8884 1.10939 25.01 1.18996 25.1165C1.27053 25.223 1.37162 25.3122 1.48725 25.379C1.60289 25.4458 1.73073 25.4888 1.86323 25.5054C1.99574 25.5219 2.13022 25.5118 2.25875 25.4756C2.38728 25.4394 2.50725 25.3778 2.61158 25.2944C2.71592 25.2111 2.8025 25.1077 2.86622 24.9903C5.22122 20.9203 9.38372 18.4903 14 18.4903C18.6162 18.4903 22.7787 20.9203 25.1337 24.9903C25.1974 25.1077 25.284 25.2111 25.3884 25.2944C25.4927 25.3778 25.6127 25.4394 25.7412 25.4756C25.8697 25.5118 26.0042 25.5219 26.1367 25.5054C26.2692 25.4888 26.3971 25.4458 26.5127 25.379C26.6283 25.3122 26.7294 25.223 26.81 25.1165C26.8906 25.01 26.949 24.8884 26.9818 24.759C27.0147 24.6295 27.0212 24.4948 27.0012 24.3628C26.9811 24.2308 26.9348 24.1041 26.865 23.9903ZM6.99997 9.4903C6.99997 8.10583 7.41051 6.75245 8.17968 5.60131C8.94885 4.45017 10.0421 3.55296 11.3212 3.02314C12.6003 2.49333 14.0077 2.35471 15.3656 2.6248C16.7235 2.8949 17.9708 3.56159 18.9497 4.54055C19.9287 5.51952 20.5954 6.7668 20.8655 8.12467C21.1356 9.48254 20.9969 10.89 20.4671 12.1691C19.9373 13.4482 19.0401 14.5414 17.889 15.3106C16.7378 16.0798 15.3844 16.4903 14 16.4903C12.1441 16.4883 10.3647 15.7502 9.05242 14.4379C7.74009 13.1255 7.00196 11.3462 6.99997 9.4903Z" fill="black"/>
</svg>
