<svg width="52" height="48" viewBox="0 0 52 48" fill="none" xmlns="http://www.w3.org/2000/svg">
<rect width="48" height="48" transform="translate(2)" fill="white"/>
<path fill-rule="evenodd" clip-rule="evenodd" d="M13.4121 31.3832H9.05398L5.78595 19.7466C5.63083 19.2113 5.30148 18.7381 4.81701 18.5151C3.60796 17.9546 2.27567 17.5085 0.822266 17.2835V16.8355H7.84281C8.81175 16.8355 9.53845 17.5085 9.65957 18.2901L11.3552 26.6839L15.7112 16.8355H19.9482L13.4121 31.3832ZM22.3705 31.3832H18.2546L21.6438 16.8355H25.7596L22.3705 31.3832ZM31.0846 20.8657C31.2057 20.0821 31.9324 19.6341 32.7802 19.6341C34.1125 19.5216 35.5638 19.7466 36.775 20.3052L37.5017 17.173C36.2905 16.725 34.9582 16.5 33.7492 16.5C29.7544 16.5 26.8476 18.5151 26.8476 21.3117C26.8476 23.4393 28.9066 24.5564 30.36 25.2294C31.9324 25.9004 32.538 26.3484 32.4169 27.0195C32.4169 28.026 31.2057 28.474 29.9967 28.474C28.5433 28.474 27.0899 28.1385 25.7597 27.578L25.033 30.7121C26.4864 31.2707 28.0588 31.4957 29.5122 31.4957C33.9914 31.6062 36.775 29.5931 36.775 26.5715C36.775 22.7663 31.0846 22.5433 31.0846 20.8657ZM51.1794 31.3832L47.9114 16.8355H44.4011C43.6744 16.8355 42.9477 17.2835 42.7054 17.9546L36.6538 31.3832H40.8908L41.7365 29.2575H46.9424L47.4269 31.3832H51.1794ZM45.0067 20.7532L46.2157 26.2359H42.8266L45.0067 20.7532Z" fill="#172B85"/>
</svg>
