<svg width="52" height="16" viewBox="0 0 52 16" fill="none" xmlns="http://www.w3.org/2000/svg">
<path id="visa-logo" fill-rule="evenodd" clip-rule="evenodd" d="M13.4121 15.3832H9.05398L5.78595 3.74659C5.63083 3.21131 5.30148 2.73809 4.81701 2.51506C3.60796 1.95456 2.27567 1.50849 0.822266 1.28352V0.835512H7.84281C8.81175 0.835512 9.53845 1.50849 9.65957 2.29008L11.3552 10.6839L15.7112 0.835512H19.9482L13.4121 15.3832ZM22.3705 15.3832H18.2546L21.6438 0.835512H25.7596L22.3705 15.3832ZM31.0846 4.86565C31.2057 4.08213 31.9324 3.63412 32.7802 3.63412C34.1125 3.52163 35.5638 3.7466 36.775 4.30516L37.5017 1.17298C36.2905 0.724974 34.9582 0.5 33.7492 0.5C29.7544 0.5 26.8476 2.51507 26.8476 5.31172C26.8476 7.43928 28.9066 8.55639 30.36 9.22937C31.9324 9.90041 32.538 10.3484 32.4169 11.0195C32.4169 12.026 31.2057 12.474 29.9967 12.474C28.5433 12.474 27.0899 12.1385 25.7597 11.578L25.033 14.7121C26.4864 15.2707 28.0588 15.4957 29.5122 15.4957C33.9914 15.6062 36.775 13.5931 36.775 10.5715C36.775 6.76629 31.0846 6.54326 31.0846 4.86565ZM51.1794 15.3832L47.9114 0.835512H44.4011C43.6744 0.835512 42.9477 1.28352 42.7054 1.95456L36.6538 15.3832H40.8908L41.7365 13.2575H46.9424L47.4269 15.3832H51.1794ZM45.0067 4.75318L46.2157 10.2359H42.8266L45.0067 4.75318Z" fill="#172B85"/>
</svg>
