<svg width="685" height="501" viewBox="0 0 685 501" fill="none" xmlns="http://www.w3.org/2000/svg">
<g filter="url(#filter0_ddd_4017_69862)">
<path fill-rule="evenodd" clip-rule="evenodd" d="M555.094 404.75C560.116 407.649 568.259 407.649 573.281 404.75C578.303 401.851 578.303 397.149 573.281 394.25C568.259 391.351 560.116 391.351 555.094 394.25C550.072 397.149 550.072 401.851 555.094 404.75Z" fill="#353B46"/>
<path d="M554.932 404.844C560.044 407.795 568.331 407.795 573.443 404.844C578.555 401.892 578.555 397.108 573.443 394.156C568.331 391.205 560.044 391.205 554.932 394.156C549.82 397.108 549.82 401.892 554.932 404.844Z" stroke="black" stroke-opacity="0.04" stroke-width="0.375"/>
</g>
<rect width="46" height="36" rx="18" transform="matrix(0.866025 0.5 -0.866025 0.5 597.963 357.5)" fill="#353B46"/>
<path d="M592.912 377.084L594.289 376.289L590.849 374.303L591.727 373.796L599.423 372.203L600.472 372.809L592.777 374.402L595.167 375.782L597.271 374.567L598.207 375.107L596.102 376.322L596.882 376.772L596.003 377.279L595.224 376.829L593.847 377.624L592.912 377.084ZM598.24 380.34C597.755 380.06 597.431 379.747 597.268 379.401C597.112 379.055 597.112 378.709 597.268 378.363C597.431 378.017 597.755 377.704 598.24 377.424L600.983 375.84C601.468 375.56 602.011 375.373 602.61 375.279C603.213 375.187 603.812 375.187 604.408 375.279C605.007 375.373 605.549 375.56 606.034 375.84C606.519 376.12 606.843 376.433 607.006 376.779C607.169 377.125 607.169 377.471 607.006 377.817C606.843 378.163 606.519 378.476 606.034 378.756L603.291 380.34C602.806 380.62 602.263 380.807 601.664 380.901C601.068 380.993 600.469 380.993 599.866 380.901C599.267 380.807 598.725 380.62 598.24 380.34ZM599.128 379.827C599.423 379.997 599.761 380.11 600.142 380.166C600.523 380.222 600.904 380.222 601.285 380.166C601.669 380.108 602.007 379.995 602.298 379.827L605.151 378.18C605.445 378.01 605.641 377.815 605.738 377.595C605.835 377.375 605.835 377.155 605.738 376.935C605.641 376.715 605.445 376.52 605.151 376.35C604.86 376.182 604.522 376.069 604.138 376.011C603.757 375.955 603.375 375.955 602.994 376.011C602.613 376.067 602.276 376.18 601.981 376.35L599.128 377.997C598.837 378.165 598.642 378.36 598.541 378.582C598.444 378.802 598.444 379.022 598.541 379.242C598.642 379.464 598.837 379.659 599.128 379.827ZM605.608 384.414L606.985 383.619L603.545 381.633L604.423 381.126L612.119 379.533L613.168 380.139L605.473 381.732L607.863 383.112L609.967 381.897L610.903 382.437L608.798 383.652L609.578 384.102L608.7 384.609L607.92 384.159L606.543 384.954L605.608 384.414Z" fill="white"/>
<path fill-rule="evenodd" clip-rule="evenodd" d="M586.055 385.875L588.653 387.375L574.363 395.625L571.765 394.125L586.055 385.875Z" fill="#353B46"/>
<g filter="url(#filter1_d_4017_69862)">
<path d="M573.588 409L573.588 415L583.98 409L573.588 409Z" fill="#353B46"/>
<g clip-path="url(#clip0_4017_69862)">
<rect width="63" height="36" rx="6" transform="matrix(0.866025 0.5 -0.866025 0.5 594.371 403)" fill="#353B46"/>
<path d="M586.347 420.368L592.895 416.587L595.482 418.081C595.545 418.118 595.618 418.163 595.7 418.218C595.785 418.27 595.86 418.324 595.927 418.38C596.227 418.617 596.403 418.858 596.455 419.105C596.509 419.353 596.453 419.596 596.286 419.832C596.123 420.067 595.867 420.284 595.518 420.486C595.012 420.778 594.44 420.956 593.804 421.019C593.17 421.08 592.552 420.991 591.949 420.751L591.59 420.601L589.575 419.438L587.157 420.835L586.347 420.368ZM590.244 422.617L591.617 420.333L592.663 420.654L591.171 423.153L590.244 422.617ZM590.344 418.995L592.094 420.005C592.152 420.039 592.22 420.074 592.299 420.113C592.381 420.153 592.463 420.188 592.544 420.218C592.802 420.311 593.06 420.358 593.317 420.36C593.581 420.361 593.83 420.33 594.063 420.265C594.299 420.199 594.509 420.113 594.69 420.008C594.872 419.903 595.019 419.783 595.131 419.648C595.247 419.512 595.303 419.367 595.3 419.215C595.3 419.065 595.218 418.916 595.054 418.769C595.006 418.72 594.945 418.673 594.872 418.627C594.806 418.582 594.743 418.542 594.686 418.509L592.935 417.498L590.344 418.995ZM594.164 425.038C593.682 424.76 593.367 424.455 593.218 424.125C593.076 423.794 593.096 423.46 593.278 423.124C593.462 422.787 593.811 422.47 594.323 422.174C594.86 421.864 595.422 421.654 596.01 421.542C596.601 421.428 597.179 421.411 597.742 421.492C598.312 421.572 598.835 421.75 599.311 422.025C599.805 422.31 600.111 422.618 600.229 422.949C600.351 423.281 600.287 423.619 600.038 423.962C599.793 424.307 599.367 424.64 598.761 424.962L597.942 424.489L598.233 424.321C598.827 423.968 599.155 423.637 599.215 423.329C599.279 423.019 599.078 422.73 598.611 422.46C598.111 422.172 597.57 422.045 596.988 422.08C596.406 422.115 595.815 422.305 595.214 422.652C594.636 422.986 594.317 423.32 594.26 423.655C594.202 423.989 594.414 424.295 594.896 424.573C595.221 424.761 595.577 424.881 595.965 424.933C596.353 424.986 596.754 424.971 597.169 424.888L597.679 425.492C597.054 425.632 596.43 425.66 595.806 425.576C595.187 425.492 594.64 425.313 594.164 425.038ZM594.714 422.626L595.364 422.25L598.993 424.345L598.343 424.72L594.714 422.626ZM598.014 427.103L603.192 424.113C603.319 424.04 603.454 423.969 603.597 423.9C603.742 423.83 603.898 423.772 604.065 423.725C604.235 423.676 604.421 423.648 604.624 423.643C604.861 423.636 605.071 423.656 605.256 423.704C605.444 423.749 605.612 423.808 605.761 423.879C605.913 423.953 606.05 424.026 606.175 424.097L606.798 424.457L606.125 424.845L605.547 424.512C605.308 424.374 605.07 424.305 604.833 424.305C604.6 424.303 604.365 424.37 604.129 424.507L598.823 427.57L598.014 427.103ZM601.424 424.173L602.092 423.788L605.024 425.481L604.356 425.867L601.424 424.173ZM600.84 428.735L605.75 425.9L606.473 426.317L605.286 427.002L605.323 426.845C605.532 426.79 605.746 426.753 605.964 426.732C606.185 426.713 606.394 426.713 606.591 426.732C606.822 426.746 607.044 426.783 607.26 426.845C607.475 426.906 607.67 426.982 607.846 427.073C608.025 427.162 608.17 427.259 608.283 427.362L607.523 427.8C607.399 427.676 607.225 427.561 607 427.456C606.776 427.351 606.514 427.286 606.214 427.259C605.944 427.233 605.685 427.241 605.436 427.283C605.191 427.327 604.957 427.393 604.736 427.483C604.518 427.57 604.312 427.67 604.118 427.782L601.654 429.205L600.84 428.735ZM606.135 431.949C605.653 431.671 605.337 431.366 605.189 431.036C605.046 430.705 605.066 430.372 605.248 430.036C605.433 429.698 605.781 429.381 606.294 429.085C606.83 428.776 607.393 428.565 607.981 428.453C608.572 428.339 609.149 428.322 609.713 428.403C610.283 428.483 610.806 428.661 611.281 428.936C611.775 429.221 612.082 429.529 612.2 429.86C612.321 430.192 612.257 430.53 612.009 430.873C611.763 431.218 611.337 431.551 610.731 431.873L609.913 431.401L610.204 431.233C610.798 430.879 611.125 430.548 611.186 430.24C611.25 429.931 611.048 429.641 610.581 429.371C610.081 429.083 609.54 428.956 608.958 428.991C608.376 429.026 607.785 429.217 607.185 429.563C606.606 429.897 606.288 430.232 606.23 430.566C606.172 430.9 606.385 431.206 606.867 431.485C607.191 431.672 607.547 431.792 607.935 431.844C608.323 431.897 608.725 431.882 609.14 431.8L609.649 432.403C609.025 432.543 608.4 432.571 607.776 432.487C607.158 432.403 606.61 432.224 606.135 431.949ZM606.685 429.537L607.335 429.161L610.963 431.256L610.313 431.632L606.685 429.537ZM611.239 434.891C610.654 434.553 610.301 434.202 610.179 433.838C610.064 433.474 610.195 433.135 610.57 432.82L611.53 433.221C611.33 433.414 611.271 433.625 611.353 433.854C611.437 434.081 611.657 434.298 612.012 434.502C612.348 434.697 612.682 434.809 613.012 434.838C613.342 434.868 613.627 434.814 613.867 434.676C614.006 434.595 614.087 434.512 614.108 434.426C614.132 434.339 614.082 434.215 613.958 434.056C613.836 433.899 613.629 433.674 613.335 433.381C613.017 433.065 612.795 432.799 612.671 432.583C612.547 432.368 612.513 432.183 612.571 432.027C612.629 431.871 612.774 431.726 613.007 431.591C613.295 431.425 613.626 431.325 613.999 431.292C614.374 431.257 614.762 431.287 615.163 431.381C615.566 431.477 615.955 431.634 616.331 431.851C616.704 432.066 616.978 432.293 617.154 432.531C617.33 432.769 617.398 433.003 617.359 433.232C617.325 433.461 617.181 433.668 616.927 433.854L615.949 433.463C616.173 433.288 616.254 433.094 616.19 432.883C616.129 432.673 615.936 432.468 615.608 432.268C615.302 432.078 614.987 431.96 614.662 431.917C614.341 431.875 614.074 431.915 613.862 432.037C613.744 432.106 613.679 432.185 613.667 432.276C613.658 432.369 613.715 432.495 613.84 432.654C613.967 432.815 614.174 433.035 614.462 433.313C614.787 433.626 615.008 433.892 615.126 434.111C615.25 434.33 615.278 434.521 615.208 434.683C615.141 434.844 614.981 434.998 614.726 435.145C614.253 435.418 613.706 435.533 613.085 435.489C612.466 435.444 611.851 435.244 611.239 434.891ZM617.834 438.546L620.294 437.126C620.527 436.991 620.73 436.85 620.903 436.701C621.079 436.554 621.2 436.402 621.267 436.244C621.339 436.087 621.339 435.929 621.267 435.772C621.197 435.616 621.032 435.463 620.771 435.312C620.568 435.195 620.348 435.108 620.112 435.052C619.881 434.996 619.637 434.975 619.38 434.987C619.122 434.999 618.854 435.047 618.575 435.131C618.302 435.215 618.023 435.339 617.738 435.504L617.37 435.102C617.846 434.828 618.339 434.641 618.848 434.543C619.363 434.445 619.866 434.433 620.357 434.506C620.854 434.58 621.314 434.738 621.735 434.982C622.053 435.165 622.274 435.351 622.399 435.538C622.523 435.725 622.576 435.91 622.558 436.092C622.543 436.272 622.475 436.446 622.353 436.614C622.235 436.781 622.087 436.935 621.908 437.076C621.735 437.218 621.555 437.343 621.367 437.452L618.652 439.019L617.834 438.546ZM614.333 436.525L620.88 432.745L621.608 433.165L617.993 435.252L618.084 435.304L615.151 436.998L614.333 436.525Z" fill="white"/>
</g>
</g>
<g filter="url(#filter2_ddd_4017_69862)">
<path fill-rule="evenodd" clip-rule="evenodd" d="M130.125 257.166C137.857 257.166 144.125 250.898 144.125 243.166C144.125 235.434 137.857 229.166 130.125 229.166C122.393 229.166 116.125 235.434 116.125 243.166C116.125 250.898 122.393 257.166 130.125 257.166Z" fill="#353B46"/>
<path d="M130.125 257.416C137.995 257.416 144.375 251.036 144.375 243.166C144.375 235.296 137.995 228.916 130.125 228.916C122.255 228.916 115.875 235.296 115.875 243.166C115.875 251.036 122.255 257.416 130.125 257.416Z" stroke="black" stroke-opacity="0.04" stroke-width="0.5"/>
</g>
<rect width="62" height="48" rx="24" transform="matrix(0.866025 -0.5 2.20305e-08 1 103.133 31.3955)" fill="#353B46"/>
<path d="M122.667 50.117L122.667 47.997L118.08 50.645L118.08 49.293L121.371 39.345L122.771 38.537L119.48 48.485L122.667 46.645L122.667 43.405L123.914 42.685L123.914 45.925L124.953 45.325L124.953 46.677L123.914 47.277L123.914 49.397L122.667 50.117ZM129.979 46.1354C129.332 46.5087 128.755 46.6741 128.247 46.6314C127.743 46.5807 127.344 46.3501 127.048 45.9394C126.757 45.5207 126.612 44.9381 126.612 44.1914L126.612 39.9674C126.612 39.2207 126.757 38.4701 127.048 37.7154C127.344 36.9581 127.743 36.2661 128.247 35.6394C128.755 35.0101 129.332 34.5087 129.979 34.1354C130.625 33.7621 131.203 33.5967 131.711 33.6394C132.219 33.6821 132.618 33.9127 132.909 34.3314C133.2 34.7501 133.346 35.3327 133.346 36.0794L133.346 40.3034C133.346 41.0501 133.2 41.8007 132.909 42.5554C132.618 43.3047 132.219 43.9967 131.711 44.6314C131.203 45.2607 130.625 45.7621 129.979 46.1354ZM129.979 44.7674C130.371 44.5407 130.727 44.2261 131.046 43.8234C131.364 43.4207 131.618 42.9807 131.808 42.5034C131.997 42.0207 132.092 41.5554 132.092 41.1074L132.092 36.7154C132.092 36.2621 131.997 35.9061 131.808 35.6474C131.618 35.3887 131.364 35.2421 131.046 35.2074C130.727 35.1727 130.371 35.2687 129.979 35.4954C129.591 35.7194 129.235 36.0341 128.912 36.4394C128.593 36.8421 128.339 37.2821 128.15 37.7594C127.96 38.2367 127.866 38.7021 127.866 39.1554L127.866 43.5474C127.866 43.9954 127.96 44.3514 128.15 44.6154C128.339 44.8741 128.593 45.0207 128.912 45.0554C129.235 45.0874 129.591 44.9914 129.979 44.7674ZM139.595 40.3436L139.595 38.2236L135.008 40.8716L135.008 39.5196L138.299 29.5716L139.699 28.7636L136.408 38.7116L139.595 36.8716L139.595 33.6316L140.842 32.9116L140.842 36.1516L141.881 35.5516L141.881 36.9036L140.842 37.5036L140.842 39.6236L139.595 40.3436Z" fill="white"/>
<path fill-rule="evenodd" clip-rule="evenodd" d="M128.248 56.7188L131.712 54.7188L131.712 234.607L128.248 236.607L128.248 56.7188Z" fill="#353B46"/>
<g filter="url(#filter3_di_4017_69862)">
<path d="M178 184V164H94V152L174 88H190V154H206V164H190V184H178ZM106 154H178V96L106 154Z" fill="#353B46"/>
<path d="M315.75 134.75C315.75 127.417 315.5 121.375 315 116.625C314.5 111.875 313.562 108.125 312.188 105.375C310.854 102.625 308.896 100.625 306.312 99.375C303.771 98.0833 300.458 97.2708 296.375 96.9375C292.292 96.5625 287.271 96.375 281.312 96.375H268.438C262.479 96.375 257.458 96.5625 253.375 96.9375C249.292 97.2708 245.958 98.0833 243.375 99.375C240.833 100.625 238.875 102.625 237.5 105.375C236.167 108.125 235.25 111.875 234.75 116.625C234.25 121.375 234 127.417 234 134.75V137.25C234 144.333 234.25 150.208 234.75 154.875C235.25 159.542 236.167 163.271 237.5 166.062C238.875 168.854 240.833 170.938 243.375 172.312C245.958 173.688 249.292 174.583 253.375 175C257.458 175.417 262.479 175.625 268.438 175.625H281.312C287.271 175.625 292.292 175.417 296.375 175C300.458 174.583 303.771 173.688 306.312 172.312C308.896 170.938 310.854 168.854 312.188 166.062C313.562 163.271 314.5 159.542 315 154.875C315.5 150.208 315.75 144.333 315.75 137.25V134.75ZM222 137.25V134.75C222 126.25 222.417 119.125 223.25 113.375C224.083 107.583 225.521 102.875 227.562 99.25C229.604 95.625 232.375 92.8542 235.875 90.9375C239.417 89.0208 243.854 87.7292 249.188 87.0625C254.521 86.3542 260.938 86 268.438 86H281.312C288.812 86 295.229 86.3542 300.562 87.0625C305.896 87.7292 310.312 89.0208 313.812 90.9375C317.354 92.8542 320.146 95.625 322.188 99.25C324.229 102.875 325.667 107.583 326.5 113.375C327.333 119.125 327.75 126.25 327.75 134.75V137.25C327.75 147.542 327.062 155.896 325.688 162.312C324.354 168.729 321.979 173.646 318.562 177.062C315.188 180.479 310.479 182.812 304.438 184.062C298.396 185.354 290.688 186 281.312 186H268.438C259.062 186 251.354 185.354 245.312 184.062C239.271 182.812 234.542 180.479 231.125 177.062C227.75 173.646 225.375 168.729 224 162.312C222.667 155.896 222 147.542 222 137.25Z" fill="#353B46"/>
<path d="M427.75 184V164H343.75V152L423.75 88H439.75V154H455.75V164H439.75V184H427.75ZM355.75 154H427.75V96L355.75 154Z" fill="#353B46"/>
</g>
<g filter="url(#filter4_dddi_4017_69862)">
<path fill-rule="evenodd" clip-rule="evenodd" d="M273 316C285.15 316 295 306.15 295 294C295 281.85 285.15 272 273 272C260.85 272 251 281.85 251 294C251 306.15 260.85 316 273 316Z" fill="#353B46"/>
<path d="M273 316.25C285.288 316.25 295.25 306.288 295.25 294C295.25 281.712 285.288 271.75 273 271.75C260.712 271.75 250.75 281.712 250.75 294C250.75 306.288 260.712 316.25 273 316.25Z" stroke="black" stroke-opacity="0.04" stroke-width="0.5"/>
</g>
<path fill-rule="evenodd" clip-rule="evenodd" d="M271 141.75H275V273H271V141.75Z" fill="url(#paint0_linear_4017_69862)"/>
<path d="M456.75 170.75V169.25C456.75 168.852 456.908 168.471 457.189 168.189C457.471 167.908 457.852 167.75 458.25 167.75C458.648 167.75 459.029 167.908 459.311 168.189C459.592 168.471 459.75 168.852 459.75 169.25V170.75C459.75 171.148 459.592 171.529 459.311 171.811C459.029 172.092 458.648 172.25 458.25 172.25C457.852 172.25 457.471 172.092 457.189 171.811C456.908 171.529 456.75 171.148 456.75 170.75ZM443.25 185.75H444.75C445.148 185.75 445.529 185.592 445.811 185.311C446.092 185.029 446.25 184.648 446.25 184.25C446.25 183.852 446.092 183.471 445.811 183.189C445.529 182.908 445.148 182.75 444.75 182.75H443.25C442.852 182.75 442.471 182.908 442.189 183.189C441.908 183.471 441.75 183.852 441.75 184.25C441.75 184.648 441.908 185.029 442.189 185.311C442.471 185.592 442.852 185.75 443.25 185.75ZM463.579 173.593C463.755 173.681 463.947 173.734 464.144 173.748C464.34 173.762 464.538 173.737 464.725 173.674C464.912 173.612 465.085 173.513 465.234 173.384C465.383 173.255 465.505 173.098 465.593 172.921L467.093 169.921C467.271 169.566 467.3 169.154 467.174 168.776C467.049 168.399 466.778 168.087 466.422 167.909C466.067 167.731 465.655 167.701 465.277 167.827C464.9 167.953 464.588 168.223 464.409 168.579L462.909 171.579C462.821 171.755 462.768 171.947 462.754 172.143C462.74 172.34 462.765 172.537 462.827 172.724C462.889 172.911 462.987 173.084 463.117 173.233C463.246 173.382 463.403 173.504 463.579 173.593ZM445.579 188.909L442.579 190.409C442.223 190.588 441.953 190.9 441.827 191.277C441.701 191.655 441.731 192.067 441.909 192.422C442.087 192.778 442.399 193.049 442.776 193.174C443.154 193.3 443.566 193.271 443.921 193.093L446.921 191.593C447.098 191.504 447.255 191.382 447.384 191.234C447.513 191.085 447.611 190.912 447.673 190.725C447.736 190.538 447.76 190.341 447.746 190.144C447.732 189.948 447.68 189.756 447.592 189.58C447.504 189.404 447.382 189.247 447.233 189.118C447.084 188.988 446.911 188.89 446.724 188.828C446.537 188.766 446.34 188.741 446.143 188.755C445.947 188.769 445.755 188.821 445.579 188.909ZM481.371 200.75C481.649 201.029 481.87 201.359 482.021 201.723C482.172 202.087 482.25 202.478 482.25 202.872C482.25 203.266 482.172 203.656 482.021 204.02C481.87 204.384 481.649 204.715 481.371 204.993L478.993 207.371C478.715 207.649 478.384 207.87 478.02 208.021C477.656 208.172 477.266 208.25 476.872 208.25C476.478 208.25 476.087 208.172 475.723 208.021C475.359 207.87 475.029 207.649 474.75 207.371L465.131 197.75L461.813 206.392C461.813 206.411 461.798 206.431 461.788 206.452C461.559 206.987 461.177 207.443 460.69 207.763C460.203 208.083 459.633 208.252 459.051 208.25H458.903C458.295 208.224 457.71 208.013 457.227 207.644C456.744 207.275 456.386 206.767 456.201 206.188L446.4 176.173C446.232 175.648 446.212 175.087 446.341 174.551C446.471 174.015 446.746 173.525 447.136 173.136C447.525 172.746 448.015 172.471 448.551 172.341C449.087 172.212 449.648 172.232 450.173 172.4L480.188 182.201C480.761 182.393 481.264 182.753 481.628 183.236C481.993 183.718 482.204 184.3 482.233 184.904C482.261 185.508 482.106 186.107 481.789 186.622C481.471 187.136 481.005 187.543 480.452 187.788L480.392 187.813L471.75 191.129L481.371 200.75ZM479.25 202.871L469.629 193.25C469.283 192.904 469.027 192.479 468.882 192.012C468.738 191.544 468.71 191.049 468.801 190.568C468.893 190.087 469.1 189.636 469.405 189.254C469.711 188.872 470.105 188.57 470.554 188.375L470.614 188.349L479.229 185.041L449.25 175.25L459.038 205.224L462.347 196.599C462.347 196.578 462.362 196.558 462.371 196.537C462.566 196.089 462.868 195.695 463.25 195.389C463.632 195.084 464.083 194.877 464.563 194.786C464.749 194.751 464.937 194.734 465.126 194.733C465.921 194.734 466.683 195.05 467.244 195.613L476.871 205.25L479.25 202.871Z" fill="#E16C60"/>
<g filter="url(#filter5_i_4017_69862)">
<path d="M300.6 116.162L275.215 102.273C274.537 101.898 273.775 101.701 273 101.701C272.225 101.701 271.463 101.898 270.785 102.273L245.4 116.168C244.675 116.564 244.07 117.148 243.648 117.859C243.226 118.569 243.002 119.38 243 120.206V147.795C243.002 148.621 243.226 149.432 243.648 150.142C244.07 150.852 244.675 151.436 245.4 151.833L270.785 165.728C271.463 166.103 272.225 166.3 273 166.3C273.775 166.3 274.537 166.103 275.215 165.728L300.6 151.833C301.325 151.436 301.93 150.852 302.352 150.142C302.774 149.432 302.998 148.621 303 147.795V120.209C303 119.381 302.777 118.569 302.354 117.857C301.932 117.145 301.326 116.559 300.6 116.162ZM273 106.311L296.175 119.003L287.588 123.705L264.41 111.013L273 106.311ZM273 131.696L249.825 119.003L259.604 113.649L282.779 126.342L273 131.696ZM247.615 123.042L270.692 135.671V160.418L247.615 147.798V123.042ZM298.385 147.786L275.308 160.418V135.682L284.538 130.631V140.926C284.538 141.538 284.782 142.125 285.214 142.558C285.647 142.991 286.234 143.234 286.846 143.234C287.458 143.234 288.045 142.991 288.478 142.558C288.911 142.125 289.154 141.538 289.154 140.926V128.104L298.385 123.042V147.783V147.786Z" fill="#8E9DBC"/>
</g>
<g filter="url(#filter6_d_4017_69862)">
<rect x="36" y="227" width="63" height="36" rx="6" fill="#353B46"/>
<path d="M48.735 249V241.44H51.7223C51.7958 241.44 51.8833 241.443 51.9848 241.45C52.0863 241.454 52.1843 241.464 52.2788 241.482C52.6883 241.545 53.0313 241.685 53.3078 241.902C53.5878 242.119 53.7978 242.394 53.9378 242.726C54.0778 243.055 54.1478 243.421 54.1478 243.823C54.1478 244.408 53.9955 244.915 53.691 245.346C53.3865 245.773 52.9403 246.041 52.3523 246.149L51.9953 246.207H49.6695V249H48.735ZM53.2343 249L51.7433 245.923L52.6673 245.64L54.3053 249H53.2343ZM49.6695 245.32H51.6908C51.7573 245.32 51.8325 245.316 51.9165 245.309C52.004 245.302 52.0863 245.29 52.1633 245.272C52.4048 245.216 52.6008 245.115 52.7513 244.968C52.9053 244.817 53.0173 244.642 53.0873 244.443C53.1573 244.24 53.1923 244.033 53.1923 243.823C53.1923 243.613 53.1573 243.409 53.0873 243.209C53.0173 243.006 52.9053 242.829 52.7513 242.679C52.6008 242.528 52.4048 242.427 52.1633 242.374C52.0863 242.353 52.004 242.341 51.9165 242.338C51.8325 242.331 51.7573 242.327 51.6908 242.327H49.6695V245.32ZM57.9186 249.158C57.3621 249.158 56.8756 249.035 56.4591 248.79C56.0461 248.541 55.7241 248.197 55.4931 247.756C55.2621 247.311 55.1466 246.793 55.1466 246.202C55.1466 245.582 55.2603 245.047 55.4878 244.595C55.7153 244.14 56.0321 243.79 56.4381 243.545C56.8476 243.297 57.3271 243.172 57.8766 243.172C58.4471 243.172 58.9318 243.304 59.3308 243.566C59.7333 243.829 60.0343 244.203 60.2338 244.69C60.4368 245.176 60.5243 245.755 60.4963 246.427H59.5513V246.091C59.5408 245.395 59.3991 244.875 59.1261 244.532C58.8531 244.186 58.4471 244.012 57.9081 244.012C57.3306 244.012 56.8913 244.198 56.5903 244.569C56.2893 244.94 56.1388 245.472 56.1388 246.165C56.1388 246.833 56.2893 247.351 56.5903 247.719C56.8913 248.086 57.3201 248.27 57.8766 248.27C58.2511 248.27 58.5766 248.184 58.8531 248.013C59.1296 247.841 59.3466 247.595 59.5041 247.273L60.4018 247.582C60.1813 248.083 59.8488 248.471 59.4043 248.748C58.9633 249.021 58.4681 249.158 57.9186 249.158ZM55.8238 246.427V245.677H60.0133V246.427H55.8238ZM62.2059 249V243.02C62.2059 242.873 62.2129 242.724 62.2269 242.574C62.2409 242.42 62.2724 242.271 62.3214 242.128C62.3704 241.981 62.4509 241.846 62.5629 241.723C62.6924 241.58 62.8342 241.478 62.9882 241.419C63.1422 241.356 63.2979 241.317 63.4554 241.303C63.6164 241.289 63.7687 241.282 63.9122 241.282H64.6314V242.059H63.9647C63.6882 242.059 63.4817 242.128 63.3452 242.264C63.2087 242.397 63.1404 242.6 63.1404 242.873V249H62.2059ZM61.2452 244.102V243.33H64.6314V244.102H61.2452ZM65.4694 249V243.33H66.3041V244.7L66.1676 244.522C66.2341 244.347 66.3199 244.186 66.4249 244.039C66.5334 243.892 66.6541 243.771 66.7871 243.676C66.9341 243.557 67.1004 243.466 67.2859 243.403C67.4714 243.34 67.6604 243.304 67.8529 243.293C68.0454 243.279 68.2256 243.291 68.3936 243.33V244.207C68.1976 244.154 67.9824 244.14 67.7479 244.165C67.5134 244.189 67.2964 244.275 67.0969 244.422C66.9149 244.551 66.7731 244.709 66.6716 244.894C66.5736 245.08 66.5054 245.281 66.4669 245.498C66.4284 245.712 66.4091 245.93 66.4091 246.154V249H65.4694ZM71.7408 249.158C71.1843 249.158 70.6978 249.035 70.2813 248.79C69.8683 248.541 69.5463 248.197 69.3153 247.756C69.0843 247.311 68.9688 246.793 68.9688 246.202C68.9688 245.582 69.0826 245.047 69.3101 244.595C69.5376 244.14 69.8543 243.79 70.2603 243.545C70.6698 243.297 71.1493 243.172 71.6988 243.172C72.2693 243.172 72.7541 243.304 73.1531 243.566C73.5556 243.829 73.8566 244.203 74.0561 244.69C74.2591 245.176 74.3466 245.755 74.3186 246.427H73.3736V246.091C73.3631 245.395 73.2213 244.875 72.9483 244.532C72.6753 244.186 72.2693 244.012 71.7303 244.012C71.1528 244.012 70.7136 244.198 70.4126 244.569C70.1116 244.94 69.9611 245.472 69.9611 246.165C69.9611 246.833 70.1116 247.351 70.4126 247.719C70.7136 248.086 71.1423 248.27 71.6988 248.27C72.0733 248.27 72.3988 248.184 72.6753 248.013C72.9518 247.841 73.1688 247.595 73.3263 247.273L74.2241 247.582C74.0036 248.083 73.6711 248.471 73.2266 248.748C72.7856 249.021 72.2903 249.158 71.7408 249.158ZM69.6461 246.427V245.677H73.8356V246.427H69.6461ZM77.6294 249.152C76.9539 249.152 76.3992 249.005 75.9652 248.711C75.5347 248.414 75.2704 247.999 75.1724 247.467L76.1279 247.315C76.2049 247.623 76.3817 247.868 76.6582 248.05C76.9347 248.228 77.2777 248.317 77.6872 248.317C78.0757 248.317 78.3802 248.237 78.6007 248.076C78.8212 247.915 78.9314 247.696 78.9314 247.42C78.9314 247.259 78.8947 247.129 78.8212 247.031C78.7477 246.93 78.5954 246.835 78.3644 246.748C78.1369 246.66 77.7922 246.555 77.3302 246.433C76.8297 246.3 76.4359 246.161 76.1489 246.018C75.8619 245.874 75.6572 245.708 75.5347 245.519C75.4122 245.33 75.3509 245.101 75.3509 244.831C75.3509 244.499 75.4419 244.208 75.6239 243.96C75.8059 243.708 76.0597 243.514 76.3852 243.377C76.7142 243.241 77.0957 243.172 77.5297 243.172C77.9602 243.172 78.3452 243.241 78.6847 243.377C79.0242 243.514 79.2972 243.708 79.5037 243.96C79.7137 244.208 79.8379 244.499 79.8764 244.831L78.9209 245.005C78.8754 244.7 78.7284 244.46 78.4799 244.285C78.2349 244.11 77.9182 244.018 77.5297 244.007C77.1622 243.993 76.8629 244.058 76.6319 244.201C76.4044 244.345 76.2907 244.539 76.2907 244.784C76.2907 244.921 76.3327 245.038 76.4167 245.136C76.5042 245.234 76.6634 245.327 76.8944 245.414C77.1289 245.502 77.4684 245.601 77.9129 245.713C78.4134 245.839 78.8072 245.978 79.0942 246.128C79.3847 246.275 79.5912 246.45 79.7137 246.653C79.8362 246.853 79.8974 247.099 79.8974 247.393C79.8974 247.939 79.6962 248.37 79.2937 248.685C78.8912 248.996 78.3364 249.152 77.6294 249.152ZM85.0926 249V246.16C85.0926 245.89 85.0681 245.631 85.0191 245.383C84.9736 245.134 84.8913 244.912 84.7723 244.716C84.6568 244.516 84.4993 244.359 84.2998 244.243C84.1038 244.128 83.8553 244.07 83.5543 244.07C83.3198 244.07 83.1063 244.11 82.9138 244.191C82.7248 244.268 82.5621 244.387 82.4256 244.548C82.2891 244.709 82.1823 244.912 82.1053 245.157C82.0318 245.398 81.9951 245.684 81.9951 246.013L81.3808 245.824C81.3808 245.274 81.4788 244.803 81.6748 244.411C81.8743 244.016 82.1526 243.713 82.5096 243.503C82.8701 243.29 83.2936 243.183 83.7801 243.183C84.1476 243.183 84.4608 243.241 84.7198 243.356C84.9788 243.472 85.1941 243.626 85.3656 243.818C85.5371 244.007 85.6718 244.221 85.7698 244.459C85.8678 244.693 85.9361 244.933 85.9746 245.178C86.0166 245.419 86.0376 245.649 86.0376 245.866V249H85.0926ZM81.0501 249V241.44H81.8901V245.614H81.9951V249H81.0501Z" fill="white"/>
<path d="M105 245L99 239V251L105 245Z" fill="#353B46"/>
</g>
<defs>
<filter id="filter0_ddd_4017_69862" x="544.869" y="388.061" width="38.6367" height="27.3789" filterUnits="userSpaceOnUse" color-interpolation-filters="sRGB">
<feFlood flood-opacity="0" result="BackgroundImageFix"/>
<feColorMatrix in="SourceAlpha" type="matrix" values="0 0 0 0 0 0 0 0 0 0 0 0 0 0 0 0 0 0 127 0" result="hardAlpha"/>
<feOffset dy="2.25"/>
<feGaussianBlur stdDeviation="0.375"/>
<feColorMatrix type="matrix" values="0 0 0 0 0 0 0 0 0 0 0 0 0 0 0 0 0 0 0.1 0"/>
<feBlend mode="normal" in2="BackgroundImageFix" result="effect1_dropShadow_4017_69862"/>
<feColorMatrix in="SourceAlpha" type="matrix" values="0 0 0 0 0 0 0 0 0 0 0 0 0 0 0 0 0 0 127 0" result="hardAlpha"/>
<feOffset dy="0.75"/>
<feGaussianBlur stdDeviation="0.375"/>
<feColorMatrix type="matrix" values="0 0 0 0 0 0 0 0 0 0 0 0 0 0 0 0 0 0 0.16 0"/>
<feBlend mode="normal" in2="effect1_dropShadow_4017_69862" result="effect2_dropShadow_4017_69862"/>
<feColorMatrix in="SourceAlpha" type="matrix" values="0 0 0 0 0 0 0 0 0 0 0 0 0 0 0 0 0 0 127 0" result="hardAlpha"/>
<feOffset dy="2.25"/>
<feGaussianBlur stdDeviation="3"/>
<feColorMatrix type="matrix" values="0 0 0 0 0 0 0 0 0 0 0 0 0 0 0 0 0 0 0.15 0"/>
<feBlend mode="normal" in2="effect2_dropShadow_4017_69862" result="effect3_dropShadow_4017_69862"/>
<feBlend mode="normal" in="SourceGraphic" in2="effect3_dropShadow_4017_69862" result="shape"/>
</filter>
<filter id="filter1_d_4017_69862" x="521.998" y="376" width="162.934" height="124.5" filterUnits="userSpaceOnUse" color-interpolation-filters="sRGB">
<feFlood flood-opacity="0" result="BackgroundImageFix"/>
<feColorMatrix in="SourceAlpha" type="matrix" values="0 0 0 0 0 0 0 0 0 0 0 0 0 0 0 0 0 0 127 0" result="hardAlpha"/>
<feOffset dy="12"/>
<feGaussianBlur stdDeviation="18"/>
<feColorMatrix type="matrix" values="0 0 0 0 0 0 0 0 0 0 0 0 0 0 0 0 0 0 0.22 0"/>
<feBlend mode="normal" in2="BackgroundImageFix" result="effect1_dropShadow_4017_69862"/>
<feBlend mode="normal" in="SourceGraphic" in2="effect1_dropShadow_4017_69862" result="shape"/>
</filter>
<filter id="filter2_ddd_4017_69862" x="107.625" y="223.666" width="45" height="45" filterUnits="userSpaceOnUse" color-interpolation-filters="sRGB">
<feFlood flood-opacity="0" result="BackgroundImageFix"/>
<feColorMatrix in="SourceAlpha" type="matrix" values="0 0 0 0 0 0 0 0 0 0 0 0 0 0 0 0 0 0 127 0" result="hardAlpha"/>
<feOffset dy="3"/>
<feGaussianBlur stdDeviation="0.5"/>
<feColorMatrix type="matrix" values="0 0 0 0 0 0 0 0 0 0 0 0 0 0 0 0 0 0 0.1 0"/>
<feBlend mode="normal" in2="BackgroundImageFix" result="effect1_dropShadow_4017_69862"/>
<feColorMatrix in="SourceAlpha" type="matrix" values="0 0 0 0 0 0 0 0 0 0 0 0 0 0 0 0 0 0 127 0" result="hardAlpha"/>
<feOffset dy="1"/>
<feGaussianBlur stdDeviation="0.5"/>
<feColorMatrix type="matrix" values="0 0 0 0 0 0 0 0 0 0 0 0 0 0 0 0 0 0 0.16 0"/>
<feBlend mode="normal" in2="effect1_dropShadow_4017_69862" result="effect2_dropShadow_4017_69862"/>
<feColorMatrix in="SourceAlpha" type="matrix" values="0 0 0 0 0 0 0 0 0 0 0 0 0 0 0 0 0 0 127 0" result="hardAlpha"/>
<feOffset dy="3"/>
<feGaussianBlur stdDeviation="4"/>
<feColorMatrix type="matrix" values="0 0 0 0 0 0 0 0 0 0 0 0 0 0 0 0 0 0 0.15 0"/>
<feBlend mode="normal" in2="effect2_dropShadow_4017_69862" result="effect3_dropShadow_4017_69862"/>
<feBlend mode="normal" in="SourceGraphic" in2="effect3_dropShadow_4017_69862" result="shape"/>
</filter>
<filter id="filter3_di_4017_69862" x="78" y="74" width="393.75" height="132" filterUnits="userSpaceOnUse" color-interpolation-filters="sRGB">
<feFlood flood-opacity="0" result="BackgroundImageFix"/>
<feColorMatrix in="SourceAlpha" type="matrix" values="0 0 0 0 0 0 0 0 0 0 0 0 0 0 0 0 0 0 127 0" result="hardAlpha"/>
<feOffset dy="4"/>
<feGaussianBlur stdDeviation="8"/>
<feComposite in2="hardAlpha" operator="out"/>
<feColorMatrix type="matrix" values="0 0 0 0 0.352941 0 0 0 0 0.423529 0 0 0 0 0.552941 0 0 0 1 0"/>
<feBlend mode="normal" in2="BackgroundImageFix" result="effect1_dropShadow_4017_69862"/>
<feBlend mode="normal" in="SourceGraphic" in2="effect1_dropShadow_4017_69862" result="shape"/>
<feColorMatrix in="SourceAlpha" type="matrix" values="0 0 0 0 0 0 0 0 0 0 0 0 0 0 0 0 0 0 127 0" result="hardAlpha"/>
<feOffset dx="1"/>
<feGaussianBlur stdDeviation="2.3"/>
<feComposite in2="hardAlpha" operator="arithmetic" k2="-1" k3="1"/>
<feColorMatrix type="matrix" values="0 0 0 0 0.556863 0 0 0 0 0.615686 0 0 0 0 0.737255 0 0 0 1 0"/>
<feBlend mode="normal" in2="shape" result="effect2_innerShadow_4017_69862"/>
</filter>
<filter id="filter4_dddi_4017_69862" x="242.5" y="266.5" width="61" height="61" filterUnits="userSpaceOnUse" color-interpolation-filters="sRGB">
<feFlood flood-opacity="0" result="BackgroundImageFix"/>
<feColorMatrix in="SourceAlpha" type="matrix" values="0 0 0 0 0 0 0 0 0 0 0 0 0 0 0 0 0 0 127 0" result="hardAlpha"/>
<feOffset dy="3"/>
<feGaussianBlur stdDeviation="0.5"/>
<feColorMatrix type="matrix" values="0 0 0 0 0 0 0 0 0 0 0 0 0 0 0 0 0 0 0.1 0"/>
<feBlend mode="normal" in2="BackgroundImageFix" result="effect1_dropShadow_4017_69862"/>
<feColorMatrix in="SourceAlpha" type="matrix" values="0 0 0 0 0 0 0 0 0 0 0 0 0 0 0 0 0 0 127 0" result="hardAlpha"/>
<feOffset dy="1"/>
<feGaussianBlur stdDeviation="0.5"/>
<feColorMatrix type="matrix" values="0 0 0 0 0 0 0 0 0 0 0 0 0 0 0 0 0 0 0.16 0"/>
<feBlend mode="normal" in2="effect1_dropShadow_4017_69862" result="effect2_dropShadow_4017_69862"/>
<feColorMatrix in="SourceAlpha" type="matrix" values="0 0 0 0 0 0 0 0 0 0 0 0 0 0 0 0 0 0 127 0" result="hardAlpha"/>
<feOffset dy="3"/>
<feGaussianBlur stdDeviation="4"/>
<feColorMatrix type="matrix" values="0 0 0 0 0 0 0 0 0 0 0 0 0 0 0 0 0 0 0.15 0"/>
<feBlend mode="normal" in2="effect2_dropShadow_4017_69862" result="effect3_dropShadow_4017_69862"/>
<feBlend mode="normal" in="SourceGraphic" in2="effect3_dropShadow_4017_69862" result="shape"/>
<feColorMatrix in="SourceAlpha" type="matrix" values="0 0 0 0 0 0 0 0 0 0 0 0 0 0 0 0 0 0 127 0" result="hardAlpha"/>
<feOffset dy="-2"/>
<feGaussianBlur stdDeviation="0.4"/>
<feComposite in2="hardAlpha" operator="arithmetic" k2="-1" k3="1"/>
<feColorMatrix type="matrix" values="0 0 0 0 0.945098 0 0 0 0 0.956863 0 0 0 0 0.968627 0 0 0 1 0"/>
<feBlend mode="normal" in2="shape" result="effect4_innerShadow_4017_69862"/>
</filter>
<filter id="filter5_i_4017_69862" x="228" y="89" width="90" height="94" filterUnits="userSpaceOnUse" color-interpolation-filters="sRGB">
<feFlood flood-opacity="0" result="BackgroundImageFix"/>
<feBlend mode="normal" in="SourceGraphic" in2="BackgroundImageFix" result="shape"/>
<feColorMatrix in="SourceAlpha" type="matrix" values="0 0 0 0 0 0 0 0 0 0 0 0 0 0 0 0 0 0 127 0" result="hardAlpha"/>
<feOffset dy="4"/>
<feGaussianBlur stdDeviation="2.1"/>
<feComposite in2="hardAlpha" operator="arithmetic" k2="-1" k3="1"/>
<feColorMatrix type="matrix" values="0 0 0 0 0.352941 0 0 0 0 0.423529 0 0 0 0 0.552941 0 0 0 1 0"/>
<feBlend mode="normal" in2="shape" result="effect1_innerShadow_4017_69862"/>
</filter>
<filter id="filter6_d_4017_69862" x="0" y="203" width="141" height="108" filterUnits="userSpaceOnUse" color-interpolation-filters="sRGB">
<feFlood flood-opacity="0" result="BackgroundImageFix"/>
<feColorMatrix in="SourceAlpha" type="matrix" values="0 0 0 0 0 0 0 0 0 0 0 0 0 0 0 0 0 0 127 0" result="hardAlpha"/>
<feOffset dy="12"/>
<feGaussianBlur stdDeviation="18"/>
<feColorMatrix type="matrix" values="0 0 0 0 0 0 0 0 0 0 0 0 0 0 0 0 0 0 0.22 0"/>
<feBlend mode="normal" in2="BackgroundImageFix" result="effect1_dropShadow_4017_69862"/>
<feBlend mode="normal" in="SourceGraphic" in2="effect1_dropShadow_4017_69862" result="shape"/>
</filter>
<linearGradient id="paint0_linear_4017_69862" x1="273" y1="141.75" x2="273" y2="273" gradientUnits="userSpaceOnUse">
<stop offset="0.455" stop-color="#8493B3"/>
<stop offset="1" stop-color="#353B46"/>
</linearGradient>
<clipPath id="clip0_4017_69862">
<rect width="63" height="36" rx="6" transform="matrix(0.866025 0.5 -0.866025 0.5 594.371 403)" fill="white"/>
</clipPath>
</defs>
</svg>
