<svg width="554" height="429" viewBox="0 0 554 429" fill="none" xmlns="http://www.w3.org/2000/svg">
<path d="M103.13 390.157L84.4404 422.589L71.301 384.22L45.2172 429.483L20.5082 415.309L46.5919 370.046L6.85527 377.83L25.6855 345.36L84.2411 333.136L103.13 390.157Z" fill="url(#paint0_linear_4015_69861)" fill-opacity="0.25"/>
<path d="M31.4901 335.804L5 309.357L45.4629 306.596L8.4932 269.686L28.5791 249.488L65.5487 286.397L68.3142 246L94.8043 272.593L91.4566 332.317L31.4901 335.804Z" fill="url(#paint1_linear_4015_69861)" fill-opacity="0.25"/>
<path d="M445.86 426.683L376.219 406.467L442.358 364.055L345.167 335.842L360.445 282.815L457.637 311.028L424.671 239.848L494.448 260.311L544.443 364.854L445.86 426.683Z" fill="url(#paint2_linear_4015_69861)" fill-opacity="0.25"/>
<path d="M209.602 342.417L245.366 331.366L228.888 368.424L278.8 353.002L287.264 380.201L237.352 395.624L271.769 416.956L235.876 427.939L184.647 397.056L209.602 342.417Z" fill="url(#paint3_linear_4015_69861)" fill-opacity="0.25"/>
<path d="M257.6 317.4L225.198 336.142L233.004 296.343L187.783 322.5L173.471 297.871L218.692 271.714L180.387 258.587L212.929 239.883L269.752 258.574L257.6 317.4Z" fill="url(#paint4_linear_4015_69861)" fill-opacity="0.25"/>
<path d="M204.942 195.571L189.033 229.454L172.727 192.319L150.524 239.606L124.715 227.551L146.919 180.263L107.973 191.347L124.019 157.414L181.346 140.331L204.942 195.571Z" fill="url(#paint5_linear_4015_69861)" fill-opacity="0.25"/>
<path d="M95.856 367.831L114.546 335.398L127.685 373.768L153.769 328.505L178.478 342.678L152.394 387.941L192.131 380.157L173.301 412.627L114.745 424.851L95.856 367.831Z" fill="url(#paint6_linear_4015_69861)" fill-opacity="0.25"/>
<path d="M175.915 248.337L191.513 282.364L152.63 270.835L174.399 318.324L148.528 330.245L126.759 282.756L110.073 319.65L94.5251 285.486L118.5 230.683L175.915 248.337Z" fill="url(#paint7_linear_4015_69861)" fill-opacity="0.25"/>
<path d="M312.352 114.246L335.121 163.918L278.361 147.087L310.138 216.409L272.373 233.811L240.596 164.489L216.239 218.345L193.544 168.475L228.541 88.4764L312.352 114.246Z" fill="url(#paint8_linear_4015_69861)" fill-opacity="0.25"/>
<path d="M188.352 136.345L211.121 86.6733L154.361 103.504L186.138 34.1821L148.373 16.7798L116.596 86.1014L92.2389 32.2457L69.5436 82.1159L104.541 162.114L188.352 136.345Z" fill="url(#paint9_linear_4015_69861)" fill-opacity="0.25"/>
<path d="M347.667 243.09L363.265 277.117L324.382 265.588L346.15 313.077L320.28 324.998L298.511 277.509L281.825 314.403L266.277 280.239L290.252 225.436L347.667 243.09Z" fill="url(#paint10_linear_4015_69861)" fill-opacity="0.25"/>
<path d="M27.0907 166.825L61.1183 151.227L49.5885 190.111L97.0775 168.342L108.999 194.213L61.5101 215.982L98.4041 232.668L64.2403 248.215L9.43709 224.24L27.0907 166.825Z" fill="url(#paint11_linear_4015_69861)" fill-opacity="0.25"/>
<path d="M83.916 116.407L68.2814 109.24L73.579 127.106L51.7592 117.104L46.2816 128.991L68.1014 138.993L51.1497 146.659L66.8469 153.803L92.0274 142.787L83.916 116.407Z" fill="url(#paint12_linear_4015_69861)" fill-opacity="0.25"/>
<path d="M7.14928 145.1L15.7367 160.002L21.7739 142.372L33.7586 163.169L45.1117 156.657L33.127 135.86L51.3848 139.436L42.7328 124.517L15.8283 118.901L7.14928 145.1Z" fill="url(#paint13_linear_4015_69861)" fill-opacity="0.25"/>
<path d="M505.149 411.1L513.737 426.002L519.774 408.372L531.759 429.169L543.112 422.657L531.127 401.86L549.385 405.436L540.733 390.517L513.828 384.901L505.149 411.1Z" fill="url(#paint14_linear_4015_69861)" fill-opacity="0.25"/>
<path d="M15.1493 94.4361L23.7367 79.5344L29.7739 97.164L41.7586 76.3671L53.1117 82.8795L41.127 103.676L59.3848 100.1L50.7328 115.019L23.8283 120.635L15.1493 94.4361Z" fill="url(#paint15_linear_4015_69861)" fill-opacity="0.25"/>
<path d="M375.652 357.166L380.846 394.236L346.896 372.048L354.145 423.783L325.943 427.792L318.694 376.057L292.136 406.623L287.03 369.436L325.702 323.801L375.652 357.166Z" fill="url(#paint16_linear_4015_69861)" fill-opacity="0.25"/>
<g filter="url(#filter0_ddd_4015_69861)">
<path fill-rule="evenodd" clip-rule="evenodd" d="M377 279C384.732 279 391 272.732 391 265C391 257.268 384.732 251 377 251C369.268 251 363 257.268 363 265C363 272.732 369.268 279 377 279Z" fill="#353B46"/>
<path d="M377 279.25C384.87 279.25 391.25 272.87 391.25 265C391.25 257.13 384.87 250.75 377 250.75C369.13 250.75 362.75 257.13 362.75 265C362.75 272.87 369.13 279.25 377 279.25Z" stroke="black" stroke-opacity="0.04" stroke-width="0.5"/>
</g>
<rect x="346" y="183" width="62" height="48" rx="24" fill="#353B46"/>
<path d="M368.557 213V210.88H363.261V209.528L367.061 201.48H368.677L364.877 209.528H368.557V206.288H369.997V209.528H371.197V210.88H369.997V213H368.557ZM377 213.24C376.254 213.24 375.587 213.072 375 212.736C374.419 212.395 373.958 211.933 373.616 211.352C373.28 210.765 373.112 210.099 373.112 209.352V205.128C373.112 204.381 373.28 203.715 373.616 203.128C373.958 202.541 374.419 202.08 375 201.744C375.587 201.408 376.254 201.24 377 201.24C377.747 201.24 378.414 201.408 379 201.744C379.587 202.08 380.048 202.541 380.384 203.128C380.72 203.715 380.888 204.381 380.888 205.128V209.352C380.888 210.099 380.72 210.765 380.384 211.352C380.048 211.933 379.587 212.395 379 212.736C378.414 213.072 377.747 213.24 377 213.24ZM377 211.872C377.454 211.872 377.864 211.763 378.232 211.544C378.6 211.325 378.894 211.032 379.112 210.664C379.331 210.291 379.44 209.88 379.44 209.432V205.04C379.44 204.587 379.331 204.176 379.112 203.808C378.894 203.44 378.6 203.147 378.232 202.928C377.864 202.709 377.454 202.6 377 202.6C376.552 202.6 376.142 202.709 375.768 202.928C375.4 203.147 375.107 203.44 374.888 203.808C374.67 204.176 374.56 204.587 374.56 205.04V209.432C374.56 209.88 374.67 210.291 374.888 210.664C375.107 211.032 375.4 211.325 375.768 211.544C376.142 211.763 376.552 211.872 377 211.872ZM388.104 213V210.88H382.808V209.528L386.608 201.48H388.224L384.424 209.528H388.104V206.288H389.544V209.528H390.744V210.88H389.544V213H388.104Z" fill="white"/>
<path fill-rule="evenodd" clip-rule="evenodd" d="M375 230H379V252H375V230Z" fill="#353B46"/>
<defs>
<filter id="filter0_ddd_4015_69861" x="354.5" y="245.5" width="45" height="45" filterUnits="userSpaceOnUse" color-interpolation-filters="sRGB">
<feFlood flood-opacity="0" result="BackgroundImageFix"/>
<feColorMatrix in="SourceAlpha" type="matrix" values="0 0 0 0 0 0 0 0 0 0 0 0 0 0 0 0 0 0 127 0" result="hardAlpha"/>
<feOffset dy="3"/>
<feGaussianBlur stdDeviation="0.5"/>
<feColorMatrix type="matrix" values="0 0 0 0 0 0 0 0 0 0 0 0 0 0 0 0 0 0 0.1 0"/>
<feBlend mode="normal" in2="BackgroundImageFix" result="effect1_dropShadow_4015_69861"/>
<feColorMatrix in="SourceAlpha" type="matrix" values="0 0 0 0 0 0 0 0 0 0 0 0 0 0 0 0 0 0 127 0" result="hardAlpha"/>
<feOffset dy="1"/>
<feGaussianBlur stdDeviation="0.5"/>
<feColorMatrix type="matrix" values="0 0 0 0 0 0 0 0 0 0 0 0 0 0 0 0 0 0 0.16 0"/>
<feBlend mode="normal" in2="effect1_dropShadow_4015_69861" result="effect2_dropShadow_4015_69861"/>
<feColorMatrix in="SourceAlpha" type="matrix" values="0 0 0 0 0 0 0 0 0 0 0 0 0 0 0 0 0 0 127 0" result="hardAlpha"/>
<feOffset dy="3"/>
<feGaussianBlur stdDeviation="4"/>
<feColorMatrix type="matrix" values="0 0 0 0 0 0 0 0 0 0 0 0 0 0 0 0 0 0 0.15 0"/>
<feBlend mode="normal" in2="effect2_dropShadow_4015_69861" result="effect3_dropShadow_4015_69861"/>
<feBlend mode="normal" in="SourceGraphic" in2="effect3_dropShadow_4015_69861" result="shape"/>
</filter>
<linearGradient id="paint0_linear_4015_69861" x1="11.6207" y1="395.615" x2="98.3649" y2="372.372" gradientUnits="userSpaceOnUse">
<stop offset="0.59" stop-color="#8F8F8F"/>
<stop offset="1" stop-color="white"/>
</linearGradient>
<linearGradient id="paint1_linear_4015_69861" x1="49.9021" y1="246" x2="49.9021" y2="335.804" gradientUnits="userSpaceOnUse">
<stop offset="0.59" stop-color="#8F8F8F"/>
<stop offset="1" stop-color="white"/>
</linearGradient>
<linearGradient id="paint2_linear_4015_69861" x1="393.404" y1="257.013" x2="477.127" y2="409.517" gradientUnits="userSpaceOnUse">
<stop offset="0.59" stop-color="#8F8F8F"/>
<stop offset="1" stop-color="white"/>
</linearGradient>
<linearGradient id="paint3_linear_4015_69861" x1="280.377" y1="400.68" x2="200.993" y2="358.692" gradientUnits="userSpaceOnUse">
<stop offset="0.59" stop-color="#8F8F8F"/>
<stop offset="1" stop-color="white"/>
</linearGradient>
<linearGradient id="paint4_linear_4015_69861" x1="175.622" y1="276.372" x2="262.366" y2="299.615" gradientUnits="userSpaceOnUse">
<stop offset="0.59" stop-color="#8F8F8F"/>
<stop offset="1" stop-color="white"/>
</linearGradient>
<linearGradient id="paint5_linear_4015_69861" x1="114.211" y1="208.67" x2="198.705" y2="178.247" gradientUnits="userSpaceOnUse">
<stop offset="0.59" stop-color="#8F8F8F"/>
<stop offset="1" stop-color="white"/>
</linearGradient>
<linearGradient id="paint6_linear_4015_69861" x1="187.366" y1="362.372" x2="100.621" y2="385.615" gradientUnits="userSpaceOnUse">
<stop offset="0.59" stop-color="#8F8F8F"/>
<stop offset="1" stop-color="white"/>
</linearGradient>
<linearGradient id="paint7_linear_4015_69861" x1="127.328" y1="326.074" x2="158.66" y2="241.913" gradientUnits="userSpaceOnUse">
<stop offset="0.59" stop-color="#8F8F8F"/>
<stop offset="1" stop-color="white"/>
</linearGradient>
<linearGradient id="paint8_linear_4015_69861" x1="241.427" y1="227.722" x2="287.164" y2="104.869" gradientUnits="userSpaceOnUse">
<stop offset="0.59" stop-color="#8F8F8F"/>
<stop offset="1" stop-color="white"/>
</linearGradient>
<linearGradient id="paint9_linear_4015_69861" x1="117.427" y1="22.8685" x2="163.164" y2="145.722" gradientUnits="userSpaceOnUse">
<stop offset="0.59" stop-color="#8F8F8F"/>
<stop offset="1" stop-color="white"/>
</linearGradient>
<linearGradient id="paint10_linear_4015_69861" x1="299.08" y1="320.827" x2="330.412" y2="236.666" gradientUnits="userSpaceOnUse">
<stop offset="0.59" stop-color="#8F8F8F"/>
<stop offset="1" stop-color="white"/>
</linearGradient>
<linearGradient id="paint11_linear_4015_69861" x1="104.828" y1="215.413" x2="20.6669" y2="184.08" gradientUnits="userSpaceOnUse">
<stop offset="0.59" stop-color="#8F8F8F"/>
<stop offset="1" stop-color="white"/>
</linearGradient>
<linearGradient id="paint12_linear_4015_69861" x1="48.1981" y1="138.731" x2="86.8676" y2="124.335" gradientUnits="userSpaceOnUse">
<stop offset="0.59" stop-color="#8F8F8F"/>
<stop offset="1" stop-color="white"/>
</linearGradient>
<linearGradient id="paint13_linear_4015_69861" x1="49.1952" y1="147.608" x2="9.33884" y2="136.928" gradientUnits="userSpaceOnUse">
<stop offset="0.59" stop-color="#8F8F8F"/>
<stop offset="1" stop-color="white"/>
</linearGradient>
<linearGradient id="paint14_linear_4015_69861" x1="547.195" y1="413.608" x2="507.339" y2="402.928" gradientUnits="userSpaceOnUse">
<stop offset="0.59" stop-color="#8F8F8F"/>
<stop offset="1" stop-color="white"/>
</linearGradient>
<linearGradient id="paint15_linear_4015_69861" x1="57.1952" y1="91.9282" x2="17.3388" y2="102.608" gradientUnits="userSpaceOnUse">
<stop offset="0.59" stop-color="#8F8F8F"/>
<stop offset="1" stop-color="white"/>
</linearGradient>
<linearGradient id="paint16_linear_4015_69861" x1="306.827" y1="417.721" x2="360.961" y2="346.067" gradientUnits="userSpaceOnUse">
<stop offset="0.59" stop-color="#8F8F8F"/>
<stop offset="1" stop-color="white"/>
</linearGradient>
</defs>
</svg>
