<svg width="158" height="144" viewBox="0 0 158 144" fill="none" xmlns="http://www.w3.org/2000/svg">
<g filter="url(#filter0_ddd_4024_69870)">
<path fill-rule="evenodd" clip-rule="evenodd" d="M28.0962 47.75C33.1183 50.6495 41.2606 50.6495 46.2827 47.75C51.3048 44.8505 51.3048 40.1495 46.2827 37.25C41.2606 34.3505 33.1183 34.3505 28.0962 37.25C23.0741 40.1495 23.0741 44.8505 28.0962 47.75Z" fill="#353B46"/>
<path d="M27.9338 47.8438C33.0456 50.795 41.3333 50.795 46.4451 47.8438C51.5569 44.8925 51.5569 40.1075 46.4451 37.1562C41.3333 34.205 33.0456 34.205 27.9338 37.1563C22.8221 40.1075 22.8221 44.8925 27.9338 47.8438Z" stroke="black" stroke-opacity="0.04" stroke-width="0.375"/>
</g>
<rect width="46" height="36" rx="18" transform="matrix(0.866025 0.5 -0.866025 0.5 70.9648 0.5)" fill="#353B46"/>
<path d="M65.9137 20.0839L67.2907 19.2889L63.8508 17.3029L64.729 16.7959L72.4245 15.2029L73.4741 15.8089L65.7786 17.4019L68.1688 18.7819L70.2733 17.5669L71.2086 18.1069L69.1042 19.3219L69.8836 19.7719L69.0054 20.2789L68.226 19.8289L66.849 20.6239L65.9137 20.0839ZM71.2419 23.3401C70.7569 23.0601 70.433 22.7471 70.2702 22.4011C70.1143 22.0551 70.1143 21.7091 70.2702 21.3631C70.433 21.0171 70.7569 20.7041 71.2419 20.4241L73.9855 18.8401C74.4704 18.5601 75.0126 18.3731 75.6118 18.2791C76.2146 18.1871 76.8139 18.1871 77.4097 18.2791C78.009 18.3731 78.5511 18.5601 79.0361 18.8401C79.5211 19.1201 79.845 19.4331 80.0078 19.7791C80.1706 20.1251 80.1706 20.4711 80.0078 20.8171C79.845 21.1631 79.5211 21.4761 79.0361 21.7561L76.2925 23.3401C75.8076 23.6201 75.2654 23.8071 74.6661 23.9011C74.0703 23.9931 73.471 23.9931 72.8683 23.9011C72.269 23.8071 71.7269 23.6201 71.2419 23.3401ZM72.1304 22.8271C72.4249 22.9971 72.7626 23.1101 73.1437 23.1661C73.5247 23.2221 73.9058 23.2221 74.2868 23.1661C74.6713 23.1081 75.0091 22.9951 75.3001 22.8271L78.1528 21.1801C78.4472 21.0101 78.6429 20.8151 78.7399 20.5951C78.8369 20.3751 78.8369 20.1551 78.7399 19.9351C78.6429 19.7151 78.4472 19.5201 78.1528 19.3501C77.8618 19.1821 77.524 19.0691 77.1395 19.0111C76.7585 18.9551 76.3774 18.9551 75.9964 19.0111C75.6153 19.0671 75.2776 19.1801 74.9831 19.3501L72.1304 20.9971C71.8394 21.1651 71.6437 21.3601 71.5433 21.5821C71.4463 21.8021 71.4463 22.0221 71.5433 22.2421C71.6437 22.4641 71.8394 22.6591 72.1304 22.8271ZM78.6098 27.4139L79.9868 26.6189L76.5469 24.6329L77.4251 24.1259L85.1206 22.5329L86.1702 23.1389L78.4747 24.7319L80.8649 26.1119L82.9694 24.8969L83.9047 25.4369L81.8002 26.6519L82.5796 27.1019L81.7015 27.6089L80.9221 27.1589L79.5451 27.9539L78.6098 27.4139Z" fill="white"/>
<path fill-rule="evenodd" clip-rule="evenodd" d="M59.0566 28.875L61.6547 30.375L47.3653 38.625L44.7672 37.125L59.0566 28.875Z" fill="#353B46"/>
<g filter="url(#filter1_d_4024_69870)">
<path d="M46.5901 52L46.5901 58L56.9824 52L46.5901 52Z" fill="#353B46"/>
<g clip-path="url(#clip0_4024_69870)">
<rect width="63" height="36" rx="6" transform="matrix(0.866025 0.5 -0.866025 0.5 67.373 46)" fill="#353B46"/>
<path d="M59.3493 63.3675L65.8965 59.5875L68.4835 61.0811C68.5472 61.1179 68.6199 61.1634 68.7017 61.2176C68.7866 61.2701 68.8624 61.3244 68.9291 61.3804C69.2292 61.6166 69.405 61.8581 69.4565 62.1049C69.511 62.3534 69.455 62.5958 69.2883 62.832C69.1246 63.0665 68.8685 63.2844 68.5199 63.4856C68.0137 63.7779 67.4423 63.9555 66.8058 64.0185C66.1723 64.0798 65.554 63.9905 64.9508 63.7508L64.5916 63.6011L62.5774 62.4383L60.1586 63.8348L59.3493 63.3675ZM63.2458 65.6171L64.6189 63.3334L65.6646 63.6536L64.1733 66.1526L63.2458 65.6171ZM63.3458 61.9946L65.0963 63.0053C65.1539 63.0385 65.2221 63.0744 65.3009 63.1129C65.3827 63.1531 65.4645 63.1881 65.5464 63.2179C65.804 63.3106 66.0617 63.3579 66.3193 63.3596C66.583 63.3614 66.8316 63.3299 67.065 63.2651C67.3014 63.1986 67.5105 63.1129 67.6924 63.0079C67.8743 62.9029 68.0213 62.783 68.1334 62.6483C68.2486 62.5118 68.3047 62.3674 68.3016 62.2151C68.3016 62.0646 68.2198 61.9159 68.0561 61.7689C68.0076 61.7199 67.947 61.6726 67.8743 61.6271C67.8076 61.5816 67.7454 61.5423 67.6878 61.509L65.9374 60.4984L63.3458 61.9946ZM67.1661 68.038C66.6842 67.7598 66.3689 67.4553 66.2204 67.1245C66.078 66.7938 66.0977 66.4604 66.2795 66.1244C66.4644 65.7867 66.813 65.4699 67.3253 65.1742C67.8618 64.8644 68.424 64.6535 69.0121 64.5415C69.6031 64.4278 70.1805 64.4112 70.7443 64.4917C71.3142 64.5722 71.837 64.7498 72.3129 65.0245C72.807 65.3098 73.1131 65.6178 73.2313 65.9485C73.3526 66.281 73.2889 66.6188 73.0404 66.9618C72.7949 67.3065 72.369 67.6399 71.7628 67.9619L70.9444 67.4894L71.2354 67.3214C71.8295 66.9679 72.1568 66.6372 72.2174 66.3292C72.2811 66.0194 72.0795 65.7298 71.6127 65.4603C71.1126 65.1715 70.5715 65.0447 69.9896 65.0797C69.4076 65.1147 68.8165 65.3054 68.2164 65.6519C67.6375 65.9862 67.3192 66.3204 67.2616 66.6547C67.204 66.9889 67.4162 67.2952 67.8981 67.5734C68.2225 67.7607 68.5786 67.8805 68.9666 67.933C69.3546 67.9855 69.7562 67.9707 70.1714 67.8884L70.6807 68.4922C70.0563 68.6322 69.4319 68.6602 68.8075 68.5762C68.1891 68.4922 67.642 68.3128 67.1661 68.038ZM67.7163 65.6257L68.3664 65.2503L71.9946 67.345L71.3445 67.7204L67.7163 65.6257ZM71.0155 70.103L76.1941 67.1131C76.3214 67.0396 76.4563 66.9687 76.5988 66.9005C76.7442 66.8305 76.9003 66.7718 77.0671 66.7246C77.2368 66.6756 77.4232 66.6485 77.6263 66.6432C77.8627 66.6362 78.0734 66.6563 78.2583 66.7036C78.4462 66.7491 78.6144 66.8077 78.7629 66.8795C78.9145 66.953 79.0524 67.0256 79.1767 67.0973L79.7996 67.457L79.1267 67.8455L78.5493 67.5121C78.3098 67.3738 78.0719 67.3047 77.8354 67.3047C77.602 67.303 77.3671 67.3703 77.1307 67.5068L71.8248 70.5702L71.0155 70.103ZM74.4255 67.1735L75.0938 66.7876L78.0264 68.4807L77.358 68.8666L74.4255 67.1735ZM73.8417 71.7347L78.7521 68.8997L79.475 69.3171L78.2883 70.0022L78.3247 69.8447C78.5338 69.7904 78.7475 69.7528 78.9658 69.7318C79.187 69.7126 79.3962 69.7126 79.5932 69.7318C79.8236 69.7458 80.0464 69.7834 80.2616 69.8447C80.4768 69.9059 80.6723 69.9821 80.8481 70.0731C81.0269 70.1623 81.1724 70.2586 81.2846 70.3618L80.5253 70.8002C80.401 70.6759 80.2267 70.5613 80.0024 70.4563C79.7781 70.3513 79.5159 70.2857 79.2158 70.2594C78.9461 70.2332 78.6869 70.2411 78.4384 70.2831C78.1928 70.3268 77.9594 70.3933 77.7382 70.4826C77.5199 70.5701 77.3138 70.6698 77.1198 70.7818L74.6556 72.2046L73.8417 71.7347ZM79.1366 74.9492C78.6546 74.6709 78.3394 74.3664 78.1909 74.0357C78.0484 73.7049 78.0681 73.3715 78.25 73.0355C78.4349 72.6978 78.7834 72.381 79.2957 72.0853C79.8322 71.7755 80.3945 71.5647 80.9825 71.4527C81.5735 71.3389 82.151 71.3223 82.7148 71.4028C83.2846 71.4833 83.8075 71.6609 84.2833 71.9357C84.7774 72.2209 85.0836 72.5289 85.2018 72.8597C85.323 73.1922 85.2594 73.5299 85.0108 73.8729C84.7653 74.2177 84.3394 74.551 83.7332 74.873L82.9148 74.4005L83.2058 74.2325C83.7999 73.879 84.1272 73.5483 84.1879 73.2403C84.2515 72.9305 84.0499 72.6409 83.5832 72.3714C83.083 72.0827 82.542 71.9558 81.96 71.9908C81.378 72.0258 80.787 72.2165 80.1868 72.563C79.6079 72.8973 79.2896 73.2315 79.232 73.5658C79.1744 73.9 79.3866 74.2063 79.8686 74.4845C80.1929 74.6718 80.549 74.7917 80.937 74.8442C81.325 74.8967 81.7266 74.8818 82.1419 74.7995L82.6511 75.4033C82.0267 75.5433 81.4023 75.5713 80.7779 75.4873C80.1595 75.4033 79.6124 75.2239 79.1366 74.9492ZM79.6867 72.5368L80.3369 72.1614L83.9651 74.2562L83.3149 74.6315L79.6867 72.5368ZM84.2408 77.8908C83.6558 77.5531 83.3027 77.2022 83.1814 76.8382C83.0662 76.4742 83.1966 76.1347 83.5724 75.8197L84.5318 76.2213C84.3317 76.4138 84.2726 76.6247 84.3545 76.854C84.4393 77.0815 84.6591 77.2976 85.0137 77.5023C85.3502 77.6966 85.6836 77.8086 86.014 77.8383C86.3444 77.8681 86.6293 77.8138 86.8687 77.6756C87.0082 77.5951 87.0885 77.512 87.1097 77.4262C87.134 77.3387 87.084 77.2153 86.9597 77.0561C86.8384 76.8986 86.6308 76.6737 86.3368 76.3815C86.0185 76.0647 85.7973 75.7987 85.673 75.5835C85.5487 75.3682 85.5154 75.1827 85.573 75.027C85.6305 74.8712 85.776 74.726 86.0094 74.5912C86.2974 74.425 86.6278 74.3252 87.0006 74.292C87.3765 74.257 87.7644 74.2867 88.1645 74.3812C88.5677 74.4775 88.9572 74.6341 89.333 74.8511C89.7058 75.0663 89.9802 75.293 90.156 75.531C90.3318 75.769 90.4 76.0026 90.3606 76.2318C90.3272 76.4611 90.1832 76.6685 89.9286 76.854L88.9511 76.4628C89.1754 76.2878 89.2557 76.0945 89.1921 75.8827C89.1315 75.6727 88.9375 75.468 88.6101 75.2685C88.304 75.0777 87.9887 74.9605 87.6644 74.9167C87.3431 74.8747 87.0764 74.915 86.8642 75.0375C86.746 75.1057 86.6808 75.1853 86.6687 75.2763C86.6596 75.3691 86.7172 75.4951 86.8415 75.6543C86.9688 75.8153 87.1764 76.035 87.4644 76.3132C87.7887 76.6265 88.0099 76.8925 88.1282 77.1112C88.2524 77.33 88.2797 77.5207 88.21 77.6835C88.1433 77.8445 87.9827 77.9985 87.7281 78.1455C87.2552 78.4185 86.7081 78.5331 86.0867 78.4893C85.4684 78.4438 84.8531 78.2443 84.2408 77.8908ZM90.8359 81.5463L93.2956 80.1262C93.529 79.9914 93.7321 79.8497 93.9049 79.7009C94.0807 79.5539 94.2019 79.4017 94.2686 79.2442C94.3413 79.0867 94.3413 78.9292 94.2686 78.7717C94.1989 78.6159 94.0337 78.4628 93.773 78.3123C93.5699 78.195 93.3502 78.1084 93.1138 78.0524C92.8834 77.9964 92.6394 77.9745 92.3817 77.9868C92.1241 77.999 91.8559 78.0472 91.577 78.1312C91.3042 78.2152 91.0253 78.3394 90.7404 78.5039L90.3721 78.1023C90.848 77.8275 91.3406 77.6412 91.8498 77.5432C92.3651 77.4452 92.8682 77.4329 93.3593 77.5064C93.8564 77.5799 94.3156 77.7383 94.7369 77.9815C95.0552 78.1653 95.2764 78.3508 95.4007 78.538C95.525 78.7253 95.578 78.9099 95.5598 79.0919C95.5447 79.2722 95.4765 79.4463 95.3552 79.6143C95.237 79.7805 95.0885 79.9345 94.9097 80.0763C94.7369 80.218 94.5566 80.3432 94.3686 80.4517L91.6543 82.0188L90.8359 81.5463ZM87.335 79.525L93.8821 75.745L94.6096 76.165L90.995 78.2519L91.086 78.3044L88.1534 79.9975L87.335 79.525Z" fill="white"/>
</g>
</g>
<defs>
<filter id="filter0_ddd_4024_69870" x="17.8711" y="31.0605" width="38.6367" height="27.3789" filterUnits="userSpaceOnUse" color-interpolation-filters="sRGB">
<feFlood flood-opacity="0" result="BackgroundImageFix"/>
<feColorMatrix in="SourceAlpha" type="matrix" values="0 0 0 0 0 0 0 0 0 0 0 0 0 0 0 0 0 0 127 0" result="hardAlpha"/>
<feOffset dy="2.25"/>
<feGaussianBlur stdDeviation="0.375"/>
<feColorMatrix type="matrix" values="0 0 0 0 0 0 0 0 0 0 0 0 0 0 0 0 0 0 0.1 0"/>
<feBlend mode="normal" in2="BackgroundImageFix" result="effect1_dropShadow_4024_69870"/>
<feColorMatrix in="SourceAlpha" type="matrix" values="0 0 0 0 0 0 0 0 0 0 0 0 0 0 0 0 0 0 127 0" result="hardAlpha"/>
<feOffset dy="0.75"/>
<feGaussianBlur stdDeviation="0.375"/>
<feColorMatrix type="matrix" values="0 0 0 0 0 0 0 0 0 0 0 0 0 0 0 0 0 0 0.16 0"/>
<feBlend mode="normal" in2="effect1_dropShadow_4024_69870" result="effect2_dropShadow_4024_69870"/>
<feColorMatrix in="SourceAlpha" type="matrix" values="0 0 0 0 0 0 0 0 0 0 0 0 0 0 0 0 0 0 127 0" result="hardAlpha"/>
<feOffset dy="2.25"/>
<feGaussianBlur stdDeviation="3"/>
<feColorMatrix type="matrix" values="0 0 0 0 0 0 0 0 0 0 0 0 0 0 0 0 0 0 0.15 0"/>
<feBlend mode="normal" in2="effect2_dropShadow_4024_69870" result="effect3_dropShadow_4024_69870"/>
<feBlend mode="normal" in="SourceGraphic" in2="effect3_dropShadow_4024_69870" result="shape"/>
</filter>
<filter id="filter1_d_4024_69870" x="-5" y="19" width="162.934" height="124.5" filterUnits="userSpaceOnUse" color-interpolation-filters="sRGB">
<feFlood flood-opacity="0" result="BackgroundImageFix"/>
<feColorMatrix in="SourceAlpha" type="matrix" values="0 0 0 0 0 0 0 0 0 0 0 0 0 0 0 0 0 0 127 0" result="hardAlpha"/>
<feOffset dy="12"/>
<feGaussianBlur stdDeviation="18"/>
<feColorMatrix type="matrix" values="0 0 0 0 0 0 0 0 0 0 0 0 0 0 0 0 0 0 0.22 0"/>
<feBlend mode="normal" in2="BackgroundImageFix" result="effect1_dropShadow_4024_69870"/>
<feBlend mode="normal" in="SourceGraphic" in2="effect1_dropShadow_4024_69870" result="shape"/>
</filter>
<clipPath id="clip0_4024_69870">
<rect width="63" height="36" rx="6" transform="matrix(0.866025 0.5 -0.866025 0.5 67.373 46)" fill="white"/>
</clipPath>
</defs>
</svg>
