<svg width="156" height="149" viewBox="0 0 156 149" fill="none" xmlns="http://www.w3.org/2000/svg">
<g filter="url(#filter0_ddd_4024_69864)">
<path fill-rule="evenodd" clip-rule="evenodd" d="M31 96C38.732 96 45 89.732 45 82C45 74.268 38.732 68 31 68C23.268 68 17 74.268 17 82C17 89.732 23.268 96 31 96Z" fill="#353B46"/>
<path d="M31 96.25C38.8701 96.25 45.25 89.8701 45.25 82C45.25 74.1299 38.8701 67.75 31 67.75C23.1299 67.75 16.75 74.1299 16.75 82C16.75 89.8701 23.1299 96.25 31 96.25Z" stroke="black" stroke-opacity="0.04" stroke-width="0.5"/>
</g>
<rect width="62" height="48" rx="24" fill="#353B46"/>
<path d="M22.5569 30V27.88H17.2609V26.528L21.0609 18.48H22.6769L18.8769 26.528H22.5569V23.288H23.9969V26.528H25.1969V27.88H23.9969V30H22.5569ZM31.0002 30.24C30.2535 30.24 29.5869 30.072 29.0002 29.736C28.4189 29.3947 27.9575 28.9333 27.6162 28.352C27.2802 27.7653 27.1122 27.0987 27.1122 26.352V22.128C27.1122 21.3813 27.2802 20.7147 27.6162 20.128C27.9575 19.5413 28.4189 19.08 29.0002 18.744C29.5869 18.408 30.2535 18.24 31.0002 18.24C31.7469 18.24 32.4135 18.408 33.0002 18.744C33.5869 19.08 34.0482 19.5413 34.3842 20.128C34.7202 20.7147 34.8882 21.3813 34.8882 22.128V26.352C34.8882 27.0987 34.7202 27.7653 34.3842 28.352C34.0482 28.9333 33.5869 29.3947 33.0002 29.736C32.4135 30.072 31.7469 30.24 31.0002 30.24ZM31.0002 28.872C31.4535 28.872 31.8642 28.7627 32.2322 28.544C32.6002 28.3253 32.8935 28.032 33.1122 27.664C33.3309 27.2907 33.4402 26.88 33.4402 26.432V22.04C33.4402 21.5867 33.3309 21.176 33.1122 20.808C32.8935 20.44 32.6002 20.1467 32.2322 19.928C31.8642 19.7093 31.4535 19.6 31.0002 19.6C30.5522 19.6 30.1415 19.7093 29.7682 19.928C29.4002 20.1467 29.1069 20.44 28.8882 20.808C28.6695 21.176 28.5602 21.5867 28.5602 22.04V26.432C28.5602 26.88 28.6695 27.2907 28.8882 27.664C29.1069 28.032 29.4002 28.3253 29.7682 28.544C30.1415 28.7627 30.5522 28.872 31.0002 28.872ZM42.1038 30V27.88H36.8078V26.528L40.6078 18.48H42.2238L38.4238 26.528H42.1038V23.288H43.5438V26.528H44.7438V27.88H43.5438V30H42.1038Z" fill="white"/>
<path fill-rule="evenodd" clip-rule="evenodd" d="M29 47H33V69H29V47Z" fill="#353B46"/>
<g filter="url(#filter1_d_4024_69864)">
<path d="M51 83L57 89V77L51 83Z" fill="#353B46"/>
<rect x="57" y="65" width="63" height="36" rx="6" fill="#353B46"/>
<path d="M69.735 87V79.44H72.7223C72.7958 79.44 72.8833 79.4435 72.9848 79.4505C73.0863 79.454 73.1843 79.4645 73.2788 79.482C73.6883 79.545 74.0313 79.685 74.3078 79.902C74.5878 80.119 74.7978 80.3937 74.9378 80.7262C75.0778 81.0552 75.1478 81.421 75.1478 81.8235C75.1478 82.408 74.9955 82.9155 74.691 83.346C74.3865 83.773 73.9403 84.0407 73.3523 84.1492L72.9953 84.207H70.6695V87H69.735ZM74.2343 87L72.7433 83.9235L73.6673 83.64L75.3053 87H74.2343ZM70.6695 83.3197H72.6908C72.7573 83.3197 72.8325 83.3162 72.9165 83.3092C73.004 83.3022 73.0863 83.29 73.1633 83.2725C73.4048 83.2165 73.6008 83.115 73.7513 82.968C73.9053 82.8175 74.0173 82.6425 74.0873 82.443C74.1573 82.24 74.1923 82.0335 74.1923 81.8235C74.1923 81.6135 74.1573 81.4087 74.0873 81.2092C74.0173 81.0062 73.9053 80.8295 73.7513 80.679C73.6008 80.5285 73.4048 80.427 73.1633 80.3745C73.0863 80.3535 73.004 80.3412 72.9165 80.3377C72.8325 80.3307 72.7573 80.3272 72.6908 80.3272H70.6695V83.3197ZM78.9186 87.1575C78.3621 87.1575 77.8756 87.035 77.4591 86.79C77.0461 86.5415 76.7241 86.1967 76.4931 85.7557C76.2621 85.3112 76.1466 84.7932 76.1466 84.2017C76.1466 83.5822 76.2603 83.0467 76.4878 82.5952C76.7153 82.1402 77.0321 81.7902 77.4381 81.5452C77.8476 81.2967 78.3271 81.1725 78.8766 81.1725C79.4471 81.1725 79.9318 81.3037 80.3308 81.5662C80.7333 81.8287 81.0343 82.2032 81.2338 82.6897C81.4368 83.1762 81.5243 83.7555 81.4963 84.4275H80.5513V84.0915C80.5408 83.395 80.3991 82.8752 80.1261 82.5322C79.8531 82.1857 79.4471 82.0125 78.9081 82.0125C78.3306 82.0125 77.8913 82.198 77.5903 82.569C77.2893 82.94 77.1388 83.472 77.1388 84.165C77.1388 84.8335 77.2893 85.3515 77.5903 85.719C77.8913 86.0865 78.3201 86.2702 78.8766 86.2702C79.2511 86.2702 79.5766 86.1845 79.8531 86.013C80.1296 85.8415 80.3466 85.5947 80.5041 85.2727L81.4018 85.5825C81.1813 86.083 80.8488 86.4715 80.4043 86.748C79.9633 87.021 79.4681 87.1575 78.9186 87.1575ZM76.8238 84.4275V83.6767H81.0133V84.4275H76.8238ZM83.2059 87V81.0202C83.2059 80.8732 83.2129 80.7245 83.2269 80.574C83.2409 80.42 83.2724 80.2712 83.3214 80.1277C83.3704 79.9807 83.4509 79.846 83.5629 79.7235C83.6924 79.58 83.8342 79.4785 83.9882 79.419C84.1422 79.356 84.2979 79.3175 84.4554 79.3035C84.6164 79.2895 84.7687 79.2825 84.9122 79.2825H85.6314V80.0595H84.9647C84.6882 80.0595 84.4817 80.1277 84.3452 80.2642C84.2087 80.3972 84.1404 80.6002 84.1404 80.8732V87H83.2059ZM82.2452 82.1017V81.33H85.6314V82.1017H82.2452ZM86.4694 87V81.33H87.3041V82.7002L87.1676 82.5217C87.2341 82.3467 87.3199 82.1857 87.4249 82.0387C87.5334 81.8917 87.6541 81.771 87.7871 81.6765C87.9341 81.5575 88.1004 81.4665 88.2859 81.4035C88.4714 81.3405 88.6604 81.3037 88.8529 81.2932C89.0454 81.2792 89.2256 81.2915 89.3936 81.33V82.2067C89.1976 82.1542 88.9824 82.1402 88.7479 82.1647C88.5134 82.1892 88.2964 82.275 88.0969 82.422C87.9149 82.5515 87.7731 82.709 87.6716 82.8945C87.5736 83.08 87.5054 83.2812 87.4669 83.4982C87.4284 83.7117 87.4091 83.9305 87.4091 84.1545V87H86.4694ZM92.7408 87.1575C92.1843 87.1575 91.6978 87.035 91.2813 86.79C90.8683 86.5415 90.5463 86.1967 90.3153 85.7557C90.0843 85.3112 89.9688 84.7932 89.9688 84.2017C89.9688 83.5822 90.0826 83.0467 90.3101 82.5952C90.5376 82.1402 90.8543 81.7902 91.2603 81.5452C91.6698 81.2967 92.1493 81.1725 92.6988 81.1725C93.2693 81.1725 93.7541 81.3037 94.1531 81.5662C94.5556 81.8287 94.8566 82.2032 95.0561 82.6897C95.2591 83.1762 95.3466 83.7555 95.3186 84.4275H94.3736V84.0915C94.3631 83.395 94.2213 82.8752 93.9483 82.5322C93.6753 82.1857 93.2693 82.0125 92.7303 82.0125C92.1528 82.0125 91.7136 82.198 91.4126 82.569C91.1116 82.94 90.9611 83.472 90.9611 84.165C90.9611 84.8335 91.1116 85.3515 91.4126 85.719C91.7136 86.0865 92.1423 86.2702 92.6988 86.2702C93.0733 86.2702 93.3988 86.1845 93.6753 86.013C93.9518 85.8415 94.1688 85.5947 94.3263 85.2727L95.2241 85.5825C95.0036 86.083 94.6711 86.4715 94.2266 86.748C93.7856 87.021 93.2903 87.1575 92.7408 87.1575ZM90.6461 84.4275V83.6767H94.8356V84.4275H90.6461ZM98.6294 87.1523C97.9539 87.1523 97.3992 87.0052 96.9652 86.7112C96.5347 86.4137 96.2704 85.999 96.1724 85.467L97.1279 85.3147C97.2049 85.6227 97.3817 85.8677 97.6582 86.0497C97.9347 86.2282 98.2777 86.3175 98.6872 86.3175C99.0757 86.3175 99.3802 86.237 99.6007 86.076C99.8212 85.915 99.9314 85.6962 99.9314 85.4197C99.9314 85.2587 99.8947 85.1292 99.8212 85.0312C99.7477 84.9297 99.5954 84.8352 99.3644 84.7477C99.1369 84.6602 98.7922 84.5552 98.3302 84.4327C97.8297 84.2997 97.4359 84.1615 97.1489 84.018C96.8619 83.8745 96.6572 83.7082 96.5347 83.5192C96.4122 83.3302 96.3509 83.101 96.3509 82.8315C96.3509 82.499 96.4419 82.2085 96.6239 81.96C96.8059 81.708 97.0597 81.5137 97.3852 81.3772C97.7142 81.2407 98.0957 81.1725 98.5297 81.1725C98.9602 81.1725 99.3452 81.2407 99.6847 81.3772C100.024 81.5137 100.297 81.708 100.504 81.96C100.714 82.2085 100.838 82.499 100.876 82.8315L99.9209 83.0047C99.8754 82.7002 99.7284 82.4605 99.4799 82.2855C99.2349 82.1105 98.9182 82.0177 98.5297 82.0072C98.1622 81.9932 97.8629 82.058 97.6319 82.2015C97.4044 82.345 97.2907 82.5392 97.2907 82.7842C97.2907 82.9207 97.3327 83.038 97.4167 83.136C97.5042 83.234 97.6634 83.3267 97.8944 83.4142C98.1289 83.5017 98.4684 83.6015 98.9129 83.7135C99.4134 83.8395 99.8072 83.9777 100.094 84.1282C100.385 84.2752 100.591 84.4502 100.714 84.6532C100.836 84.8527 100.897 85.0995 100.897 85.3935C100.897 85.9395 100.696 86.37 100.294 86.685C99.8912 86.9965 99.3364 87.1523 98.6294 87.1523ZM106.093 87V84.1597C106.093 83.8902 106.068 83.6312 106.019 83.3827C105.974 83.1342 105.891 82.912 105.772 82.716C105.657 82.5165 105.499 82.359 105.3 82.2435C105.104 82.128 104.855 82.0702 104.554 82.0702C104.32 82.0702 104.106 82.1105 103.914 82.191C103.725 82.268 103.562 82.387 103.426 82.548C103.289 82.709 103.182 82.912 103.105 83.157C103.032 83.3985 102.995 83.6837 102.995 84.0127L102.381 83.8237C102.381 83.2742 102.479 82.8035 102.675 82.4115C102.874 82.016 103.153 81.7132 103.51 81.5032C103.87 81.2897 104.294 81.183 104.78 81.183C105.148 81.183 105.461 81.2407 105.72 81.3562C105.979 81.4717 106.194 81.6257 106.366 81.8182C106.537 82.0072 106.672 82.2207 106.77 82.4587C106.868 82.6932 106.936 82.933 106.975 83.178C107.017 83.4195 107.038 83.6487 107.038 83.8657V87H106.093ZM102.05 87V79.44H102.89V83.6137H102.995V87H102.05Z" fill="white"/>
</g>
<defs>
<filter id="filter0_ddd_4024_69864" x="8.5" y="62.5" width="45" height="45" filterUnits="userSpaceOnUse" color-interpolation-filters="sRGB">
<feFlood flood-opacity="0" result="BackgroundImageFix"/>
<feColorMatrix in="SourceAlpha" type="matrix" values="0 0 0 0 0 0 0 0 0 0 0 0 0 0 0 0 0 0 127 0" result="hardAlpha"/>
<feOffset dy="3"/>
<feGaussianBlur stdDeviation="0.5"/>
<feColorMatrix type="matrix" values="0 0 0 0 0 0 0 0 0 0 0 0 0 0 0 0 0 0 0.1 0"/>
<feBlend mode="normal" in2="BackgroundImageFix" result="effect1_dropShadow_4024_69864"/>
<feColorMatrix in="SourceAlpha" type="matrix" values="0 0 0 0 0 0 0 0 0 0 0 0 0 0 0 0 0 0 127 0" result="hardAlpha"/>
<feOffset dy="1"/>
<feGaussianBlur stdDeviation="0.5"/>
<feColorMatrix type="matrix" values="0 0 0 0 0 0 0 0 0 0 0 0 0 0 0 0 0 0 0.16 0"/>
<feBlend mode="normal" in2="effect1_dropShadow_4024_69864" result="effect2_dropShadow_4024_69864"/>
<feColorMatrix in="SourceAlpha" type="matrix" values="0 0 0 0 0 0 0 0 0 0 0 0 0 0 0 0 0 0 127 0" result="hardAlpha"/>
<feOffset dy="3"/>
<feGaussianBlur stdDeviation="4"/>
<feColorMatrix type="matrix" values="0 0 0 0 0 0 0 0 0 0 0 0 0 0 0 0 0 0 0.15 0"/>
<feBlend mode="normal" in2="effect2_dropShadow_4024_69864" result="effect3_dropShadow_4024_69864"/>
<feBlend mode="normal" in="SourceGraphic" in2="effect3_dropShadow_4024_69864" result="shape"/>
</filter>
<filter id="filter1_d_4024_69864" x="15" y="41" width="141" height="108" filterUnits="userSpaceOnUse" color-interpolation-filters="sRGB">
<feFlood flood-opacity="0" result="BackgroundImageFix"/>
<feColorMatrix in="SourceAlpha" type="matrix" values="0 0 0 0 0 0 0 0 0 0 0 0 0 0 0 0 0 0 127 0" result="hardAlpha"/>
<feOffset dy="12"/>
<feGaussianBlur stdDeviation="18"/>
<feColorMatrix type="matrix" values="0 0 0 0 0 0 0 0 0 0 0 0 0 0 0 0 0 0 0.22 0"/>
<feBlend mode="normal" in2="BackgroundImageFix" result="effect1_dropShadow_4024_69864"/>
<feBlend mode="normal" in="SourceGraphic" in2="effect1_dropShadow_4024_69864" result="shape"/>
</filter>
</defs>
</svg>
