<svg width="153" height="127" viewBox="0 0 153 127" fill="none" xmlns="http://www.w3.org/2000/svg">
<g filter="url(#filter0_ddd_4024_69863)">
<path fill-rule="evenodd" clip-rule="evenodd" d="M22.5 72C28.299 72 33 67.299 33 61.5C33 55.701 28.299 51 22.5 51C16.701 51 12 55.701 12 61.5C12 67.299 16.701 72 22.5 72Z" fill="#353B46"/>
<path d="M22.5 72.1875C28.4025 72.1875 33.1875 67.4025 33.1875 61.5C33.1875 55.5975 28.4025 50.8125 22.5 50.8125C16.5975 50.8125 11.8125 55.5975 11.8125 61.5C11.8125 67.4025 16.5975 72.1875 22.5 72.1875Z" stroke="black" stroke-opacity="0.04" stroke-width="0.375"/>
</g>
<rect width="46" height="36" rx="18" fill="#353B46"/>
<path d="M16.6677 22.5V20.91H12.6957V19.896L15.5457 13.86H16.7577L13.9077 19.896H16.6677V17.466H17.7477V19.896H18.6477V20.91H17.7477V22.5H16.6677ZM23.0001 22.68C22.4401 22.68 21.9401 22.554 21.5001 22.302C21.0641 22.046 20.7181 21.7 20.4621 21.264C20.2101 20.824 20.0841 20.324 20.0841 19.764V16.596C20.0841 16.036 20.2101 15.536 20.4621 15.096C20.7181 14.656 21.0641 14.31 21.5001 14.058C21.9401 13.806 22.4401 13.68 23.0001 13.68C23.5601 13.68 24.0601 13.806 24.5001 14.058C24.9401 14.31 25.2861 14.656 25.5381 15.096C25.7901 15.536 25.9161 16.036 25.9161 16.596V19.764C25.9161 20.324 25.7901 20.824 25.5381 21.264C25.2861 21.7 24.9401 22.046 24.5001 22.302C24.0601 22.554 23.5601 22.68 23.0001 22.68ZM23.0001 21.654C23.3401 21.654 23.6481 21.572 23.9241 21.408C24.2001 21.244 24.4201 21.024 24.5841 20.748C24.7481 20.468 24.8301 20.16 24.8301 19.824V16.53C24.8301 16.19 24.7481 15.882 24.5841 15.606C24.4201 15.33 24.2001 15.11 23.9241 14.946C23.6481 14.782 23.3401 14.7 23.0001 14.7C22.6641 14.7 22.3561 14.782 22.0761 14.946C21.8001 15.11 21.5801 15.33 21.4161 15.606C21.2521 15.882 21.1701 16.19 21.1701 16.53V19.824C21.1701 20.16 21.2521 20.468 21.4161 20.748C21.5801 21.024 21.8001 21.244 22.0761 21.408C22.3561 21.572 22.6641 21.654 23.0001 21.654ZM31.3279 22.5V20.91H27.3559V19.896L30.2059 13.86H31.4179L28.5679 19.896H31.3279V17.466H32.4079V19.896H33.3079V20.91H32.4079V22.5H31.3279Z" fill="white"/>
<path fill-rule="evenodd" clip-rule="evenodd" d="M21.5 35.25H24.5V51.75H21.5V35.25Z" fill="#353B46"/>
<g filter="url(#filter1_d_4024_69863)">
<path d="M48 61L54 67V55L48 61Z" fill="#353B46"/>
<rect x="54" y="43" width="63" height="36" rx="6" fill="#353B46"/>
<path d="M66.735 65V57.44H69.7223C69.7958 57.44 69.8833 57.4435 69.9848 57.4505C70.0863 57.454 70.1843 57.4645 70.2788 57.482C70.6883 57.545 71.0313 57.685 71.3078 57.902C71.5878 58.119 71.7978 58.3937 71.9378 58.7262C72.0778 59.0552 72.1478 59.421 72.1478 59.8235C72.1478 60.408 71.9955 60.9155 71.691 61.346C71.3865 61.773 70.9403 62.0407 70.3523 62.1492L69.9953 62.207H67.6695V65H66.735ZM71.2343 65L69.7433 61.9235L70.6673 61.64L72.3053 65H71.2343ZM67.6695 61.3197H69.6908C69.7573 61.3197 69.8325 61.3162 69.9165 61.3092C70.004 61.3022 70.0863 61.29 70.1633 61.2725C70.4048 61.2165 70.6008 61.115 70.7513 60.968C70.9053 60.8175 71.0173 60.6425 71.0873 60.443C71.1573 60.24 71.1923 60.0335 71.1923 59.8235C71.1923 59.6135 71.1573 59.4087 71.0873 59.2092C71.0173 59.0062 70.9053 58.8295 70.7513 58.679C70.6008 58.5285 70.4048 58.427 70.1633 58.3745C70.0863 58.3535 70.004 58.3412 69.9165 58.3377C69.8325 58.3307 69.7573 58.3272 69.6908 58.3272H67.6695V61.3197ZM75.9186 65.1575C75.3621 65.1575 74.8756 65.035 74.4591 64.79C74.0461 64.5415 73.7241 64.1967 73.4931 63.7557C73.2621 63.3112 73.1466 62.7932 73.1466 62.2017C73.1466 61.5822 73.2603 61.0467 73.4878 60.5952C73.7153 60.1402 74.0321 59.7902 74.4381 59.5452C74.8476 59.2967 75.3271 59.1725 75.8766 59.1725C76.4471 59.1725 76.9318 59.3037 77.3308 59.5662C77.7333 59.8287 78.0343 60.2032 78.2338 60.6897C78.4368 61.1762 78.5243 61.7555 78.4963 62.4275H77.5513V62.0915C77.5408 61.395 77.3991 60.8752 77.1261 60.5322C76.8531 60.1857 76.4471 60.0125 75.9081 60.0125C75.3306 60.0125 74.8913 60.198 74.5903 60.569C74.2893 60.94 74.1388 61.472 74.1388 62.165C74.1388 62.8335 74.2893 63.3515 74.5903 63.719C74.8913 64.0865 75.3201 64.2702 75.8766 64.2702C76.2511 64.2702 76.5766 64.1845 76.8531 64.013C77.1296 63.8415 77.3466 63.5947 77.5041 63.2727L78.4018 63.5825C78.1813 64.083 77.8488 64.4715 77.4043 64.748C76.9633 65.021 76.4681 65.1575 75.9186 65.1575ZM73.8238 62.4275V61.6767H78.0133V62.4275H73.8238ZM80.2059 65V59.0202C80.2059 58.8732 80.2129 58.7245 80.2269 58.574C80.2409 58.42 80.2724 58.2712 80.3214 58.1277C80.3704 57.9807 80.4509 57.846 80.5629 57.7235C80.6924 57.58 80.8342 57.4785 80.9882 57.419C81.1422 57.356 81.2979 57.3175 81.4554 57.3035C81.6164 57.2895 81.7687 57.2825 81.9122 57.2825H82.6314V58.0595H81.9647C81.6882 58.0595 81.4817 58.1277 81.3452 58.2642C81.2087 58.3972 81.1404 58.6002 81.1404 58.8732V65H80.2059ZM79.2452 60.1017V59.33H82.6314V60.1017H79.2452ZM83.4694 65V59.33H84.3041V60.7002L84.1676 60.5217C84.2341 60.3467 84.3199 60.1857 84.4249 60.0387C84.5334 59.8917 84.6541 59.771 84.7871 59.6765C84.9341 59.5575 85.1004 59.4665 85.2859 59.4035C85.4714 59.3405 85.6604 59.3037 85.8529 59.2932C86.0454 59.2792 86.2256 59.2915 86.3936 59.33V60.2067C86.1976 60.1542 85.9824 60.1402 85.7479 60.1647C85.5134 60.1892 85.2964 60.275 85.0969 60.422C84.9149 60.5515 84.7731 60.709 84.6716 60.8945C84.5736 61.08 84.5054 61.2812 84.4669 61.4982C84.4284 61.7117 84.4091 61.9305 84.4091 62.1545V65H83.4694ZM89.7408 65.1575C89.1843 65.1575 88.6978 65.035 88.2813 64.79C87.8683 64.5415 87.5463 64.1967 87.3153 63.7557C87.0843 63.3112 86.9688 62.7932 86.9688 62.2017C86.9688 61.5822 87.0826 61.0467 87.3101 60.5952C87.5376 60.1402 87.8543 59.7902 88.2603 59.5452C88.6698 59.2967 89.1493 59.1725 89.6988 59.1725C90.2693 59.1725 90.7541 59.3037 91.1531 59.5662C91.5556 59.8287 91.8566 60.2032 92.0561 60.6897C92.2591 61.1762 92.3466 61.7555 92.3186 62.4275H91.3736V62.0915C91.3631 61.395 91.2213 60.8752 90.9483 60.5322C90.6753 60.1857 90.2693 60.0125 89.7303 60.0125C89.1528 60.0125 88.7136 60.198 88.4126 60.569C88.1116 60.94 87.9611 61.472 87.9611 62.165C87.9611 62.8335 88.1116 63.3515 88.4126 63.719C88.7136 64.0865 89.1423 64.2702 89.6988 64.2702C90.0733 64.2702 90.3988 64.1845 90.6753 64.013C90.9518 63.8415 91.1688 63.5947 91.3263 63.2727L92.2241 63.5825C92.0036 64.083 91.6711 64.4715 91.2266 64.748C90.7856 65.021 90.2903 65.1575 89.7408 65.1575ZM87.6461 62.4275V61.6767H91.8356V62.4275H87.6461ZM95.6294 65.1523C94.9539 65.1523 94.3992 65.0052 93.9652 64.7112C93.5347 64.4137 93.2704 63.999 93.1724 63.467L94.1279 63.3147C94.2049 63.6227 94.3817 63.8677 94.6582 64.0497C94.9347 64.2282 95.2777 64.3175 95.6872 64.3175C96.0757 64.3175 96.3802 64.237 96.6007 64.076C96.8212 63.915 96.9314 63.6962 96.9314 63.4197C96.9314 63.2587 96.8947 63.1292 96.8212 63.0312C96.7477 62.9297 96.5954 62.8352 96.3644 62.7477C96.1369 62.6602 95.7922 62.5552 95.3302 62.4327C94.8297 62.2997 94.4359 62.1615 94.1489 62.018C93.8619 61.8745 93.6572 61.7082 93.5347 61.5192C93.4122 61.3302 93.3509 61.101 93.3509 60.8315C93.3509 60.499 93.4419 60.2085 93.6239 59.96C93.8059 59.708 94.0597 59.5137 94.3852 59.3772C94.7142 59.2407 95.0957 59.1725 95.5297 59.1725C95.9602 59.1725 96.3452 59.2407 96.6847 59.3772C97.0242 59.5137 97.2972 59.708 97.5037 59.96C97.7137 60.2085 97.8379 60.499 97.8764 60.8315L96.9209 61.0047C96.8754 60.7002 96.7284 60.4605 96.4799 60.2855C96.2349 60.1105 95.9182 60.0177 95.5297 60.0072C95.1622 59.9932 94.8629 60.058 94.6319 60.2015C94.4044 60.345 94.2907 60.5392 94.2907 60.7842C94.2907 60.9207 94.3327 61.038 94.4167 61.136C94.5042 61.234 94.6634 61.3267 94.8944 61.4142C95.1289 61.5017 95.4684 61.6015 95.9129 61.7135C96.4134 61.8395 96.8072 61.9777 97.0942 62.1282C97.3847 62.2752 97.5912 62.4502 97.7137 62.6532C97.8362 62.8527 97.8974 63.0995 97.8974 63.3935C97.8974 63.9395 97.6962 64.37 97.2937 64.685C96.8912 64.9965 96.3364 65.1523 95.6294 65.1523ZM103.093 65V62.1597C103.093 61.8902 103.068 61.6312 103.019 61.3827C102.974 61.1342 102.891 60.912 102.772 60.716C102.657 60.5165 102.499 60.359 102.3 60.2435C102.104 60.128 101.855 60.0702 101.554 60.0702C101.32 60.0702 101.106 60.1105 100.914 60.191C100.725 60.268 100.562 60.387 100.426 60.548C100.289 60.709 100.182 60.912 100.105 61.157C100.032 61.3985 99.9951 61.6837 99.9951 62.0127L99.3808 61.8237C99.3808 61.2742 99.4788 60.8035 99.6748 60.4115C99.8743 60.016 100.153 59.7132 100.51 59.5032C100.87 59.2897 101.294 59.183 101.78 59.183C102.148 59.183 102.461 59.2407 102.72 59.3562C102.979 59.4717 103.194 59.6257 103.366 59.8182C103.537 60.0072 103.672 60.2207 103.77 60.4587C103.868 60.6932 103.936 60.933 103.975 61.178C104.017 61.4195 104.038 61.6487 104.038 61.8657V65H103.093ZM99.0501 65V57.44H99.8901V61.6137H99.9951V65H99.0501Z" fill="white"/>
</g>
<defs>
<filter id="filter0_ddd_4024_69863" x="5.625" y="46.875" width="33.75" height="33.75" filterUnits="userSpaceOnUse" color-interpolation-filters="sRGB">
<feFlood flood-opacity="0" result="BackgroundImageFix"/>
<feColorMatrix in="SourceAlpha" type="matrix" values="0 0 0 0 0 0 0 0 0 0 0 0 0 0 0 0 0 0 127 0" result="hardAlpha"/>
<feOffset dy="2.25"/>
<feGaussianBlur stdDeviation="0.375"/>
<feColorMatrix type="matrix" values="0 0 0 0 0 0 0 0 0 0 0 0 0 0 0 0 0 0 0.1 0"/>
<feBlend mode="normal" in2="BackgroundImageFix" result="effect1_dropShadow_4024_69863"/>
<feColorMatrix in="SourceAlpha" type="matrix" values="0 0 0 0 0 0 0 0 0 0 0 0 0 0 0 0 0 0 127 0" result="hardAlpha"/>
<feOffset dy="0.75"/>
<feGaussianBlur stdDeviation="0.375"/>
<feColorMatrix type="matrix" values="0 0 0 0 0 0 0 0 0 0 0 0 0 0 0 0 0 0 0.16 0"/>
<feBlend mode="normal" in2="effect1_dropShadow_4024_69863" result="effect2_dropShadow_4024_69863"/>
<feColorMatrix in="SourceAlpha" type="matrix" values="0 0 0 0 0 0 0 0 0 0 0 0 0 0 0 0 0 0 127 0" result="hardAlpha"/>
<feOffset dy="2.25"/>
<feGaussianBlur stdDeviation="3"/>
<feColorMatrix type="matrix" values="0 0 0 0 0 0 0 0 0 0 0 0 0 0 0 0 0 0 0.15 0"/>
<feBlend mode="normal" in2="effect2_dropShadow_4024_69863" result="effect3_dropShadow_4024_69863"/>
<feBlend mode="normal" in="SourceGraphic" in2="effect3_dropShadow_4024_69863" result="shape"/>
</filter>
<filter id="filter1_d_4024_69863" x="12" y="19" width="141" height="108" filterUnits="userSpaceOnUse" color-interpolation-filters="sRGB">
<feFlood flood-opacity="0" result="BackgroundImageFix"/>
<feColorMatrix in="SourceAlpha" type="matrix" values="0 0 0 0 0 0 0 0 0 0 0 0 0 0 0 0 0 0 127 0" result="hardAlpha"/>
<feOffset dy="12"/>
<feGaussianBlur stdDeviation="18"/>
<feColorMatrix type="matrix" values="0 0 0 0 0 0 0 0 0 0 0 0 0 0 0 0 0 0 0.22 0"/>
<feBlend mode="normal" in2="BackgroundImageFix" result="effect1_dropShadow_4024_69863"/>
<feBlend mode="normal" in="SourceGraphic" in2="effect1_dropShadow_4024_69863" result="shape"/>
</filter>
</defs>
</svg>
