<?xml version="1.0" standalone="no"?>
<!DOCTYPE svg PUBLIC "-//W3C//DTD SVG 20010904//EN"
 "http://www.w3.org/TR/2001/REC-SVG-20010904/DTD/svg10.dtd">
<svg version="1.0" xmlns="http://www.w3.org/2000/svg"
 width="512.000000pt" height="629.000000pt" viewBox="0 0 512.000000 629.000000"
 preserveAspectRatio="xMidYMid meet">

<g transform="translate(0.000000,629.000000) scale(0.100000,-0.100000)"
fill="#000000" stroke="none">
<path d="M3653 6269 c-410 -86 -782 -378 -977 -767 -55 -109 -101 -243 -122
-349 -17 -93 -19 -284 -2 -301 16 -16 129 -15 220 2 376 72 731 362 912 746
24 52 54 124 66 160 51 153 80 360 66 474 -7 55 -8 56 -39 55 -18 0 -73 -9
-124 -20z"/>
<path d="M3580 4763 c-144 -15 -314 -64 -589 -170 -214 -82 -320 -113 -391
-113 -72 0 -194 35 -388 111 -357 140 -464 164 -697 156 -690 -25 -1263 -531
-1445 -1279 -52 -213 -64 -327 -64 -598 0 -176 5 -282 18 -375 88 -657 320
-1259 678 -1757 198 -277 376 -480 508 -580 148 -113 305 -164 470 -154 125 7
214 32 433 120 218 88 308 113 456 127 218 22 391 -10 659 -122 199 -83 295
-109 422 -116 171 -9 290 21 445 111 181 106 507 496 720 860 79 135 194 377
247 521 68 182 69 165 -10 204 -188 92 -414 284 -531 451 -101 144 -178 322
-218 502 -26 120 -26 448 1 568 76 348 278 649 581 865 36 26 65 51 65 55 0
18 -124 162 -202 234 -224 209 -521 340 -850 375 -92 10 -241 12 -318 4z"/>
</g>
</svg>
