<svg width="21" height="21" viewBox="0 0 21 21" fill="none" xmlns="http://www.w3.org/2000/svg">
<g id="Monotone add">
<path id="Vector" d="M6.11293 10.7045L6.11288 10.7044C6.02912 10.621 5.96267 10.5218 5.91732 10.4126C5.87197 10.3034 5.84863 10.1863 5.84863 10.068C5.84863 9.94979 5.87197 9.8327 5.91732 9.7235C5.96267 9.61429 6.02912 9.51511 6.11288 9.43164L6.11293 9.43159L12.3629 3.18159C12.5317 3.0128 12.7607 2.91797 12.9994 2.91797C13.2381 2.91797 13.467 3.0128 13.6358 3.18159C13.8046 3.35039 13.8994 3.57932 13.8994 3.81803C13.8994 4.05674 13.8046 4.28568 13.6358 4.45447L8.05066 10.0396L8.02304 10.0672L8.05065 10.0949L13.6358 15.6816L13.6634 15.654L13.6358 15.6816C13.8046 15.8504 13.8994 16.0793 13.8994 16.318C13.8994 16.5567 13.8046 16.7857 13.6358 16.9545C13.467 17.1233 13.2381 17.2181 12.9994 17.2181C12.7607 17.2181 12.5317 17.1233 12.3629 16.9545L6.11293 10.7045Z" fill="#8E9DBC" stroke="#8E9DBC" stroke-width="0.078125"/>
</g>
</svg>
