<svg width="21" height="21" viewBox="0 0 21 21" fill="none" xmlns="http://www.w3.org/2000/svg">
<g id="Monotone add">
<path id="Vector" d="M14.8857 10.7024L14.8856 10.7025L8.63563 16.9525C8.46683 17.1213 8.2379 17.2161 7.99918 17.2161C7.76047 17.2161 7.53154 17.1213 7.36274 16.9525C7.19395 16.7837 7.09912 16.5548 7.09912 16.3161C7.09912 16.0774 7.19395 15.8484 7.36274 15.6796L12.9495 10.0945L12.9771 10.0669L12.9495 10.0392L7.36431 4.45252L7.36431 4.45252C7.28073 4.36894 7.21443 4.26972 7.1692 4.16052C7.12396 4.05132 7.10068 3.93428 7.10068 3.81608C7.10068 3.69788 7.12396 3.58084 7.1692 3.47164C7.21443 3.36244 7.28073 3.26322 7.36431 3.17964C7.44788 3.09606 7.54711 3.02976 7.65631 2.98453C7.76551 2.9393 7.88255 2.91602 8.00075 2.91602C8.11895 2.91602 8.23599 2.9393 8.34519 2.98453C8.45439 3.02976 8.55361 3.09606 8.63719 3.17964L14.8872 9.42964L14.8872 9.42965C14.9709 9.51322 15.0372 9.61248 15.0824 9.72174C15.1276 9.831 15.1508 9.94811 15.1507 10.0664C15.1506 10.1846 15.1271 10.3017 15.0816 10.4108C15.0361 10.52 14.9696 10.6191 14.8857 10.7024Z" fill="#5A6C8D" stroke="#5A6C8D" stroke-width="0.078125"/>
</g>
</svg>
