<svg width="30" height="26" viewBox="0 0 30 26" fill="none" xmlns="http://www.w3.org/2000/svg">
<path id="Vector" d="M12.4999 24C12.4999 24.3956 12.3826 24.7822 12.1628 25.1111C11.9431 25.44 11.6307 25.6964 11.2652 25.8478C10.8998 25.9991 10.4977 26.0387 10.1097 25.9616C9.72174 25.8844 9.36537 25.6939 9.08566 25.4142C8.80596 25.1345 8.61548 24.7781 8.53831 24.3902C8.46114 24.0022 8.50074 23.6001 8.65212 23.2346C8.80349 22.8692 9.05984 22.5568 9.38874 22.3371C9.71764 22.1173 10.1043 22 10.4999 22C11.0303 22 11.539 22.2107 11.9141 22.5858C12.2892 22.9609 12.4999 23.4696 12.4999 24ZM23.4999 22C23.1043 22 22.7176 22.1173 22.3887 22.3371C22.0598 22.5568 21.8035 22.8692 21.6521 23.2346C21.5007 23.6001 21.4611 24.0022 21.5383 24.3902C21.6155 24.7781 21.806 25.1345 22.0857 25.4142C22.3654 25.6939 22.7217 25.8844 23.1097 25.9616C23.4977 26.0387 23.8998 25.9991 24.2652 25.8478C24.6307 25.6964 24.9431 25.44 25.1628 25.1111C25.3826 24.7822 25.4999 24.3956 25.4999 24C25.4999 23.4696 25.2892 22.9609 24.9141 22.5858C24.539 22.2107 24.0303 22 23.4999 22ZM29.4636 6.2675L26.2586 17.8025C26.0824 18.4326 25.7055 18.9881 25.1851 19.3846C24.6647 19.7812 24.0292 19.9973 23.3749 20H11.0199C10.3637 19.9997 9.72556 19.7848 9.20288 19.388C8.68019 18.9913 8.30161 18.4345 8.12488 17.8025L3.73988 2H1.49988C1.23466 2 0.980307 1.89464 0.792771 1.70711C0.605235 1.51957 0.499878 1.26522 0.499878 1C0.499878 0.734784 0.605235 0.48043 0.792771 0.292893C0.980307 0.105357 1.23466 1.84705e-08 1.49988 1.84705e-08H4.49988C4.7185 -4.19873e-05 4.93112 0.0715645 5.10518 0.203858C5.27924 0.336151 5.40515 0.52184 5.46363 0.7325L6.64863 5H28.4999C28.654 4.99997 28.8061 5.03558 28.9442 5.10406C29.0824 5.17254 29.2028 5.27202 29.2961 5.39474C29.3894 5.51746 29.4531 5.66009 29.4821 5.81149C29.5112 5.96289 29.5049 6.11895 29.4636 6.2675ZM27.1836 7H7.20488L10.0561 17.2675C10.1146 17.4782 10.2405 17.6638 10.4146 17.7961C10.5886 17.9284 10.8013 18 11.0199 18H23.3749C23.5935 18 23.8061 17.9284 23.9802 17.7961C24.1542 17.6638 24.2801 17.4782 24.3386 17.2675L27.1836 7Z" fill="#F1F4F7"/>
</svg>
