<svg width="28" height="28" viewBox="0 0 28 28" fill="none" xmlns="http://www.w3.org/2000/svg">
<path id="Vector" d="M26.9138 13.5L14.5 1.08626C14.315 0.899734 14.0947 0.751852 13.852 0.651209C13.6093 0.550566 13.349 0.499171 13.0863 0.50001H1.50001C1.23479 0.50001 0.98044 0.605367 0.792904 0.792904C0.605367 0.98044 0.50001 1.23479 0.50001 1.50001V13.0863C0.499171 13.349 0.550566 13.6093 0.651209 13.852C0.751852 14.0947 0.899734 14.315 1.08626 14.5L13.5 26.9138C13.6857 27.0995 13.9062 27.2469 14.1489 27.3474C14.3916 27.448 14.6517 27.4997 14.9144 27.4997C15.1771 27.4997 15.4372 27.448 15.6799 27.3474C15.9225 27.2469 16.143 27.0995 16.3288 26.9138L26.9138 16.3288C27.0995 16.143 27.2469 15.9225 27.3474 15.6799C27.448 15.4372 27.4997 15.1771 27.4997 14.9144C27.4997 14.6517 27.448 14.3916 27.3474 14.1489C27.2469 13.9062 27.0995 13.6857 26.9138 13.5ZM14.9138 25.5L2.50001 13.0863V2.50001H13.0863L25.5 14.9138L14.9138 25.5ZM8.50001 7.00001C8.50001 7.29668 8.41204 7.58669 8.24721 7.83336C8.08239 8.08004 7.84812 8.2723 7.57404 8.38583C7.29995 8.49936 6.99835 8.52907 6.70737 8.47119C6.4164 8.41331 6.14913 8.27045 5.93935 8.06067C5.72957 7.85089 5.58671 7.58362 5.52883 7.29265C5.47095 7.00167 5.50066 6.70007 5.61419 6.42598C5.72772 6.1519 5.91998 5.91763 6.16666 5.75281C6.41333 5.58798 6.70334 5.50001 7.00001 5.50001C7.39783 5.50001 7.77937 5.65805 8.06067 5.93935C8.34197 6.22065 8.50001 6.60219 8.50001 7.00001Z" fill="black"/>
</svg>
