<svg width="22" height="22" viewBox="0 0 22 22" fill="none" xmlns="http://www.w3.org/2000/svg">
<g id="dots-three-outline">
<path id="Vector" d="M11 8.25C10.4561 8.25 9.92442 8.41128 9.47218 8.71346C9.01995 9.01563 8.66747 9.44512 8.45933 9.94762C8.25119 10.4501 8.19673 11.0031 8.30284 11.5365C8.40895 12.0699 8.67086 12.5599 9.05546 12.9445C9.44005 13.3291 9.93006 13.5911 10.4635 13.6972C10.997 13.8033 11.5499 13.7488 12.0524 13.5407C12.5549 13.3325 12.9844 12.9801 13.2865 12.5278C13.5887 12.0756 13.75 11.5439 13.75 11C13.75 10.2707 13.4603 9.57118 12.9445 9.05546C12.4288 8.53973 11.7293 8.25 11 8.25ZM11 12.375C10.7281 12.375 10.4622 12.2944 10.2361 12.1433C10.01 11.9922 9.83374 11.7774 9.72967 11.5262C9.6256 11.2749 9.59837 10.9985 9.65142 10.7318C9.70448 10.465 9.83543 10.22 10.0277 10.0277C10.22 9.83543 10.465 9.70447 10.7318 9.65142C10.9985 9.59837 11.2749 9.62559 11.5262 9.72967C11.7774 9.83374 11.9922 10.01 12.1433 10.2361C12.2944 10.4622 12.375 10.7281 12.375 11C12.375 11.3647 12.2301 11.7144 11.9723 11.9723C11.7144 12.2301 11.3647 12.375 11 12.375ZM4.125 8.25C3.5811 8.25 3.04942 8.41128 2.59718 8.71346C2.14495 9.01563 1.79247 9.44512 1.58433 9.94762C1.37619 10.4501 1.32173 11.0031 1.42784 11.5365C1.53395 12.0699 1.79586 12.5599 2.18046 12.9445C2.56505 13.3291 3.05506 13.5911 3.5885 13.6972C4.12195 13.8033 4.67488 13.7488 5.17738 13.5407C5.67988 13.3325 6.10937 12.9801 6.41154 12.5278C6.71372 12.0756 6.875 11.5439 6.875 11C6.875 10.2707 6.58527 9.57118 6.06955 9.05546C5.55382 8.53973 4.85435 8.25 4.125 8.25ZM4.125 12.375C3.85305 12.375 3.58721 12.2944 3.36109 12.1433C3.13497 11.9922 2.95874 11.7774 2.85467 11.5262C2.7506 11.2749 2.72337 10.9985 2.77642 10.7318C2.82948 10.465 2.96043 10.22 3.15273 10.0277C3.34503 9.83543 3.59003 9.70447 3.85675 9.65142C4.12348 9.59837 4.39994 9.62559 4.65119 9.72967C4.90244 9.83374 5.11718 10.01 5.26827 10.2361C5.41936 10.4622 5.5 10.7281 5.5 11C5.5 11.3647 5.35514 11.7144 5.09727 11.9723C4.83941 12.2301 4.48967 12.375 4.125 12.375ZM17.875 8.25C17.3311 8.25 16.7994 8.41128 16.3472 8.71346C15.8949 9.01563 15.5425 9.44512 15.3343 9.94762C15.1262 10.4501 15.0717 11.0031 15.1778 11.5365C15.284 12.0699 15.5459 12.5599 15.9305 12.9445C16.3151 13.3291 16.8051 13.5911 17.3385 13.6972C17.872 13.8033 18.4249 13.7488 18.9274 13.5407C19.4299 13.3325 19.8594 12.9801 20.1615 12.5278C20.4637 12.0756 20.625 11.5439 20.625 11C20.625 10.2707 20.3353 9.57118 19.8195 9.05546C19.3038 8.53973 18.6043 8.25 17.875 8.25ZM17.875 12.375C17.6031 12.375 17.3372 12.2944 17.1111 12.1433C16.885 11.9922 16.7087 11.7774 16.6047 11.5262C16.5006 11.2749 16.4734 10.9985 16.5264 10.7318C16.5795 10.465 16.7104 10.22 16.9027 10.0277C17.095 9.83543 17.34 9.70447 17.6068 9.65142C17.8735 9.59837 18.1499 9.62559 18.4012 9.72967C18.6524 9.83374 18.8672 10.01 19.0183 10.2361C19.1694 10.4622 19.25 10.7281 19.25 11C19.25 11.3647 19.1051 11.7144 18.8473 11.9723C18.5894 12.2301 18.2397 12.375 17.875 12.375Z" fill="black"/>
</g>
</svg>
