<svg width="32" height="30" viewBox="0 0 32 30" fill="none" xmlns="http://www.w3.org/2000/svg">
<g id="export">
<path id="Vector" d="M24.4611 14.2311V23.4616C24.4611 23.8696 24.2991 24.2609 24.0105 24.5494C23.722 24.8379 23.3307 25 22.9227 25H9.07699C8.66898 25 8.27767 24.8379 7.98917 24.5494C7.70066 24.2609 7.53857 23.8696 7.53857 23.4616V14.2311C7.53857 13.8231 7.70066 13.4318 7.98917 13.1433C8.27767 12.8548 8.66898 12.6927 9.07699 12.6927H11.3846C11.5886 12.6927 11.7843 12.7737 11.9285 12.918C12.0728 13.0622 12.1538 13.2579 12.1538 13.4619C12.1538 13.6659 12.0728 13.8615 11.9285 14.0058C11.7843 14.1501 11.5886 14.2311 11.3846 14.2311H9.07699V23.4616H22.9227V14.2311H20.6151C20.4111 14.2311 20.2154 14.1501 20.0712 14.0058C19.9269 13.8615 19.8459 13.6659 19.8459 13.4619C19.8459 13.2579 19.9269 13.0622 20.0712 12.918C20.2154 12.7737 20.4111 12.6927 20.6151 12.6927H22.9227C23.3307 12.6927 23.722 12.8548 24.0105 13.1433C24.2991 13.4318 24.4611 13.8231 24.4611 14.2311ZM12.698 10.1601L15.2306 7.62649V16.5387C15.2306 16.7427 15.3117 16.9384 15.4559 17.0826C15.6002 17.2269 15.7959 17.3079 15.9999 17.3079C16.2039 17.3079 16.3995 17.2269 16.5438 17.0826C16.688 16.9384 16.7691 16.7427 16.7691 16.5387V7.62649L19.3017 10.1601C19.446 10.3044 19.6418 10.3855 19.8459 10.3855C20.05 10.3855 20.2458 10.3044 20.3901 10.1601C20.5344 10.0157 20.6155 9.81997 20.6155 9.61585C20.6155 9.41173 20.5344 9.21597 20.3901 9.07164L16.5441 5.2256C16.4726 5.15408 16.3878 5.09734 16.2944 5.05863C16.201 5.01992 16.1009 5 15.9999 5C15.8988 5 15.7987 5.01992 15.7053 5.05863C15.6119 5.09734 15.5271 5.15408 15.4556 5.2256L11.6096 9.07164C11.4653 9.21597 11.3842 9.41173 11.3842 9.61585C11.3842 9.81997 11.4653 10.0157 11.6096 10.1601C11.7539 10.3044 11.9497 10.3855 12.1538 10.3855C12.3579 10.3855 12.5537 10.3044 12.698 10.1601Z" fill="black"/>
</g>
</svg>
